<svg id="_Layer_" data-name="&lt;Layer&gt;" xmlns="http://www.w3.org/2000/svg" viewBox="0 0 98 48"><title>Artboard 1</title><path d="M18.62,18c-4.25,0-5.59,2.36-6,5.58C12.41,20.76,11.58,18,8.51,18A3.51,3.51,0,0,0,5,20.28H4.91v-1.9h-4V40.27h4.2V33.91h.06a3.55,3.55,0,0,0,3.43,2c3.07,0,3.85-2.81,4-5.68.42,3.45,1.81,5.68,6,5.68,5.43,0,6.13-3.78,6.13-9.14C24.76,22,24.16,18,18.62,18ZM6.81,32.92c-1.43,0-1.7-1.8-1.7-6.12,0-3.43,0-5.81,1.7-5.81S8.6,23.37,8.6,26.81C8.6,31.12,8.34,32.92,6.81,32.92Zm11.8-.1c-1.55,0-1.94-1.13-1.94-6.36,0-3.57.15-5.37,1.94-5.37s1.94,1.8,1.94,5.37C20.56,31.69,20.17,32.82,18.62,32.82Z"/><path d="M71.88,18c-2.89,0-4.43,1.09-5.25,2.81a14.35,14.35,0,0,0-3-4.63,13.91,13.91,0,0,0-19.66-.27l-.27.27a14.32,14.32,0,0,0-2.07,2.7l.13-.53H37.67L35.41,30.44h-.06L33.21,18.38H29.69V12.81h-4.2V35.55h4.2V21.17l3.42,14.51-1,4.59h4.42l3-12.84A14.3,14.3,0,0,0,53.67,41,14.06,14.06,0,0,0,66.42,32.5c.76,2.11,2.32,3.38,5.46,3.38,5.42,0,6.13-3.78,6.13-9.14C78,22,77.42,18,71.88,18ZM53.67,37.5a11,11,0,0,1,0-22,10.83,10.83,0,0,1,10.66,11A10.87,10.87,0,0,1,53.67,37.5Zm18.21-4.68c-1.55,0-1.94-1.13-1.94-6.36,0-3.57.15-5.37,1.94-5.37s1.94,1.8,1.94,5.37C73.82,31.69,73.43,32.82,71.88,32.82Z"/><path d="M82.91,23.71c0-1.53.25-2.72,1.58-2.72s1.58,1.19,1.58,2.72V35.55h4.12V23.71c0-1.53.25-2.72,1.58-2.72s1.58,1.19,1.58,2.72V35.55h4.2V21.77A3.6,3.6,0,0,0,93.79,18a4.32,4.32,0,0,0-3.9,2.17A3.7,3.7,0,0,0,86.52,18,3.63,3.63,0,0,0,83,20.1h-.06V18.38h-4.2V35.55h4.2Z"/><path d="M53.73,18.38a8.18,8.18,0,0,0,0,16.35,8.06,8.06,0,0,0,5.27-2l.31-.26L59,32.2l-1.91-2L56.88,30l-.27.22a4.66,4.66,0,0,1-2.94,1.05,4.71,4.71,0,0,1,0-9.42,4.63,4.63,0,0,1,3,1.14l.23.2.25-.18,2.23-1.65.38-.26-.31-.32A8,8,0,0,0,53.73,18.38Z"/><path d="M84.56,39.68c-.79-.44-1-.6-1-.95s.37-.69.87-.69a2,2,0,0,1,.85.21l.16-.65a3.68,3.68,0,0,0-1.05-.17,1.46,1.46,0,0,0-1.64,1.42,1.29,1.29,0,0,0,.17.65,2.44,2.44,0,0,0,1.06.84c.76.41,1,.64,1,1s-.41.8-1,.8a2.21,2.21,0,0,1-1.06-.27l-.17.68a4.26,4.26,0,0,0,1.3.22,1.59,1.59,0,0,0,1.8-1.57,1.45,1.45,0,0,0-.13-.61A2.43,2.43,0,0,0,84.56,39.68Z"/><path d="M90.25,41.67l-1.53-4.1h-.82a5.76,5.76,0,0,1-.31,1l-1.25,3.23a6.13,6.13,0,0,1-.41.93h.94l0-.06a5.68,5.68,0,0,1,.18-.61l.25-.74h1.94l.22.66.06.23.07.25a1.47,1.47,0,0,1,.06.27h1l0-.06A7,7,0,0,1,90.25,41.67Zm-1.27-1H87.55l.77-2.21.74,2.21Z"/><path d="M95.08,38.14l-.06.28-.59,3.07-.93-3.92h-.74l-.93,3.92-.61-3.12a4.93,4.93,0,0,1-.11-.8h-1a4.77,4.77,0,0,1,.28.93l1,4.19h.75l.93-4,.95,4h.76l1-4.2a7.79,7.79,0,0,1,.28-.92h-.9A4.91,4.91,0,0,1,95.08,38.14Z"/><path d="M97.61,38.34a4.89,4.89,0,0,1,.05-.77h-.95a4.59,4.59,0,0,1,.05.77v3.59a5.46,5.46,0,0,1,0,.77h.94a4.83,4.83,0,0,1-.05-.78Z"/></svg>