<svg id="Calque_1" data-name="Calque 1" xmlns="http://www.w3.org/2000/svg" viewBox="0 0 512 512">
  <defs>
    <style>
      .cls-1 {
        fill: none;
      }

      .cls-2 {
        fill: #0b0204;
      }

      .cls-3, .cls-4 {
        fill: #fff;
      }

      .cls-3 {
        fill-rule: evenodd;
      }
    </style>
  </defs>
  <title>ipac</title>
  <path class="cls-1" d="M256,512c141.39,0,256-114.61,256-256S397.39,0,256,0,0,114.61,0,256,114.61,512,256,512"/>
  <path class="cls-2" d="M108.1,391.67H299.71L443.58,247.19l.13-52.39H425.54V144.17H306A22.25,22.25,0,0,0,322.4,123V111.61c-1.43-13.49-10-20.42-24-20.49H162.58L108.1,145.45Z"/>
  <g>
    <path class="cls-3" d="M179.22,94.29H164.71v47.12h14.51Zm51.31,132.29h22.23V215.37H230.53v-5.87H255V197.42H216v47.12h39.7V232.46H230.53ZM189.39,146H165.58v47.12h21c16.42,0,24.07-9.17,24.07-23.62,0-11.88-5.54-23.49-21.24-23.49m1.55,82.66h6.4c-.73,3.5-4.16,5.21-7.52,5.21-8.84,0-10.62-7.72-10.62-12.14,0-3.23-.33-13.73,9.63-13.73a6.89,6.89,0,0,1,6.86,5.87H209.6c-2.11-11.09-9.7-17.62-21.7-17.62-10.62,0-23.21,7.19-23.21,25.14,0,13.4,8.57,24.22,22.49,24.22,5.14,0,10.16-1.78,13.39-5.94l.46,4.82h9.17V218.6H190.94Zm203.42-61.28h.13l14.44,25.74H423V146H409.33v25.21h-.13L395.48,146H380.64v47.12h13.72Zm-44,26.86c5.14,0,10.16-1.78,13.39-5.94l.46,4.82h9.17V167.22H354.13v10.1h6.4c-.72,3.49-4.15,5.21-7.52,5.21-8.84,0-10.62-7.72-10.62-12.14,0-3.23-.33-13.73,9.63-13.73a6.89,6.89,0,0,1,6.86,5.87h13.92c-2.11-11.09-9.69-17.62-21.7-17.62-10.62,0-23.21,7.19-23.21,25.14,0,13.4,8.58,24.22,22.49,24.22M201.18,127.16h8.57c10.82,0,18.47-5.35,18.47-16.76,0-6.73-4.48-16.1-17.28-16.1H186.67v47.12h14.51Zm97.14,15.38c13.78,0,21.5-10.09,21.5-19.6H305.57c-.86,4.42-2.77,7.86-7.65,7.86-6.79,0-9-6.6-9-12.94s2.18-12.93,9-12.93c6,0,7.32,5.21,7.59,6.93h14.11c-1.25-11.81-8.37-18.61-21.3-18.68-14.51,0-23.87,9.83-23.87,24.68,0,13.93,8.64,24.68,23.87,24.68m-66.93,32.68h22.23V164H231.39v-5.87h24.47V146h-39v47.12h39.7V181.08h-25.2ZM376.54,226h-.13l-7.72-28.57H354.05l14,47.12h16.22L399,197.42h-14.9Zm-49.53.59h22.23V215.37H327v-5.87h24.47V197.42h-39v47.12h39.7V232.46H327Zm89.17,5.88v-5.88H438.4V215.37H416.17v-5.87h24.47V197.42h-39v47.12h39.7V232.46ZM321.81,146H307.3v47.12h14.51ZM255.46,94.29H241.28l-17.34,47.12h14.57l2.11-6.73h15l2,6.73h15ZM291.2,222.63h-.13l-13.72-25.21H262.51v47.12h13.72V218.8h.13l14.44,25.74h14.11V197.42H291.2Zm-8.89-38.77c-2.7,0-5.87-.59-6.92-3.43a8.7,8.7,0,0,1-.53-3.1H260.35c.13,15,15.37,17,20.71,17,10.49,0,21.77-4,21.77-16.24,0-8.64-6.59-11.74-13.26-13.59s-13.39-2.57-13.65-5.94c0-2.64,3.23-3.17,5.21-3.17a7.52,7.52,0,0,1,4.29,1.19,3.6,3.6,0,0,1,1.72,3.76h13.72c-.39-11.48-9.43-15.38-19.65-15.38-9.7,0-19,4.69-19,15.57,0,9.5,8.51,11.55,16,13.66,8.11,2.31,10.16,3,10.16,5.41,0,3.5-3.63,4.29-6,4.29"/>
    <path class="cls-4" d="M165.6,253.89h8.12V256h-5.46v1.78h5v2.06h-5v1.94h5.6v2.29H165.6Zm6.47-2.75-2.24,2.13h-1.71l1.38-2.13Z"/>
    <path class="cls-4" d="M182.27,257.52a1.85,1.85,0,0,0-2.06-1.57c-1.71,0-2.37,1.51-2.37,3s.66,3,2.37,3a1.89,1.89,0,0,0,2.06-1.88h2.65a4.3,4.3,0,0,1-4.65,4.17,5.31,5.31,0,0,1,0-10.62c2.2,0,4.58,1.4,4.65,3.85Z"/>
    <path class="cls-4" d="M191.11,253.67c3.21,0,5,2.35,5,5.31s-1.81,5.31-5,5.31-5-2.35-5-5.31,1.81-5.31,5-5.31m0,8.33c1.71,0,2.37-1.51,2.37-3s-.66-3-2.37-3-2.37,1.52-2.37,3,.65,3,2.37,3"/>
    <polygon class="cls-4" points="197.71 253.88 200.36 253.88 200.36 261.79 205.11 261.79 205.11 264.08 197.71 264.08 197.71 253.88"/>
    <polygon class="cls-4" points="206.56 253.88 214.68 253.88 214.68 256.01 209.22 256.01 209.22 257.8 214.21 257.8 214.21 259.85 209.22 259.85 209.22 261.79 214.83 261.79 214.83 264.08 206.56 264.08 206.56 253.88"/>
    <path class="cls-4" d="M223.17,260.65c.06,1.2.8,1.59,1.93,1.59.8,0,1.63-.28,1.63-1s-1.46-1.07-2.93-1.48-3-1.07-3-2.94c0-2.22,2.24-3.1,4.15-3.1s4.07,1,4.08,3.28H226.4c0-.93-.83-1.22-1.64-1.22-.57,0-1.28.2-1.28.87s1.47.93,3,1.34,3,1.1,3,2.94c0,2.58-2.2,3.41-4.44,3.41s-4.41-1-4.42-3.64Z"/>
    <path class="cls-4" d="M239.56,259.87c0,3-1.36,4.42-4.44,4.42s-4.44-1.47-4.44-4.42v-6h2.65V260c0,1.31.48,2,1.78,2s1.78-.67,1.78-2v-6.14h2.65Z"/>
    <path class="cls-4" d="M241.47,253.89h4.84c1.9,0,3.68.87,3.68,3.28s-1.44,3.51-3.68,3.51h-2.18v3.4h-2.65Zm2.65,4.74h1.79c.83,0,1.43-.34,1.43-1.27a1.25,1.25,0,0,0-1.43-1.34h-1.79Z"/>
    <path class="cls-4" d="M251.38,253.89h8.12V256H254v1.78h5v2.06h-5v1.94h5.61v2.29h-8.26Zm6.47-2.75-2.24,2.13h-1.71l1.38-2.13Z"/>
    <path class="cls-4" d="M261.29,253.89h5.19c1.8,0,3.57.81,3.57,2.87a2.63,2.63,0,0,1-1.6,2.56v0c1.08.26,1.4,1.47,1.48,2.44,0,.43.07,1.93.43,2.3h-2.63a4.9,4.9,0,0,1-.3-1.63c-.07-1-.24-2.08-1.49-2.08h-2v3.71h-2.65Zm2.65,4.42h2.23a1.09,1.09,0,0,0,1.23-1.2c0-.76-.6-1.1-1.34-1.1h-2.11Z"/>
    <rect class="cls-4" x="271.72" y="253.88" width="2.65" height="10.19"/>
    <polygon class="cls-4" points="276.36 253.88 284.48 253.88 284.48 256.01 279.01 256.01 279.01 257.8 284.01 257.8 284.01 259.85 279.01 259.85 279.01 261.79 284.62 261.79 284.62 264.08 276.36 264.08 276.36 253.88"/>
    <path class="cls-4" d="M295.07,259.87c0,3-1.36,4.42-4.44,4.42s-4.44-1.47-4.44-4.42v-6h2.65V260c0,1.31.48,2,1.78,2s1.78-.67,1.78-2v-6.14h2.65Z"/>
    <path class="cls-4" d="M297,253.89h5.19c1.8,0,3.57.81,3.57,2.87a2.62,2.62,0,0,1-1.6,2.56v0c1.08.26,1.4,1.47,1.48,2.44,0,.43.07,1.93.43,2.3h-2.63a4.9,4.9,0,0,1-.3-1.63c-.07-1-.24-2.08-1.49-2.08h-2v3.71H297Zm2.65,4.42h2.22a1.09,1.09,0,0,0,1.23-1.2c0-.76-.6-1.1-1.34-1.1h-2.11Z"/>
    <polygon class="cls-4" points="307.41 253.88 315.53 253.88 315.53 256.01 310.06 256.01 310.06 257.8 315.06 257.8 315.06 259.85 310.06 259.85 310.06 261.79 315.67 261.79 315.67 264.08 307.41 264.08 307.41 253.88"/>
    <path class="cls-4" d="M322,253.89h4.38c3.12,0,5,1.9,5,5.05,0,3.34-1.9,5.14-5,5.14H322Zm2.66,7.91h1.26c2,0,2.81-.83,2.81-2.87a2.48,2.48,0,0,0-2.81-2.75h-1.26Z"/>
    <polygon class="cls-4" points="332.92 253.88 341.04 253.88 341.04 256.01 335.57 256.01 335.57 257.8 340.57 257.8 340.57 259.85 335.57 259.85 335.57 261.79 341.18 261.79 341.18 264.08 332.92 264.08 332.92 253.88"/>
    <path class="cls-4" d="M347.46,253.89h4.38c3.12,0,5,1.9,5,5.05,0,3.34-1.9,5.14-5,5.14h-4.38Zm2.65,7.91h1.26c2,0,2.81-.83,2.81-2.87a2.48,2.48,0,0,0-2.81-2.75h-1.26Z"/>
    <polygon class="cls-4" points="358.43 253.88 366.55 253.88 366.55 256.01 361.08 256.01 361.08 257.8 366.07 257.8 366.07 259.85 361.08 259.85 361.08 261.79 366.69 261.79 366.69 264.08 358.43 264.08 358.43 253.88"/>
    <path class="cls-4" d="M370.4,260.65c.06,1.2.8,1.59,1.93,1.59.8,0,1.63-.28,1.63-1s-1.46-1.07-2.92-1.48-3-1.07-3-2.94c0-2.22,2.24-3.1,4.15-3.1s4.07,1,4.08,3.28h-2.65c0-.93-.83-1.22-1.64-1.22-.57,0-1.28.2-1.28.87s1.47.93,3,1.34,3,1.1,3,2.94c0,2.58-2.2,3.41-4.44,3.41s-4.41-1-4.42-3.64Z"/>
    <rect class="cls-4" x="377.99" y="253.88" width="2.65" height="10.19"/>
    <path class="cls-4" d="M392,264.08h-1.71l-.16-1.11a3.47,3.47,0,0,1-2.84,1.33,5.31,5.31,0,0,1,0-10.62c2.11,0,4.37,1.13,4.61,3.68h-2.65c-.09-.87-.94-1.39-2-1.39-1.71,0-2.37,1.51-2.37,3s.66,3,2.37,3c1.31,0,2.2-.61,2.34-1.54h-1.85v-2H392Z"/>
    <polygon class="cls-4" points="393.83 253.88 396.55 253.88 400.09 260.17 400.12 260.17 400.12 253.88 402.62 253.88 402.62 264.08 399.89 264.08 396.35 257.72 396.32 257.72 396.32 264.08 393.83 264.08 393.83 253.88"/>
    <polygon class="cls-4" points="165.6 271 173.72 271 173.72 273.12 168.25 273.12 168.25 274.9 173.25 274.9 173.25 276.96 168.25 276.96 168.25 278.9 173.86 278.9 173.86 281.19 165.6 281.19 165.6 271"/>
    <polygon class="cls-4" points="183.59 273.28 180.55 273.28 180.55 281.19 177.89 281.19 177.89 273.28 174.85 273.28 174.85 271 183.59 271 183.59 273.28"/>
    <path class="cls-4" d="M189.52,271h4.38c3.12,0,5,1.9,5,5.05,0,3.34-1.9,5.14-5,5.14h-4.38Zm2.65,7.91h1.26c2,0,2.81-.83,2.81-2.87a2.48,2.48,0,0,0-2.81-2.76h-1.26Z"/>
    <polygon class="cls-4" points="200.49 271 208.61 271 208.61 273.12 203.14 273.12 203.14 274.9 208.14 274.9 208.14 276.96 203.14 276.96 203.14 278.9 208.75 278.9 208.75 281.19 200.49 281.19 200.49 271"/>
    <path class="cls-4" d="M221.8,274.64a1.84,1.84,0,0,0-2.05-1.57c-1.71,0-2.37,1.51-2.37,3s.65,3,2.37,3a1.89,1.89,0,0,0,2.05-1.88h2.65a4.3,4.3,0,0,1-4.65,4.17,5.31,5.31,0,0,1,0-10.62c2.2,0,4.58,1.4,4.65,3.85Z"/>
    <path class="cls-4" d="M230.63,270.78c3.21,0,5,2.36,5,5.31s-1.81,5.31-5,5.31-5-2.35-5-5.31,1.81-5.31,5-5.31m0,8.34c1.71,0,2.37-1.51,2.37-3s-.66-3-2.37-3-2.37,1.52-2.37,3,.66,3,2.37,3"/>
    <polygon class="cls-4" points="237.25 271 241.16 271 242.91 277.79 242.94 277.79 244.7 271 248.61 271 248.61 281.19 246.11 281.19 246.11 273.45 246.08 273.45 243.94 281.19 241.91 281.19 239.77 273.45 239.75 273.45 239.75 281.19 237.25 281.19 237.25 271"/>
    <polygon class="cls-4" points="250.59 271 254.5 271 256.26 277.79 256.29 277.79 258.04 271 261.95 271 261.95 281.19 259.45 281.19 259.45 273.45 259.43 273.45 257.29 281.19 255.26 281.19 253.12 273.45 253.09 273.45 253.09 281.19 250.59 281.19 250.59 271"/>
    <path class="cls-4" d="M272.73,277c0,3-1.36,4.42-4.44,4.42s-4.44-1.47-4.44-4.42v-6h2.65v6.14c0,1.31.48,2,1.78,2s1.78-.67,1.78-2V271h2.65Z"/>
    <polygon class="cls-4" points="274.6 271 277.33 271 280.87 277.28 280.89 277.28 280.89 271 283.39 271 283.39 281.19 280.67 281.19 277.13 274.83 277.1 274.83 277.1 281.19 274.6 281.19 274.6 271"/>
    <rect class="cls-4" x="285.34" y="271" width="2.65" height="10.19"/>
    <path class="cls-4" d="M296.74,274.64a1.85,1.85,0,0,0-2.06-1.57c-1.71,0-2.37,1.51-2.37,3s.66,3,2.37,3a1.89,1.89,0,0,0,2.06-1.88h2.65a4.3,4.3,0,0,1-4.65,4.17,5.31,5.31,0,0,1,0-10.62c2.2,0,4.58,1.4,4.65,3.85Z"/>
    <path class="cls-4" d="M303.7,271h2.7l3.81,10.19h-2.77l-.63-1.83h-3.55l-.64,1.83h-2.73Zm.17,6.39h2.31l-1.13-3.57h0Z"/>
    <polygon class="cls-4" points="317.89 273.28 314.84 273.28 314.84 281.19 312.19 281.19 312.19 273.28 309.15 273.28 309.15 271 317.89 271 317.89 273.28"/>
    <rect class="cls-4" x="319.19" y="271" width="2.65" height="10.19"/>
    <path class="cls-4" d="M328.46,270.78c3.21,0,5,2.36,5,5.31s-1.81,5.31-5,5.31-5-2.35-5-5.31,1.81-5.31,5-5.31m0,8.34c1.71,0,2.37-1.51,2.37-3s-.66-3-2.37-3-2.37,1.52-2.37,3,.66,3,2.37,3"/>
    <polygon class="cls-4" points="335.03 271 337.75 271 341.3 277.28 341.32 277.28 341.32 271 343.82 271 343.82 281.19 341.09 281.19 337.55 274.83 337.53 274.83 337.53 281.19 335.03 281.19 335.03 271"/>
  </g>
  <polygon class="cls-2" points="248.47 110.06 248.34 110.06 243.78 124.58 252.69 124.58 248.47 110.06"/>
  <path class="cls-2" d="M214.5,110.92c0-4.29-3.3-4.55-6.86-4.55h-6.46v9.57h5.6C210.54,115.94,214.5,115.68,214.5,110.92Z"/>
  <path class="cls-2" d="M184.7,158.12h-4.62v23h5.67c9,0,10.35-7.32,10.35-11.75C196.12,166.37,195.19,158.12,184.7,158.12Z"/>
</svg>
