<svg id="Calque_1" data-name="Calque 1" xmlns="http://www.w3.org/2000/svg" viewBox="0 0 318.9 318.9"><defs><style>.cls-1,.cls-2{fill:#fff;}.cls-2{stroke:#fff;}</style></defs><title>logo-supdeluxe</title><rect width="318.9" height="318.9"/><path class="cls-1" d="M80.48,84c3.68,6,7.93,9.82,15.3,9.82,7.65,0,13.13-6.33,13.13-13.79,0-17.57-29.56-9.83-29.56-31.17,0-12.18,9.63-18.13,21-18.13,4.53,0,10,1.42,13.51,4.54A52.61,52.61,0,0,0,111.27,43h-.94c-2-5.1-6.14-8.22-11.71-8.22-6.52,0-11.9,4.34-11.9,11,0,17.38,29.75,10.39,29.75,30.51,0,13.51-10.49,21.54-23.33,21.54-4.63,0-12.19-2-15.4-5.48A43.24,43.24,0,0,0,79.53,84Z"/><path class="cls-1" d="M137.91,68.29c0,16.62,4.72,25.22,20.88,25.22,15,0,20.4-10.86,20.4-26.16V32.11a22.23,22.23,0,0,0,2.64.28c.85,0,1.7-.19,2.65-.28V69.71c0,18.7-11,28.15-27.58,28.15-9.35,0-15.59-2.17-20.5-6.61-6-5.38-6.71-13.79-6.8-21.35V32.11c1.32.1,2.74.28,4.16.28s2.65-.19,4.15-.28Z"/><path class="cls-1" d="M208.19,96.72c-1.51-.09-2.83-.28-4.16-.28s-2.83.19-4.16.28V32.11h16.91c18.33,0,24.37,4.06,24.37,15.49s-6.9,16.63-20.21,19.27c-4.25.85-10.39.19-12.75.19Zm0-33.34a51.68,51.68,0,0,0,9.35,0c9.45-.94,14.92-6.9,14.92-15.3,0-6.42-3.21-11.52-10.67-12.18a110.41,110.41,0,0,0-13.6-.1Z"/><path class="cls-1" d="M59.6,240.73c5.76.19,11.43-.19,17.1-.38,3-.09,6-.47,9-.85-.09,1-.28,1.89-.28,2.84s.19,1.89.28,2.83H51.29V180.84c1.32.09,2.74.28,4.15.28s2.65-.19,4.16-.28Z"/><path class="cls-1" d="M107.31,217c0,16.62,4.72,25.22,20.87,25.22,15,0,20.41-10.86,20.41-26.16V180.84a22.73,22.73,0,0,0,2.64.28c.85,0,1.7-.19,2.65-.28v37.59c0,18.7-11,28.15-27.58,28.15-9.35,0-15.59-2.17-20.5-6.61-6-5.38-6.71-13.79-6.8-21.35V180.84c1.32.09,2.74.28,4.16.28s2.65-.19,4.16-.28Z"/><path class="cls-1" d="M188.93,213c-3.69-6-7.18-12-10.86-17.85l-9.35-14.26c1.6.09,3.4.28,5.1.28s3.21-.19,5.1-.28c1.61,2.64,3.21,5.38,4.82,8.12l10,17.19c5.1-8.31,11.06-16.24,15.87-25.31,1.13.09,2.26.28,3.5.28s2.26-.19,3.5-.28a15.44,15.44,0,0,0-1.61,1.89l-14.46,20.12-4.62,7,21.91,35.61c-1.89-.09-3.49-.28-5.2-.28s-3.5.19-5.2.28c-5.1-10-10.49-19.46-16.34-28.71C185,226,179.38,235.44,174,245.45c-1.23-.09-2.36-.28-3.49-.28s-2.36.19-3.5.28c3.87-5.76,7.75-11.14,11.43-16.72Z"/><path class="cls-1" d="M241.83,209h14.64c2.84,0,5.57-.38,8.41-.47a19.66,19.66,0,0,0-.28,2.46c0,.75.19,1.61.28,2.65-2.84-.09-5.57-.47-8.41-.47H241.83v27.58c5.76.19,11.43-.19,17.1-.38a67.71,67.71,0,0,0,8.69-.85c-.09,1-.29,1.89-.29,2.84s.19,1.89.29,2.83h-34.1V180.84H267c-.1,1-.28,1.89-.28,2.83a28.47,28.47,0,0,0,.28,2.83,64.87,64.87,0,0,0-8.5-1l-9.45-.19h-7.27Z"/><path class="cls-1" d="M157.82,143.64a12.62,12.62,0,0,1-3.52.43c-4.61,0-7.21-2.26-7.21-6.36a8.61,8.61,0,0,1,9-8.22h1.1l.94-6.69h2.6Zm-.92-12h-.67c-4.25,0-6.48,3.06-6.48,6,0,2.72,1.62,4.28,4.55,4.28a8.35,8.35,0,0,0,1.19-.06Z"/><path class="cls-1" d="M170.78,142.54a7.65,7.65,0,0,1-4.59,1.53c-3.48,0-5.75-2.63-5.75-6.64,0-4.49,2.84-7.95,6.51-7.95,3.05,0,5.35,2.84,4.77,7h-8.55c-.64,3.67,1.38,5.41,3.52,5.41a7.89,7.89,0,0,0,4.46-1.86Zm-1.47-7.82c0-1.74-.76-3.08-2.47-3.08-1.53,0-2.57,1-3.27,3.08Z"/><path class="cls-1" d="M113.88,273.73c4.44,0,6.19,2.28,6.19,5,0,2.44-1.42,5.08-6.33,5.08h-3.61v8.86h-1.47V273.73Zm-3.75,8.86h3.53c3.52,0,4.83-1.69,4.83-3.83s-1.33-3.81-4.66-3.81h-3.69Z"/><path class="cls-1" d="M146.55,292.67H145l-3-6.55h-9.25l-3,6.55h-1.53L137,273.59h.8ZM137.39,276l-4.05,8.91h8.13Z"/><path class="cls-1" d="M163.73,273.73c4.63,0,6.28,2.36,6.28,4.89,0,2.2-1.19,3.72-3.61,4.61a8.59,8.59,0,0,1,2.53,2.89l4.27,6.55h-1.72l-3.3-5.19c-2.28-3.58-3-3.89-5.27-3.89h-2.56v9.08h-1.47V273.73Zm-3.39,8.64h3.14c3.33,0,4.95-1.45,4.95-3.72s-1.53-3.7-5-3.7h-3.08Z"/><path class="cls-1" d="M186.2,292.67h-1.47V273.73h1.47Z"/><path class="cls-1" d="M209.46,276.28c-1.95-1.11-2.95-1.44-4.25-1.44a3.73,3.73,0,0,0-4,3.61c0,5.06,9,2.64,9,9.28a5.29,5.29,0,0,1-5.5,5.2,8.83,8.83,0,0,1-4.86-1.67v-1.72c2.11,1.53,3.3,2,4.77,2a3.84,3.84,0,0,0,4-3.78c0-5.39-9-3-9-9.28a5.24,5.24,0,0,1,5.45-5,9,9,0,0,1,4.39,1.2Z"/><path class="cls-2" d="M93.39,166.28s32.16-13.65,66.18-13.65,65.94,13.65,65.94,13.65-35.88-11.33-65.94-11.56-66.18,11.56-66.18,11.56"/></svg>