<svg id="Calque_1" data-name="Calque 1" xmlns="http://www.w3.org/2000/svg" xmlns:xlink="http://www.w3.org/1999/xlink" viewBox="0 0 358.2 83.83"><defs><style>.cls-1,.cls-5,.cls-6{fill:none;}.cls-2{fill:#119499;}.cls-3{fill:#373636;}.cls-4{clip-path:url(#clip-path);}.cls-5{stroke:#373636;}.cls-5,.cls-6{stroke-miterlimit:10;stroke-width:1.28px;}.cls-6{stroke:#119499;}</style><clipPath id="clip-path"><rect class="cls-1" width="358.2" height="83.83"/></clipPath></defs><title>logo-procom-color</title><polygon class="cls-2" points="344.82 19.9 344.91 19.78 344.44 19.41 329.45 0 322.17 5.62 333.2 19.9 322.26 34.07 329.54 39.69 344.78 19.95 344.83 19.91 344.82 19.9 344.82 19.9"/><polygon class="cls-3" points="22.64 19.9 22.74 19.78 22.27 19.41 7.28 0 0 5.62 11.03 19.9 0.08 34.07 7.36 39.69 22.6 19.95 22.66 19.91 22.64 19.9 22.64 19.9"/><path class="cls-3" d="M42.59,13.68c0-4.6-.14-8.27-.29-11.43h7.48l.43,5h.14A11.75,11.75,0,0,1,60.92,1.53c7.69,0,13.44,7,13.44,17.9C74.36,32.08,67.17,38,59.91,38a10,10,0,0,1-8.7-4.38h-.14V51.34H42.59V13.68Zm8.48,9.49a9.8,9.8,0,0,0,.29,2.59c.93,3.52,3.59,5.53,6.61,5.53,5.1,0,7.83-4.89,7.83-11.57,0-6.4-2.66-11.36-7.69-11.36-3.09,0-6,2.52-6.75,6a11.76,11.76,0,0,0-.29,2.3v6.54Z"/><g class="cls-4"><path class="cls-5" d="M42.59,13.68c0-4.6-.14-8.27-.29-11.43h7.48l.43,5h.14A11.75,11.75,0,0,1,60.92,1.53c7.69,0,13.44,7,13.44,17.9C74.36,32.08,67.17,38,59.91,38a10,10,0,0,1-8.7-4.38h-.14V51.34H42.59V13.68Zm8.48,9.49a9.8,9.8,0,0,0,.29,2.59c.93,3.52,3.59,5.53,6.61,5.53,5.1,0,7.83-4.89,7.83-11.57,0-6.4-2.66-11.36-7.69-11.36-3.09,0-6,2.52-6.75,6a11.76,11.76,0,0,0-.29,2.3v6.54Z"/></g><path class="cls-3" d="M95.56,13.1c0-4.24-.15-7.76-.29-10.85h7.4L103,8.5h.21c1.58-4.53,5.32-7,8.84-7a15.33,15.33,0,0,1,1.94.14V9.87a10.46,10.46,0,0,0-2.3-.22c-3.74,0-6.61,2.52-7.4,6.47A16.12,16.12,0,0,0,104,19V37.25H95.56V13.1Z"/><g class="cls-4"><path class="cls-5" d="M95.56,13.1c0-4.24-.15-7.76-.29-10.85h7.4L103,8.5h.21c1.58-4.53,5.32-7,8.84-7a15.33,15.33,0,0,1,1.94.14V9.87a10.46,10.46,0,0,0-2.3-.22c-3.74,0-6.61,2.52-7.4,6.47A16.12,16.12,0,0,0,104,19V37.25H95.56V13.1Z"/></g><path class="cls-3" d="M163.49,19.5C163.49,32.73,155,38,147.1,38c-9.13,0-16-6.61-16-18,0-11.79,7.12-18.4,16.46-18.4s15.89,7,15.89,18m-23.72.29c0,6.47,2.66,11.93,7.62,11.93,4.75,0,7.48-5.54,7.48-12,0-5.39-2-11.93-7.48-11.93s-7.62,6.4-7.62,12"/><g class="cls-4"><path class="cls-5" d="M163.49,19.5C163.49,32.73,155,38,147.1,38c-9.13,0-16-6.61-16-18,0-11.79,7.12-18.4,16.46-18.4s15.89,7,15.89,18Zm-23.72.29c0,6.47,2.66,11.93,7.62,11.93,4.75,0,7.48-5.54,7.48-12,0-5.39-2-11.93-7.48-11.93s-7.62,6.4-7.62,12Z"/></g><path class="cls-2" d="M180.33,36.32a21.42,21.42,0,0,1-8.7,1.58c-10.13,0-16.75-6.76-16.75-17.83C154.88,9.58,161.64,1.6,173,1.6A20.42,20.42,0,0,1,180.47,3L179,9.51a13.19,13.19,0,0,0-5.75-1.22c-6.25,0-9.85,5-9.78,11.5,0,7.12,4.17,11.36,9.78,11.36a14.78,14.78,0,0,0,6-1.22l1.08,6.4Z"/><g class="cls-4"><path class="cls-6" d="M180.33,36.32a21.42,21.42,0,0,1-8.7,1.58c-10.13,0-16.75-6.76-16.75-17.83C154.88,9.58,161.64,1.6,173,1.6A20.42,20.42,0,0,1,180.47,3L179,9.51a13.19,13.19,0,0,0-5.75-1.22c-6.25,0-9.85,5-9.78,11.5,0,7.12,4.17,11.36,9.78,11.36a14.78,14.78,0,0,0,6-1.22l1.08,6.4Z"/></g><path class="cls-2" d="M230.5,19.5C230.5,32.73,222,38,214.11,38c-9.13,0-16-6.61-16-18,0-11.79,7.12-18.4,16.46-18.4s15.89,7,15.89,18m-23.72.29c0,6.47,2.66,11.93,7.62,11.93,4.74,0,7.48-5.54,7.48-12,0-5.39-2-11.93-7.48-11.93s-7.62,6.4-7.62,12"/><g class="cls-4"><path class="cls-6" d="M230.5,19.5C230.5,32.73,222,38,214.11,38c-9.13,0-16-6.61-16-18,0-11.79,7.12-18.4,16.46-18.4s15.89,7,15.89,18Zm-23.72.29c0,6.47,2.66,11.93,7.62,11.93,4.74,0,7.48-5.54,7.48-12,0-5.39-2-11.93-7.48-11.93s-7.62,6.4-7.62,12Z"/></g><path class="cls-2" d="M251.7,12.53c0-4-.14-7.19-.29-10.28h7.33l.36,4.89h.21a11.22,11.22,0,0,1,10-5.61,9.27,9.27,0,0,1,9.06,6h.14a13.44,13.44,0,0,1,4-4.24A11.59,11.59,0,0,1,289,1.53c5.68,0,10.78,4.1,10.78,14.52V37.25h-8.34V17.34c0-5.32-1.58-8.84-5.54-8.84-2.73,0-4.74,1.94-5.6,4.46a9,9,0,0,0-.36,2.88V37.25h-8.34V16.41c0-4.46-1.51-7.91-5.46-7.91-2.8,0-4.89,2.23-5.68,4.74a9.22,9.22,0,0,0-.43,2.88V37.25H251.7V12.53Z"/><g class="cls-4"><path class="cls-6" d="M251.7,12.53c0-4-.14-7.19-.29-10.28h7.33l.36,4.89h.21a11.22,11.22,0,0,1,10-5.61,9.27,9.27,0,0,1,9.06,6h.14a13.44,13.44,0,0,1,4-4.24A11.59,11.59,0,0,1,289,1.53c5.68,0,10.78,4.1,10.78,14.52V37.25h-8.34V17.34c0-5.32-1.58-8.84-5.54-8.84-2.73,0-4.74,1.94-5.6,4.46a9,9,0,0,0-.36,2.88V37.25h-8.34V16.41c0-4.46-1.51-7.91-5.46-7.91-2.8,0-4.89,2.23-5.68,4.74a9.22,9.22,0,0,0-.43,2.88V37.25H251.7V12.53Z"/></g><path class="cls-3" d="M102.58,59.74c-2.28,0-3.27,1.9-3.27,6.23,0,4.18.87,5.55,3.53,5.55a3.64,3.64,0,0,0,2.51-1.25V61a4.25,4.25,0,0,0-2.77-1.25Zm7.75,8.47c0,4.79.38,6.34.72,7.1H106.5a3.47,3.47,0,0,1-.3-1.14,6.53,6.53,0,0,1-4.48,1.63c-4.94,0-8.05-3.84-8.05-9.88S97,55.67,102,55.67a5.25,5.25,0,0,1,3.46,1.1,23.66,23.66,0,0,1-.15-2.89V47.2l5.05.8V68.21Z"/><path class="cls-3" d="M121.43,55.41V75.32h-5.09V56.21l5.09-.8Zm.61-4.9a3.13,3.13,0,1,1-6.27,0A3.18,3.18,0,0,1,119,47.35,3.11,3.11,0,0,1,122,50.51Z"/><path class="cls-3" d="M131.24,62.13c0,2,1.22,2.77,3,2.77,2,0,3.12-1,3.12-2.77s-1.14-2.89-3.08-2.89a2.7,2.7,0,0,0-3,2.89ZM146.36,58a4.84,4.84,0,0,1-3.57,1.44,10.85,10.85,0,0,1-1.33-.11,4.7,4.7,0,0,1,1.14,3.19c0,3.34-3,5.77-7.18,5.77a6.2,6.2,0,0,1-.76,0c-1.29.61-2,1.06-2,1.6,0,.27.3.45.84.45l2.73,0c3,0,4.52.49,5.89,1.75a5.3,5.3,0,0,1,1.67,4.14,5.53,5.53,0,0,1-1.56,4c-1.71,1.82-4.64,2.51-7.68,2.51-2.77,0-5.62-.46-7.37-2.09a4.56,4.56,0,0,1-1.6-3.46,3.9,3.9,0,0,1,.46-2h4.71a2.74,2.74,0,0,0-.23,1.25c0,1.56,1.29,2.39,3.65,2.39a6.13,6.13,0,0,0,3.19-.65,2.36,2.36,0,0,0,1.25-2C138.61,74.52,137,74,135,74l-2.17,0a13.83,13.83,0,0,1-4.67-.61,2.47,2.47,0,0,1-1.48-2.55c0-1.25.38-2.43,3.57-3.27a5,5,0,0,1-4.18-5.39c0-4,3.23-6.57,8.21-6.57a14,14,0,0,1,3.5.49,10.21,10.21,0,0,0,2.39.42,6.12,6.12,0,0,0,4-1.67L146.36,58Z"/><path class="cls-3" d="M153.58,55.41V75.32h-5.09V56.21l5.09-.8Zm.61-4.9a3.13,3.13,0,1,1-6.27,0,3.18,3.18,0,0,1,3.19-3.15,3.11,3.11,0,0,1,3.08,3.15Z"/><path class="cls-3" d="M167.3,59.36H164v9.76c0,2.47.46,3.12,2.2,3.12a6.68,6.68,0,0,0,1.82-.38l.65,3a10.67,10.67,0,0,1-4.14.87c-2.58,0-4.64-1.14-5.24-2.85a7.13,7.13,0,0,1-.34-3V59.36H157v-3.5H159a33.69,33.69,0,0,1,.19-4.6L164.33,50a58.08,58.08,0,0,0-.3,5.89h4.56l-1.29,3.5Z"/><path class="cls-3" d="M181.28,66.81c-3.53,0-4.75.65-4.75,3a2.31,2.31,0,0,0,2.24,2.54A3.69,3.69,0,0,0,181.43,71l.08-4.18Zm-6.61-10.22A13.17,13.17,0,0,1,180,55.45c3.27,0,5.51,1.22,6.27,3.38a9,9,0,0,1,.34,3.5l-.11,6.54v.34c0,2.09.34,2.89,1.82,4l-2.7,3.12A5.45,5.45,0,0,1,182.87,74a9.37,9.37,0,0,1-1.18,1A6.73,6.73,0,0,1,177.78,76c-4.33,0-6.69-2.2-6.69-6.08,0-4.56,3.15-6.69,9.35-6.69.38,0,.72,0,1.14,0v-.8c0-2.17-.42-2.89-2.28-2.89a10.72,10.72,0,0,0-5.62,2.2l-2.16-3.65a18.77,18.77,0,0,1,3.15-1.6Z"/><path class="cls-3" d="M197.24,52.26V67.42c0,3.34,0,3.8.34,4.33a1.17,1.17,0,0,0,1,.53,1.68,1.68,0,0,0,.57-.08l.87,3a8.49,8.49,0,0,1-3,.53,4.57,4.57,0,0,1-4.52-2.66c-.38-1-.46-1.6-.46-4.37V54.23a50.35,50.35,0,0,0-.27-5.85L197,47.2a28.86,28.86,0,0,1,.27,5.05Z"/><path class="cls-3" d="M222.09,66.81c-3.53,0-4.75.65-4.75,3a2.31,2.31,0,0,0,2.24,2.54A3.69,3.69,0,0,0,222.24,71l.08-4.18Zm-6.61-10.22a13.16,13.16,0,0,1,5.32-1.14c3.27,0,5.51,1.22,6.27,3.38a9,9,0,0,1,.34,3.5l-.11,6.54v.34c0,2.09.34,2.89,1.82,4l-2.7,3.12A5.44,5.44,0,0,1,223.69,74a9.45,9.45,0,0,1-1.18,1A6.72,6.72,0,0,1,218.6,76c-4.33,0-6.69-2.2-6.69-6.08,0-4.56,3.15-6.69,9.35-6.69.38,0,.72,0,1.14,0v-.8c0-2.17-.42-2.89-2.28-2.89a10.72,10.72,0,0,0-5.62,2.2l-2.17-3.65a18.79,18.79,0,0,1,3.15-1.6Z"/><path class="cls-3" d="M243.86,60.88a4.9,4.9,0,0,0-3.08-1.52c-2.28,0-3.31,2-3.31,6.54,0,2.55.34,4.07,1,4.9a2.94,2.94,0,0,0,2.28,1.1,5.2,5.2,0,0,0,3.49-1.6l.3-.27,2.32,3.08a8.06,8.06,0,0,1-1.79,1.44,9.1,9.1,0,0,1-4.75,1.22c-5.36,0-8.47-3.72-8.47-10,0-4.48,1.71-7.45,4-9a9.22,9.22,0,0,1,4.82-1.44,8.31,8.31,0,0,1,3.76.87,8.61,8.61,0,0,1,1.9,1.37l-2.47,3.34Z"/><path class="cls-3" d="M259.18,66.81c-3.53,0-4.75.65-4.75,3a2.31,2.31,0,0,0,2.24,2.54A3.69,3.69,0,0,0,259.33,71l.08-4.18Zm-6.61-10.22a13.16,13.16,0,0,1,5.32-1.14c3.27,0,5.51,1.22,6.27,3.38a9,9,0,0,1,.34,3.5l-.11,6.54v.34c0,2.09.34,2.89,1.82,4l-2.7,3.12A5.44,5.44,0,0,1,260.77,74a9.45,9.45,0,0,1-1.18,1A6.72,6.72,0,0,1,255.68,76C251.35,76,249,73.84,249,70c0-4.56,3.15-6.69,9.35-6.69.38,0,.72,0,1.14,0v-.8c0-2.17-.42-2.89-2.28-2.89a10.72,10.72,0,0,0-5.62,2.2l-2.17-3.65a18.79,18.79,0,0,1,3.15-1.6Z"/><path class="cls-3" d="M277.84,59.74c-2.28,0-3.27,1.9-3.27,6.23,0,4.18.87,5.55,3.53,5.55a3.64,3.64,0,0,0,2.51-1.25V61a4.25,4.25,0,0,0-2.77-1.25Zm7.75,8.47c0,4.79.38,6.34.72,7.1h-4.56a3.45,3.45,0,0,1-.3-1.14A6.53,6.53,0,0,1,277,75.81c-4.94,0-8.05-3.84-8.05-9.88s3.38-10.26,8.32-10.26a5.25,5.25,0,0,1,3.46,1.1,23.66,23.66,0,0,1-.15-2.89V47.2l5.05.8V68.21Z"/><path class="cls-3" d="M301.74,63.46v-.23a5,5,0,0,0-.61-2.93,2.46,2.46,0,0,0-2.24-1.14c-1.94,0-3,1.52-3,4.22v.08Zm5.05,9.69a11.16,11.16,0,0,1-7.33,2.7c-5.59,0-9.2-4-9.2-10.07,0-3.5.72-5.81,2.43-7.71a7.65,7.65,0,0,1,6.12-2.62,8,8,0,0,1,5.62,2.05C306.22,59.32,307,61.94,307,66v1.18H295.77v.15c0,3,1.48,4.71,4.1,4.71a7.6,7.6,0,0,0,4.94-1.94l2,3Z"/><path class="cls-3" d="M315.27,55.52a4.94,4.94,0,0,1,.68,2,6.7,6.7,0,0,1,4.75-2,5.27,5.27,0,0,1,4,1.6,6.42,6.42,0,0,1,.76,1,7.14,7.14,0,0,1,5.51-2.55,6,6,0,0,1,3.84,1.22c1.1,1,1.44,2.09,1.44,4.75V75.32h-4.94V62.48c0-2.32-.26-2.77-1.59-2.77a5.79,5.79,0,0,0-3.38,1.63v14h-4.83V62.67c0-2.43-.34-3-1.75-3a5.39,5.39,0,0,0-3.34,1.48V75.32h-5V61.75c0-2.81-.19-4-.72-5l4.6-1.25Z"/><path class="cls-3" d="M344.15,55.56l3.38,11.36c.34,1.18,1,4,1,4s.38-2.17.61-3.12c.15-.65.46-1.79.76-2.7l2.93-9.27h5.36l-7.07,19.76c-1.33,3.76-2.32,5.4-3.72,6.42a10.26,10.26,0,0,1-4.71,1.79L341,80.49a11.4,11.4,0,0,0,3.15-1.29,5.86,5.86,0,0,0,1.44-1.6,11.63,11.63,0,0,0,1.1-2.28h-1.29c-.61-1.82-1.63-4.86-1.82-5.47l-4.6-13.68,5.2-.61Z"/></svg>