<svg id="Calque_1" data-name="Calque 1" xmlns="http://www.w3.org/2000/svg" viewBox="0 0 512 512"><defs><style>.cls-1{fill:#fff;}.cls-2{fill:#ffe000;}</style></defs><title>sawi-central</title><circle class="cls-1" cx="256" cy="256" r="233.73"/><path d="M122.88,215.81a53.6,53.6,0,0,0-22.18-4.32C86,211.49,71,218.83,71,235.37c0,12.1,7.5,15.74,15,17.73s15,2.23,15,7.5c0,3.66-4.47,5.12-7.49,5.12-5.9,0-14.05-3.44-18.91-6.84L65.9,275.56a52.18,52.18,0,0,0,27.18,7.73c15.62,0,31.78-7.34,31.78-25.06,0-12.48-8.41-17.73-19.57-20-3.28-.64-10.76-1.32-10.76-5.91,0-3.4,4.74-4.59,7.48-4.59A29.6,29.6,0,0,1,114.88,231Z"/><path d="M172.91,232.22c9.69,0,15.36,7,15.36,15.24,0,8.53-5.66,15.09-15.36,15.09s-15.37-6.56-15.37-15.09c0-8.28,5.66-15.24,15.37-15.24m38.47-18.52H187.48v6.59c-5-5.92-13.13-8.8-20.87-8.8-20,0-33.75,16.54-33.75,35.84s14.06,36,34,36c7.88,0,16.17-3,20.36-9.71h.26v7.48h23.91Z"/><polygon points="243.94 213.7 217.42 213.7 252.61 281.07 268.1 281.07 284.77 244.18 301.45 281.07 316.96 281.07 352.13 213.7 325.75 213.7 308.79 250.22 291.86 213.7 277.69 213.7 260.74 250.22 243.94 213.7"/><rect x="358.04" y="213.71" width="23.89" height="67.37"/><path class="cls-2" d="M382,244.54h0c2.31-3.49,4.64-7,6.93-10.46,9.06-13.8,18.7-28.54,27.75-42.35h.92c7.45,0,14.9,0,22.35,0h.7l-.69,1.14q-9.26,14.14-18.53,28.27l-38.2,58.25a11.52,11.52,0,0,1-.94,1.44s-.26.24-.27,0-.07-.62-.07-1c0-11.45,0-22.9,0-30.6,0,0,0-3.75,0-3.91s0-.48.06-.8"/><path d="M101.72,313.14a7.06,7.06,0,0,0-4.45-1.71c-1.23,0-2.88.72-2.88,2.16s1.82,2.09,3,2.47l1.71.51c3.6,1.06,6.37,2.88,6.37,7.06,0,2.57-.62,5.21-2.67,7A11.33,11.33,0,0,1,95.45,333a15.94,15.94,0,0,1-9.08-2.95l2.88-5.41a9.21,9.21,0,0,0,6,2.67c1.58,0,3.25-.79,3.25-2.6s-2.64-2.54-4.08-2.95c-4.21-1.2-7-2.3-7-7.3,0-5.24,3.73-8.67,8.91-8.67a17.67,17.67,0,0,1,8.08,2.12Z"/><path d="M117.4,323.18h.07l5.41-16.68h5.34l5.07,16.68h.07l4.86-16.68h7L137,332.32h-6.85l-4.52-15h-.07l-5.07,15h-6.82l-7.71-25.83h7Z"/><path d="M153.61,332.32H146.9V306.49h6.71Z"/><path d="M172.18,313.14a7.06,7.06,0,0,0-4.45-1.71c-1.23,0-2.88.72-2.88,2.16s1.82,2.09,3,2.47l1.71.51c3.6,1.06,6.37,2.88,6.37,7.06,0,2.57-.62,5.21-2.67,7a11.33,11.33,0,0,1-7.33,2.43,15.94,15.94,0,0,1-9.08-2.95l2.88-5.41a9.21,9.21,0,0,0,6,2.67c1.58,0,3.25-.79,3.25-2.6s-2.64-2.54-4.08-2.95c-4.21-1.2-7-2.3-7-7.3,0-5.24,3.73-8.67,8.91-8.67a17.67,17.67,0,0,1,8.08,2.12Z"/><path d="M193.28,313.14a7.06,7.06,0,0,0-4.45-1.71c-1.23,0-2.88.72-2.88,2.16s1.82,2.09,3,2.47l1.71.51c3.6,1.06,6.37,2.88,6.37,7.06,0,2.57-.62,5.21-2.67,7A11.33,11.33,0,0,1,187,333a15.94,15.94,0,0,1-9.08-2.95l2.88-5.41a9.21,9.21,0,0,0,6,2.67c1.58,0,3.25-.79,3.25-2.6s-2.64-2.54-4.08-2.95c-4.21-1.2-7-2.3-7-7.3,0-5.24,3.73-8.67,8.91-8.67a17.67,17.67,0,0,1,8.08,2.12Z"/><path d="M214.79,306.49h6.61l5.24,13.81,5.55-13.81h6.68l3.91,25.83h-6.71l-1.88-14.87h-.07l-6.2,14.87h-2.67l-5.93-14.87h-.07l-2.16,14.87h-6.68Z"/><path d="M252.2,327.84l-1.78,4.49h-7.13l9.93-25.83h7.33l9.73,25.83h-7.16l-1.68-4.49Zm4.69-13.36h-.07L254,322.7h5.58Z"/><path d="M293.85,332.32h-8.36l-6.34-9.93h-.07v9.93h-6.71V306.49h10c5.1,0,9,2.43,9,7.95,0,3.56-2,6.65-5.65,7.3Zm-14.76-14.25h.65c2.19,0,4.66-.41,4.66-3.22s-2.47-3.22-4.66-3.22h-.65Z"/><path d="M310.57,306.49h8.32l-10.28,12.23,11.2,13.6h-8.7l-8.67-11.2h-.07v11.2h-6.71V306.49h6.71v10.65h.07Z"/><path d="M328.35,312.18v4.32h7.57v5.69h-7.57v4.45h8v5.69h-14.7V306.49h14.7v5.69Z"/><path d="M350.75,332.32H344V312.18h-5.55v-5.69H356.3v5.69h-5.55Z"/><path d="M365.44,332.32h-6.71V306.49h6.71Z"/><path d="M369.83,306.49h6.71l12.3,15.79h.07V306.49h6.71v25.83h-6.71l-12.3-15.83h-.07v15.83h-6.71Z"/><path d="M425.77,317.9c-.07,3.77-.34,7-2.64,10.21-2.54,3.53-6.34,5.07-10.65,5.07-8.12,0-13.77-5.52-13.77-13.63,0-8.39,5.69-13.91,14-13.91,5.31,0,9.42,2.4,11.65,7.23L418,315.54a5.84,5.84,0,0,0-5.58-4.11c-4.42,0-6.71,4.21-6.71,8.15s2.4,8.08,6.82,8.08c2.91,0,5.14-1.51,5.41-4.49h-5.48V317.9Z"/><path d="M124.63,354.14v-10h6.71V370h-6.71V359.42h-9.69V370h-6.71V344.17h6.71v10Z"/><path d="M158.13,344.17V358.7c0,3.32-.14,6.61-2.71,9.11-2.16,2.12-5.55,2.88-8.56,2.88s-6.41-.75-8.56-2.88c-2.57-2.5-2.71-5.79-2.71-9.11V344.17h6.71v13.6c0,3.36.24,7,4.56,7s4.56-3.67,4.56-7v-13.6Z"/><path d="M162.38,370V344.17H172c4.59,0,7.67,1.78,7.67,6.71,0,2.33-.75,4.21-2.84,5.28v.07c3.7.48,5.28,3,5.28,6.58,0,5.41-4.62,7.19-9.35,7.19Zm6.71-15.69h.75c1.78,0,3.63-.31,3.63-2.5,0-2.36-2.09-2.5-3.91-2.5h-.48Zm0,10.55H170c2,0,5.34.1,5.34-2.74,0-3.12-3.32-2.81-5.52-2.81h-.69Z"/><path d="M213.56,367.61a16.3,16.3,0,0,1-8.84,3.08c-4.45,0-8.29-2.67-8.29-7.4,0-3.87,2.3-5.76,5.55-7.19l.62-.27-.55-.75a7.05,7.05,0,0,1-1.85-4.49c0-4.45,3.87-7.09,8-7.09s8.08,2.6,8.08,7c0,3.22-2.12,4.86-4.8,6.2l3.25,3.43a21.42,21.42,0,0,0,3.39-3.67l3.8,3.63-3.25,3.49-.31.31,5.79,6.1h-8.39Zm-7.74-8.39c-1.1.69-2.43,1.64-2.43,3.08s1.54,2.36,2.91,2.36a7.34,7.34,0,0,0,3.6-1.06Zm5.17-8.77a2.27,2.27,0,0,0-2.26-2.4,2.08,2.08,0,0,0-2.16,2.12c0,1.27,1.2,2.5,2,3.43C209.76,352.94,211,351.85,211,350.44Z"/><path d="M252.3,350.82a7.06,7.06,0,0,0-4.45-1.71c-1.23,0-2.88.72-2.88,2.16s1.82,2.09,3,2.47l1.71.51c3.6,1.06,6.37,2.88,6.37,7.06,0,2.57-.62,5.21-2.67,7a11.33,11.33,0,0,1-7.33,2.43,15.94,15.94,0,0,1-9.08-2.95l2.88-5.41a9.21,9.21,0,0,0,6,2.67c1.58,0,3.25-.79,3.25-2.6s-2.64-2.54-4.08-2.95c-4.21-1.2-7-2.3-7-7.3,0-5.24,3.73-8.67,8.91-8.67a17.67,17.67,0,0,1,8.08,2.12Z"/><path d="M277.68,352.84a7.29,7.29,0,0,0-5.89-2.84,6.81,6.81,0,0,0-6.89,7.16,6.7,6.7,0,0,0,7,7,7.72,7.72,0,0,0,5.79-2.74v8.05a19,19,0,0,1-5.93,1.2,14.38,14.38,0,0,1-9.7-3.8,12.63,12.63,0,0,1-4.14-9.76,13.52,13.52,0,0,1,3.8-9.46,14,14,0,0,1,9.83-4.18,15.76,15.76,0,0,1,6.13,1.3Z"/><path d="M298.24,354.14v-10H305V370h-6.71V359.42h-9.69V370h-6.71V344.17h6.71v10Z"/><path d="M336.6,356.61c0,8.36-6,14.25-14.29,14.25S308,365,308,356.61c0-7.81,6.85-13.29,14.29-13.29S336.6,348.8,336.6,356.61Zm-21.58,0a7.31,7.31,0,1,0,14.59,0c0-3.56-3.29-6.82-7.3-6.82S315,353.08,315,356.64Z"/><path d="M367,356.61c0,8.36-6,14.25-14.29,14.25s-14.29-5.89-14.29-14.25c0-7.81,6.85-13.29,14.29-13.29S367,348.8,367,356.61Zm-21.58,0a7.31,7.31,0,1,0,14.59,0c0-3.56-3.29-6.82-7.3-6.82S345.41,353.08,345.41,356.64Z"/><path d="M376.82,364.32h8.05V370H370.1V344.17h6.71Z"/><path d="M401.24,350.82a7.06,7.06,0,0,0-4.45-1.71c-1.23,0-2.88.72-2.88,2.16s1.82,2.09,3,2.47l1.71.51c3.6,1.06,6.37,2.88,6.37,7.06,0,2.57-.62,5.21-2.67,7a11.33,11.33,0,0,1-7.33,2.43,15.94,15.94,0,0,1-9.08-2.95l2.88-5.41a9.21,9.21,0,0,0,6,2.67c1.58,0,3.25-.79,3.25-2.6s-2.64-2.54-4.08-2.95c-4.21-1.2-7-2.3-7-7.3,0-5.24,3.73-8.67,8.91-8.67a17.67,17.67,0,0,1,8.08,2.12Z"/></svg>