<svg id="Calque_1" data-name="Calque 1" xmlns="http://www.w3.org/2000/svg" xmlns:xlink="http://www.w3.org/1999/xlink" viewBox="0 0 317.98 325.48"><defs><style>.cls-1,.cls-10,.cls-7,.cls-8{fill:none;}.cls-2{clip-path:url(#clip-path);}.cls-3{fill:#fff;}.cls-4{fill:#0e77b9;}.cls-5{fill:#98978b;}.cls-6{fill:#304693;}.cls-7{stroke:#8f9092;stroke-width:9.69px;}.cls-7,.cls-8{stroke-linecap:round;stroke-linejoin:round;}.cls-8{stroke:#fff;stroke-width:4.84px;}.cls-9{fill:#b5101e;}.cls-10{stroke:#8f847b;stroke-width:0.5px;}</style><clipPath id="clip-path"><rect class="cls-1" width="317.98" height="325.48"/></clipPath></defs><title>logo-sms-color</title><g class="cls-2"><g class="cls-2"><path class="cls-3" d="M208.37,28.4c-16.74,0-35.1-6.32-50.31-17.25l-2.94,1.5c-13.78,11.12-26,16-44.25,16-17.48,0-32.94-7.2-44.75-17.5L61.35,14.4,13.62,60.65C29.7,76.48,41.23,91.76,41.17,116.9c0,11.84-3.2,28.35-11.05,47.24-7.62,18.15-10.86,35.41-12.5,44-3.86,20.24,9.25,40.78,20,54.5a74.17,74.17,0,0,0,41.21,26.08c18.41,2.41,44.42,6.39,47.54,6.67s21.73,11.14,32.74,19.66c12.61-13.89,42.4-21.32,48.84-21.66s31.55-1.62,42.17-8c15.74-3.79,26.38-16.21,37.25-29.75s12.43-37.09,12.46-54.26c0-8.75-5.38-22.52-13-40.67C279,141.91,276.49,116.05,276.5,116c3.83-24.9,12-39.48,27.87-55.1L252.12,11.15A62,62,0,0,1,208.37,28.4"/><path class="cls-4" d="M208.28,36.84c-16.74,0-32.92-5.62-48.13-16.55l-.18-.13c-13.78,11.12-30.1,16.7-48.31,16.68-17.48,0-32.51-5-44.33-15.34l-.18-.15L24.94,61.71C41,77.53,49.19,98.76,49.13,123.91c0,11.84-4.18,26.75-12,45.63-7.62,18.15-11.21,32.09-11.16,40.84,0,16.91,5.21,31.82,16,45.54s23.72,22.15,39.45,25.93c18.41,2.41,30.49,4,36.35,4.95,1.94.3,3.1.49,4,.69,16.51,3.33,29.25,8.79,38.13,17.08,8.86-8.28,21.6-13.75,38.1-17.08.89-.2,2-.39,4-.69s4.63-.68,8-1.15q10-1.39,28.37-3.8c15.74-3.79,28.78-12.24,39.65-25.78A70.89,70.89,0,0,0,294,210.39c0-8.75-3.54-22.69-11.16-40.84-7.83-18.82-12-33.69-12-45.51,0,0,0-.1,0-.15-.06-25.36,8-46.61,23.88-62.22L252.61,21.51c-11,10.4-26.1,15.35-44.33,15.33"/><path class="cls-5" d="M280.21,127.11l-.17-4.17c.13-23,7-40.57,20.87-54.19l-3.36-4Q275,86.77,275,123.3q0,15.65,11.6,43.43t11.6,43.05A76.58,76.58,0,0,1,280.92,259q-17.31,21.62-42.59,27.58-37.07,4.85-40.18,5.6-24.23,4.85-36,16l-3.12,3-3.12-3q-11.77-11.18-36-16-3.12-.75-40.17-5.6-25.28-6-42.42-27.77a77.29,77.29,0,0,1-17.14-49q0-15.28,11.6-43.05t11.6-43.43q0-36.16-22.86-58.53L16.69,61,66.21,13.7l3.47,3Q86,30.85,110.88,30.85q26,0,45.37-15.65L159,13l3.12,2.23Q184,30.84,207.5,30.85q26.33,0,41.22-14.16l3.11-3,45.72,43.61,3.8,3.73-3.8,3.72,3.36,4,7.88-7.7-7.87-7.71L251.82,6.5l-6.42,6.16C236.61,21,224.26,25.44,207.5,25.46c-14.66,0-28.72-4.82-42.59-14.75l-6.06-4.34-5.59,4.5c-12.09,9.72-26,14.56-42.38,14.58-15.76,0-28.2-4.4-38.06-13L66,6.67,9.2,61l7.93,7.75c14.18,14,21.16,31.64,21.22,54.54,0,9-3.55,23.07-11.16,41.22-7.85,18.88-12,33.64-12,45.26a83,83,0,0,0,18.32,52.49c12,15.36,27.29,25.36,45.17,29.55l.23.05.23,0q18.52,2.42,28.53,3.82c3.33.47,6,.84,7.86,1.13s3.15.51,3.3.55l.08,0,.09,0c15.64,3.11,26.82,8.27,33.62,14.77l6.43,6.14,6.44-6.16c6.79-6.49,18-11.65,33.6-14.76l.11,0,.07,0c.14,0,1.43-.27,3.29-.55,5.71-.87,17.89-2.53,36.4-5l.24,0,.23-.05c17.87-4.18,33.15-14.1,45.31-29.32a82.28,82.28,0,0,0,18.53-52.72c0-11.62-4.19-26.37-12-45.26-6.61-15.76-10.19-28.43-11-37.4"/></g><g class="cls-2"><path class="cls-6" d="M60.73,137.61V123.8h19.8v6.8L83,133H93.31l2.37-2.27v-7.12l-2.27-2.17H72.27L60.73,109.87V88.53L72.27,77H104l11.55,11.55v14.23H95.68V95.54l-2.27-2.27H82.69l-2.17,2.27v7.32l2.27,2.27H104l11.55,11.55v20.93L104,149.16H72.27Zm12.06,9.8h30.73l10.31-10.21V117l-10.21-10.11H82.38l-3.5-3.61V95.13l3.5-3.61H93.82l3.61,3.61V101h16.4V88.94L103.62,78.73H72.69L62.48,88.94v20.52l10.21,10.21H93.82l3.61,3.51V131l-3.71,3.61H82.48L78.87,131v-5.47H62.48V137.2Zm-8-11.76v-7.94H76.6v4.74L81,136.89H95.27l4.43-4.54V122l-4.54-4.64H74.34l-9.59-9.59V90.49L74.23,81h27.84l9.59,9.69v8.14h-12V93.89l-4.54-4.64H81L76.6,93.69v10.93L81,109h21l9.59,9.69v16.91l-9.38,9.49H74.13Z"/><path class="cls-7" d="M60.73,137.61V123.8h19.8v6.8L83,133H93.31l2.37-2.27v-7.12l-2.27-2.17H72.27L60.73,109.87V88.53L72.27,77H104l11.55,11.55v14.23H95.68V95.54l-2.27-2.27H82.69l-2.17,2.27v7.32l2.27,2.27H104l11.55,11.55v20.93L104,149.16H72.27Zm12.06,9.8h30.73l10.31-10.21V117l-10.21-10.11H82.38l-3.5-3.61V95.13l3.5-3.61H93.82l3.61,3.61V101h16.4V88.94L103.62,78.73H72.69L62.48,88.94v20.52l10.21,10.21H93.82l3.61,3.51V131l-3.71,3.61H82.48L78.87,131v-5.47H62.48V137.2Zm-8-11.76v-7.94H76.6v4.74L81,136.89H95.27l4.43-4.54V122l-4.54-4.64H74.34l-9.59-9.59V90.49L74.23,81h27.84l9.59,9.69v8.14h-12V93.89l-4.54-4.64H81L76.6,93.69v10.93L81,109h21l9.59,9.69v16.91l-9.38,9.49H74.13Z"/><path class="cls-6" d="M119.91,150.16V134h4.33V94.27h-4.33V78H143l16.81,27.94L176.52,78h23.2V94.27h-4.33V134h4.33v16.19H171.26V134h4.23V115.21l-15.67,26.09L144,115.21V134h4.33v16.19Zm26.71-1.75V135.62h-4.33V109.53l17.53,29.39,17.43-30.42v27.12h-4.33v12.79H198V135.62h-4.33V92.52H198V79.73h-21L159.82,108.4,142.6,79.73H121.66V92.52h4.23v43.1h-4.23v12.79Zm-22.69-2.27v-8.25h4.23V90.25h-4.23V82h16l19.9,33,19.8-33H195.8v8.25h-4.43v47.64h4.43v8.25H175.18v-8.25h4.33v-36.3l-19.69,32.89-19.7-32.89v36.3h4.33v8.25Z"/><path class="cls-7" d="M119.91,150.16V134h4.33V94.27h-4.33V78H143l16.81,27.94L176.52,78h23.2V94.27h-4.33V134h4.33v16.19H171.26V134h4.23V115.21l-15.67,26.09L144,115.21V134h4.33v16.19Zm26.71-1.75V135.62h-4.33V109.53l17.53,29.39,17.43-30.42v27.12h-4.33v12.79H198V135.62h-4.33V92.52H198V79.73h-21L159.82,108.4,142.6,79.73H121.66V92.52h4.23v43.1h-4.23v12.79Zm-22.69-2.27v-8.25h4.23V90.25h-4.23V82h16l19.9,33,19.8-33H195.8v8.25h-4.43v47.64h4.43v8.25H175.18v-8.25h4.33v-36.3l-19.69,32.89-19.7-32.89v36.3h4.33v8.25Z"/><path class="cls-6" d="M202.4,137.61V123.8h19.8v6.8l2.48,2.37H235l2.37-2.27v-7.12l-2.27-2.17H213.95L202.4,109.87V88.53L213.95,77h31.76l11.55,11.55v14.23h-19.9V95.54l-2.27-2.27H224.37l-2.17,2.27v7.32l2.27,2.27h21.24l11.55,11.55v20.93l-11.55,11.55H213.95Zm12.06,9.8h30.73L255.5,137.2V117L245.3,106.88H224.06l-3.51-3.61V95.13l3.51-3.61H235.5l3.61,3.61V101H255.5V88.94L245.3,78.73H214.36L204.15,88.94v20.52l10.21,10.21H235.5l3.61,3.51V131l-3.71,3.61H224.16L220.55,131v-5.47h-16.4V137.2Zm-8-11.76v-7.94h11.86v4.74l4.44,4.43h14.23l4.44-4.54V122l-4.54-4.64H216l-9.59-9.59V90.49L215.91,81h27.84l9.59,9.69v8.14h-12V93.89l-4.54-4.64H222.72l-4.44,4.43v10.93l4.44,4.43h21l9.59,9.69v16.91L244,145.14H215.81Z"/><path class="cls-7" d="M202.4,137.61V123.8h19.8v6.8l2.48,2.37H235l2.37-2.27v-7.12l-2.27-2.17H213.95L202.4,109.87V88.53L213.95,77h31.76l11.55,11.55v14.23h-19.9V95.54l-2.27-2.27H224.37l-2.17,2.27v7.32l2.27,2.27h21.24l11.55,11.55v20.93l-11.55,11.55H213.95Zm12.06,9.8h30.73L255.5,137.2V117L245.3,106.88H224.06l-3.51-3.61V95.13l3.51-3.61H235.5l3.61,3.61V101H255.5V88.94L245.3,78.73H214.36L204.15,88.94v20.52l10.21,10.21H235.5l3.61,3.51V131l-3.71,3.61H224.16L220.55,131v-5.47h-16.4V137.2Zm-8-11.76v-7.94h11.86v4.74l4.44,4.43h14.23l4.44-4.54V122l-4.54-4.64H216l-9.59-9.59V90.49L215.91,81h27.84l9.59,9.69v8.14h-12V93.89l-4.54-4.64H222.72l-4.44,4.43v10.93l4.44,4.43h21l9.59,9.69v16.91L244,145.14H215.81Z"/><path class="cls-3" d="M60.73,137.61V123.79h19.8v6.81L83,133H93.31l2.37-2.27v-7.12l-2.27-2.16H72.27L60.73,109.87V88.53L72.27,77H104l11.55,11.55v14.23H95.68V95.54l-2.27-2.27H82.69l-2.16,2.27v7.32l2.27,2.27H104l11.55,11.55v20.93L104,149.16H72.27Zm12.06,9.79h30.73l10.31-10.21V117l-10.21-10.11H82.38l-3.51-3.61V95.13l3.51-3.61H93.83l3.61,3.61V101h16.4V88.94L103.62,78.73H72.69L62.48,88.94v20.52l10.21,10.21H93.83l3.61,3.51V131l-3.71,3.61H82.48L78.87,131v-5.46H62.48V137.2Zm-8-11.75v-7.94H76.6v4.74L81,136.89H95.27l4.43-4.54V122l-4.54-4.64H74.34l-9.59-9.59V90.49L74.23,81h27.84l9.59,9.69v8.15h-12V93.89l-4.54-4.64H81L76.6,93.68v10.93L81,109h21l9.59,9.69v16.91l-9.38,9.49H74.13Z"/><path class="cls-8" d="M60.73,137.61V123.79h19.8v6.81L83,133H93.31l2.37-2.27v-7.12l-2.27-2.16H72.27L60.73,109.87V88.53L72.27,77H104l11.55,11.55v14.23H95.68V95.54l-2.27-2.27H82.69l-2.16,2.27v7.32l2.27,2.27H104l11.55,11.55v20.93L104,149.16H72.27Zm12.06,9.79h30.73l10.31-10.21V117l-10.21-10.11H82.38l-3.51-3.61V95.13l3.51-3.61H93.83l3.61,3.61V101h16.4V88.94L103.62,78.73H72.69L62.48,88.94v20.52l10.21,10.21H93.83l3.61,3.51V131l-3.71,3.61H82.48L78.87,131v-5.46H62.48V137.2Zm-8-11.75v-7.94H76.6v4.74L81,136.89H95.27l4.43-4.54V122l-4.54-4.64H74.34l-9.59-9.59V90.49L74.23,81h27.84l9.59,9.69v8.15h-12V93.89l-4.54-4.64H81L76.6,93.68v10.93L81,109h21l9.59,9.69v16.91l-9.38,9.49H74.13Z"/><path class="cls-3" d="M119.91,149.16V133h4.33V93.27h-4.33V77H143l16.81,27.94L176.52,77h23.2V93.27h-4.33V133h4.33v16.19H171.26V133h4.23V114.2l-15.67,26.09L144,114.2V133h4.33v16.19Zm26.71-1.75V134.62h-4.33V108.53l17.53,29.39,17.43-30.42v27.12h-4.33v12.79H198V134.62h-4.33V91.52H198V78.73h-21L159.82,107.4,142.6,78.73H121.66V91.52h4.23v43.1h-4.23v12.79Zm-22.69-2.27v-8.25h4.23V89.25h-4.23V81h16l19.9,33,19.8-33H195.8v8.25h-4.43v47.64h4.43v8.25H175.18v-8.25h4.33v-36.3l-19.69,32.9-19.7-32.9v36.3h4.33v8.25Z"/><path class="cls-8" d="M119.91,149.16V133h4.33V93.27h-4.33V77H143l16.81,27.94L176.52,77h23.2V93.27h-4.33V133h4.33v16.19H171.26V133h4.23V114.2l-15.67,26.09L144,114.2V133h4.33v16.19Zm26.71-1.75V134.62h-4.33V108.53l17.53,29.39,17.43-30.42v27.12h-4.33v12.79H198V134.62h-4.33V91.52H198V78.73h-21L159.82,107.4,142.6,78.73H121.66V91.52h4.23v43.1h-4.23v12.79Zm-22.69-2.27v-8.25h4.23V89.25h-4.23V81h16l19.9,33,19.8-33H195.8v8.25h-4.43v47.64h4.43v8.25H175.18v-8.25h4.33v-36.3l-19.69,32.9-19.7-32.9v36.3h4.33v8.25Z"/><path class="cls-3" d="M202.4,137.61V123.79h19.8v6.81l2.48,2.37H235l2.37-2.27v-7.12l-2.27-2.16H214L202.4,109.87V88.53L214,77h31.76l11.55,11.55v14.23h-19.9V95.54l-2.27-2.27H224.37l-2.17,2.27v7.32l2.27,2.27h21.24l11.55,11.55v20.93l-11.55,11.55H214Zm12.06,9.79h30.73l10.31-10.21V117L245.3,106.88H224.06l-3.5-3.61V95.13l3.5-3.61H235.5l3.61,3.61V101h16.39V88.94L245.3,78.73H214.36L204.16,88.94v20.52l10.21,10.21H235.5l3.61,3.51V131l-3.71,3.61H224.16L220.55,131v-5.46h-16.4V137.2Zm-8-11.75v-7.94h11.86v4.74l4.43,4.43h14.23l4.43-4.54V122l-4.54-4.64H216l-9.59-9.59V90.49L215.91,81h27.84l9.59,9.69v8.15h-12V93.89l-4.54-4.64H222.72l-4.43,4.43v10.93l4.43,4.43h21l9.59,9.69v16.91L244,145.14H215.81Z"/><path class="cls-8" d="M202.4,137.61V123.79h19.8v6.81l2.48,2.37H235l2.37-2.27v-7.12l-2.27-2.16H214L202.4,109.87V88.53L214,77h31.76l11.55,11.55v14.23h-19.9V95.54l-2.27-2.27H224.37l-2.17,2.27v7.32l2.27,2.27h21.24l11.55,11.55v20.93l-11.55,11.55H214Zm12.06,9.79h30.73l10.31-10.21V117L245.3,106.88H224.06l-3.5-3.61V95.13l3.5-3.61H235.5l3.61,3.61V101h16.39V88.94L245.3,78.73H214.36L204.16,88.94v20.52l10.21,10.21H235.5l3.61,3.51V131l-3.71,3.61H224.16L220.55,131v-5.46h-16.4V137.2Zm-8-11.75v-7.94h11.86v4.74l4.43,4.43h14.23l4.43-4.54V122l-4.54-4.64H216l-9.59-9.59V90.49L215.91,81h27.84l9.59,9.69v8.15h-12V93.89l-4.54-4.64H222.72l-4.43,4.43v10.93l4.43,4.43h21l9.59,9.69v16.91L244,145.14H215.81Z"/><path class="cls-9" d="M119.91,149.2V133h4.33V93.31h-4.33V77H143L159.82,105,176.52,77h23.2V93.31h-4.33V133h4.33V149.2H171.26V133h4.23V114.24l-15.68,26.09L144,114.24V133h4.33V149.2Zm26.71-1.75V134.66h-4.33V108.57L159.82,138l17.43-30.42v27.12h-4.33v12.79H198V134.66h-4.33V91.56H198V78.77h-21l-17.12,28.67L142.6,78.77H121.66V91.56h4.23v43.1h-4.23v12.79Zm-22.69-2.27v-8.25h4.23V89.29h-4.23V81h16l19.9,33,19.8-33h16.19v8.25h-4.43v47.64h4.43v8.25H175.18v-8.25h4.33v-36.3l-19.7,32.9-19.69-32.9v36.3h4.33v8.25Z"/><path class="cls-9" d="M60.67,137.68V123.86h19.8v6.81L82.94,133H93.25l2.37-2.27v-7.12l-2.27-2.16H72.22L60.67,109.94V88.6L72.22,77.05H104L115.53,88.6v14.23H95.63V95.61l-2.27-2.27H82.63l-2.16,2.27v7.32l2.27,2.27H104l11.55,11.55v20.93L104,149.23H72.22Zm12.06,9.79h30.73l10.31-10.21V117.06L103.57,107H82.32l-3.51-3.61V95.2l3.51-3.61H93.77l3.61,3.61v5.88h16.4V89L103.57,78.8H72.63L62.42,89v20.52l10.21,10.21H93.77l3.61,3.51v7.84l-3.71,3.61H82.43l-3.61-3.61v-5.46H62.42v11.65Zm-8-11.75v-7.94H76.55v4.74L81,137H95.21l4.43-4.54V122.11l-4.54-4.64H74.28l-9.59-9.59V90.56l9.48-9.49H102l9.59,9.69v8.15h-12V94l-4.54-4.64H81l-4.44,4.43v10.93L81,109.12h21l9.59,9.69v16.91l-9.38,9.49H74.08Z"/><path class="cls-9" d="M202.46,137.62V123.8h19.8v6.81l2.48,2.37H235l2.37-2.27V123.6l-2.27-2.16H214l-11.55-11.55V88.54L214,77h31.76l11.55,11.55v14.23h-19.9V95.55l-2.27-2.27H224.42l-2.17,2.27v7.32l2.27,2.27h21.24l11.55,11.55v20.93l-11.55,11.55H214Zm12.06,9.79h30.73l10.31-10.21V117l-10.21-10.11H224.11l-3.5-3.61V95.14l3.5-3.61h11.45l3.61,3.61V101h16.4V89L245.35,78.74H214.42L204.21,89v20.52l10.21,10.21h21.14l3.61,3.51V131l-3.71,3.61H224.22L220.61,131v-5.46h-16.4v11.65Zm-8-11.75v-7.94h11.86v4.74l4.43,4.43H237l4.43-4.54V122.05l-4.54-4.64H216.07l-9.59-9.59V90.5L216,81h27.84l9.59,9.69v8.15h-12V93.9l-4.54-4.64H222.77l-4.43,4.43v10.93l4.43,4.43h21l9.59,9.69v16.91L244,145.15H215.86Z"/><path class="cls-3" d="M92.74,191.79v-4.94h7.1v2.43l.89.85h3.7l.85-.81v-2.54l-.81-.78H96.88l-4.14-4.13v-7.63l4.14-4.13h11.4l4.14,4.13v5.09h-7.14v-2.58l-.81-.81h-3.85l-.78.81v2.62l.81.81h7.62l4.14,4.13v7.49l-4.14,4.13H96.88Zm4.33,3.5h11l3.7-3.65v-7.23l-3.66-3.62h-7.62l-1.26-1.29V176.6l1.26-1.29h4.11l1.29,1.29v2.1h5.88v-4.32l-3.66-3.65H97l-3.66,3.65v7.34L97,185.37h7.58l1.29,1.25v2.8l-1.33,1.29h-4l-1.3-1.29v-2H93.37v4.17Zm-2.89-4.2v-2.84h4.25v1.7l1.59,1.59h5.11l1.59-1.62v-3.69l-1.63-1.66H97.62l-3.44-3.43v-6.19l3.4-3.39h10L111,175v2.91h-4.29v-1.77l-1.63-1.66H100l-1.59,1.59V180l1.59,1.59h7.55L111,185v6l-3.37,3.39H97.55Z"/><path class="cls-10" d="M92.74,191.79v-4.94h7.1v2.43l.89.85h3.7l.85-.81v-2.54l-.81-.78H96.88l-4.14-4.13v-7.63l4.14-4.13h11.4l4.14,4.13v5.09h-7.14v-2.58l-.81-.81h-3.85l-.78.81v2.62l.81.81h7.62l4.14,4.13v7.49l-4.14,4.13H96.88Zm4.33,3.5h11l3.7-3.65v-7.23l-3.66-3.62h-7.62l-1.26-1.29V176.6l1.26-1.29h4.11l1.29,1.29v2.1h5.88v-4.32l-3.66-3.65H97l-3.66,3.65v7.34L97,185.37h7.58l1.29,1.25v2.8l-1.33,1.29h-4l-1.3-1.29v-2H93.37v4.17Zm-2.89-4.2v-2.84h4.25v1.7l1.59,1.59h5.11l1.59-1.62v-3.69l-1.63-1.66H97.62l-3.44-3.43v-6.19l3.4-3.39h10L111,175v2.91h-4.29v-1.77l-1.63-1.66H100l-1.59,1.59V180l1.59,1.59h7.55L111,185v6l-3.37,3.39H97.55Z"/><path class="cls-3" d="M114,195.92v-5.79h1.55v-14.2H114V170.1h16l4.14,4.13V182L130,186.15h-7.36v4h1.55v5.79Zm9.58-.63v-4.57H122v-5.2h7.81l3.7-3.73v-7.34l-3.77-3.76H114.6v4.61h1.52v15.42H114.6v4.57Zm-8.14-.81v-2.95h1.52v-17h-1.52v-3h13.87l3.4,3.39v6.38l-3.4,3.43h-8.07v6.79h1.55v2.95Zm11.4-12.72,1.63-1.62v-4.06l-1.59-1.59h-5.62v7.26Zm-4.81-.81V175.3h4.37l1.29,1.29v3l-1.29,1.33Zm4.22-.63.81-.81v-2.77l-.81-.81h-3.59v4.39Z"/><path class="cls-10" d="M114,195.92v-5.79h1.55v-14.2H114V170.1h16l4.14,4.13V182L130,186.15h-7.36v4h1.55v5.79Zm9.58-.63v-4.57H122v-5.2h7.81l3.7-3.73v-7.34l-3.77-3.76H114.6v4.61h1.52v15.42H114.6v4.57Zm-8.14-.81v-2.95h1.52v-17h-1.52v-3h13.87l3.4,3.39v6.38l-3.4,3.43h-8.07v6.79h1.55v2.95Zm11.4-12.72,1.63-1.62v-4.06l-1.59-1.59h-5.62v7.26Zm-4.81-.81V175.3h4.37l1.29,1.29v3l-1.29,1.33Zm4.22-.63.81-.81v-2.77l-.81-.81h-3.59v4.39Z"/><path class="cls-3" d="M137.51,191.79V174.24l4.14-4.13H153l4.14,4.13v17.56L153,195.92h-11.4Zm4.37,3.47h11l3.7-3.69V174.49l-3.77-3.76H141.87l-3.7,3.69v17.15Zm-2.92-4.17V174.94l3.4-3.39h10l3.4,3.39v16.15l-3.4,3.39h-10Zm5.85.44h5.11l1.59-1.59V176.12l-1.63-1.62H144.8l-1.59,1.59v13.87Zm-.81-2.06V176.56l1.29-1.29h4.14l1.29,1.29v12.91l-1.29,1.29h-4.14Zm1.48.66h3.77l.81-.81V176.74l-.81-.81h-3.81l-.81.81v12.54Z"/><path class="cls-10" d="M137.51,191.79V174.24l4.14-4.13H153l4.14,4.13v17.56L153,195.92h-11.4Zm4.37,3.47h11l3.7-3.69V174.49l-3.77-3.76H141.87l-3.7,3.69v17.15Zm-2.92-4.17V174.94l3.4-3.39h10l3.4,3.39v16.15l-3.4,3.39h-10Zm5.85.44h5.11l1.59-1.59V176.12l-1.63-1.62H144.8l-1.59,1.59v13.87Zm-.81-2.06V176.56l1.29-1.29h4.14l1.29,1.29v12.91l-1.29,1.29h-4.14Zm1.48.66h3.77l.81-.81V176.74l-.81-.81h-3.81l-.81.81v12.54Z"/><path class="cls-3" d="M159,195.92v-5.79h1.55v-14.2H159V170.1h16l4.14,4.13v6.64l-1.7,1.66,1.7,1.7v5.9h1.56v5.79h-8.66v-9.7l-.82-.77h-3.59v4.68h1.55v5.79Zm9.58-.63v-4.57H167v-5.9h4.51l1.15,1.14v9.33h7.36v-4.57h-1.52v-6.23l-2-2,2-2v-6l-3.77-3.76H159.63v4.57h1.52v15.42h-1.52v4.57Zm-8.14-.81v-2.95H162v-17h-1.52v-3h13.91l3.37,3.39v5.2l-2.33,2.36,2.33,2.36v6.68h1.55v2.95h-5.81v-8.85L171.88,184h-5.62v7.49h1.55v2.95Zm11.4-13.39,1.63-1.62V176l-1.59-1.55h-5.62v6.6Zm-4.81-.81v-5h4.33l1.33,1.33V179l-1.33,1.29Zm4.18-.63.85-.81v-2.07l-.85-.85h-3.55v3.73Z"/><path class="cls-10" d="M159,195.92v-5.79h1.55v-14.2H159V170.1h16l4.14,4.13v6.64l-1.7,1.66,1.7,1.7v5.9h1.56v5.79h-8.66v-9.7l-.82-.77h-3.59v4.68h1.55v5.79Zm9.58-.63v-4.57H167v-5.9h4.51l1.15,1.14v9.33h7.36v-4.57h-1.52v-6.23l-2-2,2-2v-6l-3.77-3.76H159.63v4.57h1.52v15.42h-1.52v4.57Zm-8.14-.81v-2.95H162v-17h-1.52v-3h13.91l3.37,3.39v5.2l-2.33,2.36,2.33,2.36v6.68h1.55v2.95h-5.81v-8.85L171.88,184h-5.62v7.49h1.55v2.95Zm11.4-13.39,1.63-1.62V176l-1.59-1.55h-5.62v6.6Zm-4.81-.81v-5h4.33l1.33,1.33V179l-1.33,1.29Zm4.18-.63.85-.81v-2.07l-.85-.85h-3.55v3.73Z"/><path class="cls-3" d="M182.53,177.44v-7.34H204.4v7.34h-5.85v-1.51H197v14.2h1.52v5.79H188.34v-5.79h1.55v-14.2h-1.55v1.51Zm5.18-.59v-1.55h2.81v15.42H189v4.57h9v-4.57h-1.55V175.31h2.81v1.55h4.55v-6.12H183.16v6.12ZM184,176v-4.5h19V176h-3v-1.55h-4.37v17h1.52v2.95h-7.36v-2.95h1.55v-17H186.9V176Z"/><path class="cls-10" d="M182.53,177.44v-7.34H204.4v7.34h-5.85v-1.51H197v14.2h1.52v5.79H188.34v-5.79h1.55v-14.2h-1.55v1.51Zm5.18-.59v-1.55h2.81v15.42H189v4.57h9v-4.57h-1.55V175.31h2.81v1.55h4.55v-6.12H183.16v6.12ZM184,176v-4.5h19V176h-3v-1.55h-4.37v17h1.52v2.95h-7.36v-2.95h1.55v-17H186.9V176Z"/><path class="cls-3" d="M207.25,191.79v-4.94h7.1v2.43l.89.85h3.7l.85-.81v-2.54L219,186h-7.59l-4.14-4.13v-7.63l4.14-4.13h11.4l4.14,4.13v5.09h-7.14v-2.58l-.81-.81h-3.85l-.78.81v2.62l.81.81h7.62l4.14,4.13v7.49l-4.14,4.13h-11.4Zm4.33,3.5h11l3.7-3.65v-7.23l-3.66-3.62H215l-1.26-1.29V176.6l1.26-1.29h4.11l1.29,1.29v2.1h5.88v-4.32l-3.66-3.65h-11.1l-3.66,3.65v7.34l3.66,3.65h7.58l1.29,1.25v2.8l-1.33,1.29h-4l-1.29-1.29v-2h-5.88v4.17Zm-2.89-4.2v-2.84h4.25v1.7l1.59,1.59h5.11l1.59-1.62v-3.69l-1.63-1.66h-7.48l-3.44-3.43v-6.19l3.4-3.39h10l3.44,3.47v2.91h-4.29v-1.77l-1.63-1.66h-5.07l-1.59,1.59V180l1.59,1.59h7.55l3.44,3.47v6l-3.37,3.39h-10.1Z"/><path class="cls-10" d="M207.25,191.79v-4.94h7.1v2.43l.89.85h3.7l.85-.81v-2.54L219,186h-7.59l-4.14-4.13v-7.63l4.14-4.13h11.4l4.14,4.13v5.09h-7.14v-2.58l-.81-.81h-3.85l-.78.81v2.62l.81.81h7.62l4.14,4.13v7.49l-4.14,4.13h-11.4Zm4.33,3.5h11l3.7-3.65v-7.23l-3.66-3.62H215l-1.26-1.29V176.6l1.26-1.29h4.11l1.29,1.29v2.1h5.88v-4.32l-3.66-3.65h-11.1l-3.66,3.65v7.34l3.66,3.65h7.58l1.29,1.25v2.8l-1.33,1.29h-4l-1.29-1.29v-2h-5.88v4.17Zm-2.89-4.2v-2.84h4.25v1.7l1.59,1.59h5.11l1.59-1.62v-3.69l-1.63-1.66h-7.48l-3.44-3.43v-6.19l3.4-3.39h10l3.44,3.47v2.91h-4.29v-1.77l-1.63-1.66h-5.07l-1.59,1.59V180l1.59,1.59h7.55l3.44,3.47v6l-3.37,3.39h-10.1Z"/><path class="cls-3" d="M95.19,218.23V214.9H96v-8.16h-.8V203.4h4.26l3.1,5.74,3.08-5.74h4.28v3.35h-.8v8.16h.8v3.33h-5.24V214.9h.78V211l-2.89,5.36L99.63,211v3.86h.8v3.33Zm4.92-.36v-2.63h-.8v-5.36l3.23,6,3.21-6.25v5.58H105v2.63h4.62v-2.63h-.8v-8.86h.8v-2.63H105.7l-3.15,5.89-3.17-5.89H95.51v2.63h.78v8.86h-.78v2.63Zm-4.18-.47v-1.7h.78v-9.79h-.78v-1.7h2.94l3.67,6.78,3.65-6.78h3v1.7h-.82v9.79h.82v1.7h-3.8v-1.7h.8v-7.46L102.54,215l-3.63-6.76v7.46h.8v1.7Z"/><path class="cls-10" d="M95.19,218.23V214.9H96v-8.16h-.8V203.4h4.26l3.1,5.74,3.08-5.74h4.28v3.35h-.8v8.16h.8v3.33h-5.24V214.9h.78V211l-2.89,5.36L99.63,211v3.86h.8v3.33Zm4.92-.36v-2.63h-.8v-5.36l3.23,6,3.21-6.25v5.58H105v2.63h4.62v-2.63h-.8v-8.86h.8v-2.63H105.7l-3.15,5.89-3.17-5.89H95.51v2.63h.78v8.86h-.78v2.63Zm-4.18-.47v-1.7h.78v-9.79h-.78v-1.7h2.94l3.67,6.78,3.65-6.78h3v1.7h-.82v9.79h.82v1.7h-3.8v-1.7h.8v-7.46L102.54,215l-3.63-6.76v7.46h.8v1.7Z"/><path class="cls-3" d="M111.07,218.23V214.9h.8l2.43-8.16h-.59V203.4h7.07v3.35h-.67l2.43,8.16h.78v3.33h-5.09V214.9h.46l-.21-.7h-2.55l-.23.7h.46v3.33Zm4.77-.36v-2.63h-.49l.3-1.38h3.12l.29,1.38h-.49v2.63H123v-2.63h-.76l-2.55-8.86h.74v-2.63H114v2.63h.65l-2.55,8.86h-.74v2.63Zm-4-.47v-1.7h.57l2.91-9.79h-.84v-1.7h5.6v1.7h-.93l2.91,9.79h.57v1.7H119v-1.7h.72L119,213.4h-3.63l-.68,2.31h.72v1.7Zm6.82-5.23-1.43-4.83-1.46,4.83Zm-2.24-.42.82-2.95.8,2.95Zm1.25-.38-.44-1.42-.44,1.42Z"/><path class="cls-10" d="M111.07,218.23V214.9h.8l2.43-8.16h-.59V203.4h7.07v3.35h-.67l2.43,8.16h.78v3.33h-5.09V214.9h.46l-.21-.7h-2.55l-.23.7h.46v3.33Zm4.77-.36v-2.63h-.49l.3-1.38h3.12l.29,1.38h-.49v2.63H123v-2.63h-.76l-2.55-8.86h.74v-2.63H114v2.63h.65l-2.55,8.86h-.74v2.63Zm-4-.47v-1.7h.57l2.91-9.79h-.84v-1.7h5.6v1.7h-.93l2.91,9.79h.57v1.7H119v-1.7h.72L119,213.4h-3.63l-.68,2.31h.72v1.7Zm6.82-5.23-1.43-4.83-1.46,4.83Zm-2.24-.42.82-2.95.8,2.95Zm1.25-.38-.44-1.42-.44,1.42Z"/><path class="cls-3" d="M124,218.23V214.9h.8v-8.16H124V203.4h4.31l3.67,6.8v-3.46h-.8V203.4h5.24v3.35h-.8v8.16h.8v3.33H132l-3.59-6.63v3.31h.8v3.33Zm4.92-.34v-2.65h-.8v-4.92l4.07,7.57h3.91v-2.65h-.8v-8.86h.8v-2.63h-4.6v2.63h.8v5.07l-4.14-7.69h-3.84v2.63h.78v8.86h-.78v2.65Zm-4.18-.49v-1.7h.78v-9.79h-.78v-1.7h3.06l4.92,9.11v-7.42h-.82v-1.7h3.8v1.7h-.82v9.79h.82v1.7h-3.17l-4.81-8.94v7.25h.8v1.7Z"/><path class="cls-10" d="M124,218.23V214.9h.8v-8.16H124V203.4h4.31l3.67,6.8v-3.46h-.8V203.4h5.24v3.35h-.8v8.16h.8v3.33H132l-3.59-6.63v3.31h.8v3.33Zm4.92-.34v-2.65h-.8v-4.92l4.07,7.57h3.91v-2.65h-.8v-8.86h.8v-2.63h-4.6v2.63h.8v5.07l-4.14-7.69h-3.84v2.63h.78v8.86h-.78v2.65Zm-4.18-.49v-1.7h.78v-9.79h-.78v-1.7h3.06l4.92,9.11v-7.42h-.82v-1.7h3.8v1.7h-.82v9.79h.82v1.7h-3.17l-4.81-8.94v7.25h.8v1.7Z"/><path class="cls-3" d="M137.39,218.23V214.9h.8l2.43-8.16H140V203.4h7.07v3.35h-.67l2.43,8.16h.78v3.33h-5.09V214.9H145l-.21-.7h-2.55l-.23.7h.46v3.33Zm4.77-.36v-2.63h-.49l.3-1.38h3.12l.29,1.38h-.49v2.63h4.47v-2.63h-.76L146,206.38h.74v-2.63h-6.42v2.63H141l-2.55,8.86h-.74v2.63Zm-4-.47v-1.7h.57l2.91-9.79h-.84v-1.7h5.6v1.7h-.93l2.91,9.79h.57v1.7h-3.63v-1.7H146l-.68-2.31H141.7l-.68,2.31h.72v1.7Zm6.82-5.23-1.43-4.83-1.46,4.83Zm-2.24-.42.82-2.95.8,2.95Zm1.25-.38-.44-1.42-.44,1.42Z"/><path class="cls-10" d="M137.39,218.23V214.9h.8l2.43-8.16H140V203.4h7.07v3.35h-.67l2.43,8.16h.78v3.33h-5.09V214.9H145l-.21-.7h-2.55l-.23.7h.46v3.33Zm4.77-.36v-2.63h-.49l.3-1.38h3.12l.29,1.38h-.49v2.63h4.47v-2.63h-.76L146,206.38h.74v-2.63h-6.42v2.63H141l-2.55,8.86h-.74v2.63Zm-4-.47v-1.7h.57l2.91-9.79h-.84v-1.7h5.6v1.7h-.93l2.91,9.79h.57v1.7h-3.63v-1.7H146l-.68-2.31H141.7l-.68,2.31h.72v1.7Zm6.82-5.23-1.43-4.83-1.46,4.83Zm-2.24-.42.82-2.95.8,2.95Zm1.25-.38-.44-1.42-.44,1.42Z"/><path class="cls-3" d="M150.86,215.86V205.77L153,203.4h5.81l2.15,2.4v3.28h-3.67v-1.86l-.42-.47h-1.94l-.42.47v7.21l.44.49h1.92l.42-.47V213h-1v-3h4.67v5.83l-2.15,2.42H153Zm2.24,2h5.6l1.9-2.12v-5.4h-4v2.31h1v1.84l-.67.74h-2.07l-.66-.74v-7.38l.66-.74h2.07l.67.74v1.61h3V205.9l-1.92-2.14h-5.6l-1.9,2.12v9.86Zm-1.5-2.42v-9.31l1.73-1.93h5.13l1.75,1.95v2.1H158v-1.44l-.82-.91H154.6l-.82.91v8l.82.91h2.58l.82-.91v-2.59h-1v-1.42h3.17v4.66l-1.75,2h-5.11Z"/><path class="cls-10" d="M150.86,215.86V205.77L153,203.4h5.81l2.15,2.4v3.28h-3.67v-1.86l-.42-.47h-1.94l-.42.47v7.21l.44.49h1.92l.42-.47V213h-1v-3h4.67v5.83l-2.15,2.42H153Zm2.24,2h5.6l1.9-2.12v-5.4h-4v2.31h1v1.84l-.67.74h-2.07l-.66-.74v-7.38l.66-.74h2.07l.67.74v1.61h3V205.9l-1.92-2.14h-5.6l-1.9,2.12v9.86Zm-1.5-2.42v-9.31l1.73-1.93h5.13l1.75,1.95v2.1H158v-1.44l-.82-.91H154.6l-.82.91v8l.82.91h2.58l.82-.91v-2.59h-1v-1.42h3.17v4.66l-1.75,2h-5.11Z"/><path class="cls-3" d="M162,218.23V214.9h.8v-8.16H162V203.4h9.76v3.94h-3v-.59h-2.34v2.39H167v-.57h3v4.49h-3v-.57h-.53v2.42h2.34v-.61h3v3.94Zm9.44-.36v-3.22H169.1v.59h-3v-3.14h1.18v.59h2.35v-3.77h-2.35v.59h-1.18v-3.14h3V207h2.35v-3.22h-9.12v2.63h.78v8.86h-.78v2.63Zm-8.7-.47v-1.7h.78v-9.79h-.78v-1.7h8.3v2.29h-1.54v-.59h-3.78v4h2v-.59h1.52v2.88h-1.52v-.59h-2v4h3.78v-.59h1.54v2.29Z"/><path class="cls-10" d="M162,218.23V214.9h.8v-8.16H162V203.4h9.76v3.94h-3v-.59h-2.34v2.39H167v-.57h3v4.49h-3v-.57h-.53v2.42h2.34v-.61h3v3.94Zm9.44-.36v-3.22H169.1v.59h-3v-3.14h1.18v.59h2.35v-3.77h-2.35v.59h-1.18v-3.14h3V207h2.35v-3.22h-9.12v2.63h.78v8.86h-.78v2.63Zm-8.7-.47v-1.7h.78v-9.79h-.78v-1.7h8.3v2.29h-1.54v-.59h-3.78v4h2v-.59h1.52v2.88h-1.52v-.59h-2v4h3.78v-.59h1.54v2.29Z"/><path class="cls-3" d="M172.31,218.23V214.9h.8v-8.16h-.8V203.4h4.26l3.1,5.74,3.08-5.74H187v3.35h-.8v8.16h.8v3.33h-5.24V214.9h.78V211l-2.89,5.36L176.76,211v3.86h.8v3.33Zm4.92-.36v-2.63h-.8v-5.36l3.23,6,3.21-6.25v5.58h-.8v2.63h4.62v-2.63h-.8v-8.86h.8v-2.63h-3.88l-3.15,5.89-3.17-5.89h-3.86v2.63h.78v8.86h-.78v2.63Zm-4.18-.47v-1.7h.78v-9.79h-.78v-1.7H176l3.67,6.78,3.65-6.78h3v1.7h-.82v9.79h.82v1.7h-3.8v-1.7h.8v-7.46L179.66,215,176,208.25v7.46h.8v1.7Z"/><path class="cls-10" d="M172.31,218.23V214.9h.8v-8.16h-.8V203.4h4.26l3.1,5.74,3.08-5.74H187v3.35h-.8v8.16h.8v3.33h-5.24V214.9h.78V211l-2.89,5.36L176.76,211v3.86h.8v3.33Zm4.92-.36v-2.63h-.8v-5.36l3.23,6,3.21-6.25v5.58h-.8v2.63h4.62v-2.63h-.8v-8.86h.8v-2.63h-3.88l-3.15,5.89-3.17-5.89h-3.86v2.63h.78v8.86h-.78v2.63Zm-4.18-.47v-1.7h.78v-9.79h-.78v-1.7H176l3.67,6.78,3.65-6.78h3v1.7h-.82v9.79h.82v1.7h-3.8v-1.7h.8v-7.46L179.66,215,176,208.25v7.46h.8v1.7Z"/><path class="cls-3" d="M188.19,218.23V214.9h.8v-8.16h-.8V203.4H198v3.94h-3v-.59h-2.34v2.39h.53v-.57h3v4.49h-3v-.57h-.53v2.42H195v-.61h3v3.94Zm9.44-.36v-3.22h-2.35v.59h-3v-3.14h1.18v.59h2.35v-3.77H193.5v.59h-1.18v-3.14h3V207h2.35v-3.22h-9.12v2.63h.78v8.86h-.78v2.63Zm-8.7-.47v-1.7h.78v-9.79h-.78v-1.7h8.3v2.29H195.7v-.59h-3.78v4h2v-.59h1.52v2.88h-1.52v-.59h-2v4h3.78v-.59h1.54v2.29Z"/><path class="cls-10" d="M188.19,218.23V214.9h.8v-8.16h-.8V203.4H198v3.94h-3v-.59h-2.34v2.39h.53v-.57h3v4.49h-3v-.57h-.53v2.42H195v-.61h3v3.94Zm9.44-.36v-3.22h-2.35v.59h-3v-3.14h1.18v.59h2.35v-3.77H193.5v.59h-1.18v-3.14h3V207h2.35v-3.22h-9.12v2.63h.78v8.86h-.78v2.63Zm-8.7-.47v-1.7h.78v-9.79h-.78v-1.7h8.3v2.29H195.7v-.59h-3.78v4h2v-.59h1.52v2.88h-1.52v-.59h-2v4h3.78v-.59h1.54v2.29Z"/><path class="cls-3" d="M198.49,218.23V214.9h.8v-8.16h-.8V203.4h4.31l3.67,6.8v-3.46h-.8V203.4h5.24v3.35h-.8v8.16h.8v3.33h-4.39l-3.59-6.63v3.31h.8v3.33Zm4.92-.34v-2.65h-.8v-4.92l4.07,7.57h3.91v-2.65h-.8v-8.86h.8v-2.63H206v2.63h.8v5.07l-4.14-7.69h-3.84v2.63h.78v8.86h-.78v2.65Zm-4.18-.49v-1.7H200v-9.79h-.78v-1.7h3.06l4.92,9.11v-7.42h-.82v-1.7h3.8v1.7h-.82v9.79h.82v1.7H207l-4.81-8.94v7.25h.8v1.7Z"/><path class="cls-10" d="M198.49,218.23V214.9h.8v-8.16h-.8V203.4h4.31l3.67,6.8v-3.46h-.8V203.4h5.24v3.35h-.8v8.16h.8v3.33h-4.39l-3.59-6.63v3.31h.8v3.33Zm4.92-.34v-2.65h-.8v-4.92l4.07,7.57h3.91v-2.65h-.8v-8.86h.8v-2.63H206v2.63h.8v5.07l-4.14-7.69h-3.84v2.63h.78v8.86h-.78v2.65Zm-4.18-.49v-1.7H200v-9.79h-.78v-1.7h3.06l4.92,9.11v-7.42h-.82v-1.7h3.8v1.7h-.82v9.79h.82v1.7H207l-4.81-8.94v7.25h.8v1.7Z"/><path class="cls-3" d="M211.72,207.61V203.4h11.23v4.22h-3v-.87h-.78v8.16h.78v3.33H214.7v-3.33h.8v-8.16h-.8v.87Zm2.66-.34v-.89h1.44v8.86H215v2.63h4.62v-2.63h-.8v-8.86h1.44v.89h2.34v-3.52H212v3.52Zm-1.92-.47v-2.58h9.77v2.58h-1.54v-.89h-2.24v9.79h.78v1.7h-3.78v-1.7h.8v-9.79H214v.89Z"/><path class="cls-10" d="M211.72,207.61V203.4h11.23v4.22h-3v-.87h-.78v8.16h.78v3.33H214.7v-3.33h.8v-8.16h-.8v.87Zm2.66-.34v-.89h1.44v8.86H215v2.63h4.62v-2.63h-.8v-8.86h1.44v.89h2.34v-3.52H212v3.52Zm-1.92-.47v-2.58h9.77v2.58h-1.54v-.89h-2.24v9.79h.78v1.7h-3.78v-1.7h.8v-9.79H214v.89Z"/><path class="cls-3" d="M94.05,246.36v-4.74h7.1V244l.89.81h3.7l.85-.78v-2.44l-.81-.74H98.2l-4.14-4v-7.32l4.14-4h11.4l4.14,4v4.88H106.6v-2.48l-.81-.78h-3.85l-.78.78v2.51l.81.78h7.62l4.14,4v7.18l-4.14,4H98.2Zm4.33,3.36h11l3.7-3.5v-6.93l-3.66-3.47h-7.62l-1.26-1.24v-2.8l1.26-1.24h4.11l1.29,1.24v2h5.88v-4.14l-3.66-3.5H98.35l-3.66,3.5v7l3.66,3.5h7.58l1.29,1.2v2.69l-1.33,1.24h-4l-1.3-1.24v-1.87H94.68v4Zm-2.89-4V243h4.25v1.63l1.59,1.52h5.11l1.59-1.56V241l-1.63-1.59H98.94l-3.44-3.29v-5.94l3.4-3.26h10l3.44,3.33v2.79H108v-1.7l-1.63-1.59h-5.07l-1.59,1.52V235l1.59,1.52h7.55l3.44,3.33v5.8L109,248.94H98.86Z"/><path class="cls-10" d="M94.05,246.36v-4.74h7.1V244l.89.81h3.7l.85-.78v-2.44l-.81-.74H98.2l-4.14-4v-7.32l4.14-4h11.4l4.14,4v4.88H106.6v-2.48l-.81-.78h-3.85l-.78.78v2.51l.81.78h7.62l4.14,4v7.18l-4.14,4H98.2Zm4.33,3.36h11l3.7-3.5v-6.93l-3.66-3.47h-7.62l-1.26-1.24v-2.8l1.26-1.24h4.11l1.29,1.24v2h5.88v-4.14l-3.66-3.5H98.35l-3.66,3.5v7l3.66,3.5h7.58l1.29,1.2v2.69l-1.33,1.24h-4l-1.3-1.24v-1.87H94.68v4Zm-2.89-4V243h4.25v1.63l1.59,1.52h5.11l1.59-1.56V241l-1.63-1.59H98.94l-3.44-3.29v-5.94l3.4-3.26h10l3.44,3.33v2.79H108v-1.7l-1.63-1.59h-5.07l-1.59,1.52V235l1.59,1.52h7.55l3.44,3.33v5.8L109,248.94H98.86Z"/><path class="cls-3" d="M116.33,246.36V229.52l4.14-4h11.4l4.14,4V235h-7.14v-3.11l-.81-.78h-3.81l-.81.78v12l.85.81h3.77l.81-.78v-3H136v5.34l-4.14,4h-11.4Zm4.4,3.36h11l3.66-3.5v-4.63H129.5v2.51l-1.29,1.24h-4.07l-1.3-1.24V231.78l1.3-1.24h4.07l1.29,1.24v2.72h5.88v-4.85l-3.7-3.54H120.62L117,229.66v16.45Zm-3-4v-15.5l3.4-3.26h10l3.4,3.26v3.5h-4.29v-2.37l-1.63-1.56h-5.07L122,231.29v13.3l1.59,1.52h5.07l1.63-1.56v-2.23h4.37v3.36l-3.4,3.26h-10.1Z"/><path class="cls-10" d="M116.33,246.36V229.52l4.14-4h11.4l4.14,4V235h-7.14v-3.11l-.81-.78h-3.81l-.81.78v12l.85.81h3.77l.81-.78v-3H136v5.34l-4.14,4h-11.4Zm4.4,3.36h11l3.66-3.5v-4.63H129.5v2.51l-1.29,1.24h-4.07l-1.3-1.24V231.78l1.3-1.24h4.07l1.29,1.24v2.72h5.88v-4.85l-3.7-3.54H120.62L117,229.66v16.45Zm-3-4v-15.5l3.4-3.26h10l3.4,3.26v3.5h-4.29v-2.37l-1.63-1.56h-5.07L122,231.29v13.3l1.59,1.52h5.07l1.63-1.56v-2.23h4.37v3.36l-3.4,3.26h-10.1Z"/><path class="cls-3" d="M137.57,250.32v-5.56h1.55V231.15h-1.55v-5.59h10.21v5.59h-1.55v3.4h5.07v-3.4H149.7v-5.59H160v5.59h-1.52v13.62H160v5.56H149.7v-5.56h1.59v-4.14h-5.07v4.14h1.55v5.56Zm9.58-.6v-4.39h-1.55V240h6.33v5.31h-1.55v4.39h9v-4.39h-1.59V230.55h1.59v-4.39h-9v4.39h1.55v4.6h-6.33v-4.6h1.55v-4.39h-9v4.39h1.52v14.79h-1.52v4.39Zm-8.14-.78v-2.83h1.52V229.77H139v-2.83h7.36v2.83h-1.55v6.12h7.88v-6.12h-1.55v-2.83h7.4v2.83H157v16.35h1.55v2.83h-7.4v-2.83h1.55v-6.86h-7.88v6.86h1.55v2.83Z"/><path class="cls-10" d="M137.57,250.32v-5.56h1.55V231.15h-1.55v-5.59h10.21v5.59h-1.55v3.4h5.07v-3.4H149.7v-5.59H160v5.59h-1.52v13.62H160v5.56H149.7v-5.56h1.59v-4.14h-5.07v4.14h1.55v5.56Zm9.58-.6v-4.39h-1.55V240h6.33v5.31h-1.55v4.39h9v-4.39h-1.59V230.55h1.59v-4.39h-9v4.39h1.55v4.6h-6.33v-4.6h1.55v-4.39h-9v4.39h1.52v14.79h-1.52v4.39Zm-8.14-.78v-2.83h1.52V229.77H139v-2.83h7.36v2.83h-1.55v6.12h7.88v-6.12h-1.55v-2.83h7.4v2.83H157v16.35h1.55v2.83h-7.4v-2.83h1.55v-6.86h-7.88v6.86h1.55v2.83Z"/><path class="cls-3" d="M161.5,246.36V229.52l4.14-4H177l4.14,4v16.84l-4.14,4h-11.4Zm4.37,3.33h11l3.7-3.54V229.77l-3.78-3.61H165.87l-3.7,3.54v16.45Zm-2.92-4v-15.5l3.4-3.26h10l3.4,3.26v15.5l-3.4,3.25h-10Zm5.85.42h5.11l1.59-1.52V231.32l-1.63-1.56h-5.07l-1.59,1.52v13.3Zm-.81-2V231.75l1.29-1.24h4.14l1.29,1.24v12.38l-1.29,1.24h-4.14Zm1.48.64h3.77L174,244V231.93l-.81-.78h-3.81l-.81.78v12Z"/><path class="cls-10" d="M161.5,246.36V229.52l4.14-4H177l4.14,4v16.84l-4.14,4h-11.4Zm4.37,3.33h11l3.7-3.54V229.77l-3.78-3.61H165.87l-3.7,3.54v16.45Zm-2.92-4v-15.5l3.4-3.26h10l3.4,3.26v15.5l-3.4,3.25h-10Zm5.85.42h5.11l1.59-1.52V231.32l-1.63-1.56h-5.07l-1.59,1.52v13.3Zm-.81-2V231.75l1.29-1.24h4.14l1.29,1.24v12.38l-1.29,1.24h-4.14Zm1.48.64h3.77L174,244V231.93l-.81-.78h-3.81l-.81.78v12Z"/><path class="cls-3" d="M184,246.36V229.52l4.14-4h11.4l4.14,4v16.84l-4.14,4h-11.4Zm4.37,3.33h11l3.7-3.54V229.77l-3.78-3.61H188.4l-3.7,3.54v16.45Zm-2.92-4v-15.5l3.4-3.26h10l3.4,3.26v15.5l-3.4,3.25h-10Zm5.85.42h5.11l1.59-1.52V231.32l-1.63-1.56h-5.07l-1.59,1.52v13.3Zm-.81-2V231.75l1.29-1.24H196l1.29,1.24v12.38L196,245.37h-4.14Zm1.48.64h3.77l.81-.78V231.93l-.81-.78H192l-.81.78v12Z"/><path class="cls-10" d="M184,246.36V229.52l4.14-4h11.4l4.14,4v16.84l-4.14,4h-11.4Zm4.37,3.33h11l3.7-3.54V229.77l-3.78-3.61H188.4l-3.7,3.54v16.45Zm-2.92-4v-15.5l3.4-3.26h10l3.4,3.26v15.5l-3.4,3.25h-10Zm5.85.42h5.11l1.59-1.52V231.32l-1.63-1.56h-5.07l-1.59,1.52v13.3Zm-.81-2V231.75l1.29-1.24H196l1.29,1.24v12.38L196,245.37h-4.14Zm1.48.64h3.77l.81-.78V231.93l-.81-.78H192l-.81.78v12Z"/><path class="cls-3" d="M205.79,250.32v-5.56h1.55V231.15h-1.55v-5.59H216v5.59h-1.55v13.62h4.66v-1.49H225v7Zm18.54-.6v-5.8h-4.59v1.45h-6V230.55h1.59v-4.39h-9v4.39H208v14.79h-1.52v4.39Zm-17.09-.78v-2.83h1.52V229.77h-1.52v-2.83h7.36v2.83H213v16.35h7.47v-1.49h3v4.32Z"/><path class="cls-10" d="M205.79,250.32v-5.56h1.55V231.15h-1.55v-5.59H216v5.59h-1.55v13.62h4.66v-1.49H225v7Zm18.54-.6v-5.8h-4.59v1.45h-6V230.55h1.59v-4.39h-9v4.39H208v14.79h-1.52v4.39Zm-17.09-.78v-2.83h1.52V229.77h-1.52v-2.83h7.36v2.83H213v16.35h7.47v-1.49h3v4.32Z"/></g></g></svg>