<svg id="Calque_1" data-name="Calque 1" xmlns="http://www.w3.org/2000/svg" viewBox="0 0 512 512">
  <defs>
    <style>
      .cls-1, .cls-2 {
        fill: #fff;
      }

      .cls-2 {
        stroke: #fff;
        stroke-width: 0.77px;
      }
    </style>
  </defs>
  <title>sup-de-luxe</title>
  <g>
    <g>
      <path class="cls-1" d="M159.61,157.25c4.52,7.41,9.73,12,18.77,12,9.38,0,16.1-7.76,16.1-16.91,0-21.55-36.26-12.05-36.26-38.23,0-14.94,11.82-22.24,25.72-22.24,5.56,0,12.28,1.74,16.57,5.57a64.62,64.62,0,0,0-3.13,9.5h-1.16c-2.43-6.26-7.53-10.08-14.36-10.08-8,0-14.6,5.33-14.6,13.55,0,21.32,36.49,12.74,36.49,37.42,0,16.56-12.86,26.41-28.61,26.41-5.68,0-14.95-2.43-18.88-6.72a53.11,53.11,0,0,0,2.2-10.31Z"/>
      <path class="cls-1" d="M230,138c0,20.39,5.79,30.93,25.6,30.93,18.42,0,25-13.32,25-32.09V93.65a27.26,27.26,0,0,0,3.24.35c1,0,2.09-.23,3.25-.35v46.1c0,22.94-13.44,34.52-33.83,34.52-11.47,0-19.12-2.66-25.14-8.11-7.31-6.6-8.23-16.91-8.34-26.18V93.65c1.62.12,3.36.35,5.1.35s3.25-.23,5.1-.35Z"/>
      <path class="cls-1" d="M316.24,172.89c-1.85-.11-3.47-.34-5.1-.34s-3.47.23-5.1.34V93.65h20.74c22.48,0,29.89,5,29.89,19s-8.46,20.39-24.79,23.64c-5.21,1-12.75.23-15.64.23Zm0-40.89a63.42,63.42,0,0,0,11.47,0c11.59-1.16,18.3-8.46,18.3-18.77,0-7.88-3.93-14.13-13.09-14.94a135.28,135.28,0,0,0-16.68-.12Z"/>
    </g>
    <g>
      <path class="cls-1" d="M134,349.5c7.07.23,14-.23,21-.46,3.7-.12,7.3-.58,11-1-.11,1.27-.35,2.32-.35,3.48s.23,2.31.35,3.47H123.81V276.06c1.62.11,3.36.34,5.09.34s3.24-.23,5.1-.34Z"/>
      <path class="cls-1" d="M192.51,320.42c0,20.39,5.79,30.93,25.6,30.93,18.42,0,25-13.32,25-32.09V276.06a27.9,27.9,0,0,0,3.24.34c1,0,2.09-.23,3.25-.34v46.11c0,22.94-13.44,34.52-33.83,34.52-11.47,0-19.12-2.66-25.14-8.11-7.3-6.61-8.23-16.91-8.34-26.18V276.06c1.62.11,3.36.34,5.1.34s3.25-.23,5.1-.34Z"/>
      <path class="cls-1" d="M292.62,315.44c-4.52-7.3-8.81-14.72-13.32-21.9l-11.47-17.49c2,.11,4.17.34,6.25.34s3.94-.23,6.25-.34c2,3.24,3.94,6.6,5.91,10l12.28,21.08c6.26-10.19,13.56-19.92,19.47-31,1.39.11,2.78.34,4.29.34s2.78-.23,4.29-.34a18.91,18.91,0,0,0-2,2.32L306.86,303l-5.67,8.57,26.87,43.67c-2.32-.11-4.29-.35-6.37-.35s-4.29.23-6.37.35c-6.26-12.28-12.86-23.87-20-35.22-7.53,11.35-14.37,22.94-21,35.22-1.5-.11-2.9-.35-4.29-.35s-2.9.23-4.29.35c4.75-7.06,9.5-13.67,14-20.5Z"/>
      <path class="cls-1" d="M357.49,310.58h18c3.48,0,6.83-.46,10.31-.58a24.13,24.13,0,0,0-.34,3c0,.92.23,2,.34,3.25-3.48-.11-6.83-.58-10.31-.58h-18V349.5c7.07.23,14-.23,21-.46a83.27,83.27,0,0,0,10.66-1c-.11,1.27-.35,2.32-.35,3.48s.24,2.31.35,3.47H347.3V276.06h41.13c-.12,1.27-.35,2.32-.35,3.47a34.76,34.76,0,0,0,.35,3.48A79.45,79.45,0,0,0,378,281.74l-11.58-.24h-8.92Z"/>
    </g>
    <g>
      <path class="cls-1" d="M254.46,230.43a15.45,15.45,0,0,1-4.31.52c-5.66,0-8.85-2.77-8.85-7.8a10.57,10.57,0,0,1,11.06-10.08h1.35l1.16-8.21h3.19Zm-1.12-14.7h-.83c-5.21,0-7.95,3.75-7.95,7.35,0,3.34,2,5.25,5.59,5.25a10.26,10.26,0,0,0,1.46-.07Z"/>
      <path class="cls-1" d="M270.35,229.08a9.38,9.38,0,0,1-5.63,1.88c-4.27,0-7-3.22-7-8.14,0-5.51,3.49-9.74,8-9.74,3.75,0,6.56,3.49,5.85,8.62H261c-.79,4.5,1.69,6.63,4.31,6.63,1.57,0,3.37-.75,5.47-2.29Zm-1.8-9.6c0-2.14-.93-3.78-3-3.78-1.87,0-3.15,1.23-4,3.78Z"/>
    </g>
    <g>
      <path class="cls-1" d="M200.58,390c5.45,0,7.59,2.79,7.59,6.13,0,3-1.74,6.23-7.76,6.23H196V413.2h-1.8V390ZM196,400.83h4.33c4.32,0,5.93-2.08,5.93-4.7s-1.64-4.67-5.72-4.67H196Z"/>
      <path class="cls-1" d="M240.65,413.2h-1.87l-3.68-8H223.75l-3.68,8H218.2l10.73-23.4h1Zm-11.24-20.47-5,10.93h10Z"/>
      <path class="cls-1" d="M261.71,390c5.68,0,7.7,2.9,7.7,6,0,2.69-1.46,4.57-4.43,5.66,1.09.58,2,1.9,3.1,3.54l5.24,8h-2.11l-4.05-6.37c-2.79-4.39-3.68-4.77-6.47-4.77h-3.13V413.2h-1.8V390Zm-4.16,10.59h3.85c4.09,0,6.06-1.77,6.06-4.56,0-2.62-1.87-4.53-6.13-4.53h-3.78Z"/>
      <path class="cls-1" d="M289.28,413.2h-1.8V390h1.8Z"/>
      <path class="cls-1" d="M317.8,393.11c-2.39-1.36-3.61-1.77-5.21-1.77-2.8,0-4.9,1.91-4.9,4.42,0,6.2,11.06,3.24,11.06,11.38A6.49,6.49,0,0,1,312,413.5a10.83,10.83,0,0,1-6-2v-2.11c2.59,1.87,4.05,2.49,5.86,2.49a4.7,4.7,0,0,0,4.91-4.63c0-6.61-11.07-3.71-11.07-11.38a6.42,6.42,0,0,1,6.68-6.16,11,11,0,0,1,5.38,1.47Z"/>
    </g>
    <path class="cls-2" d="M175.45,258.19s39.44-16.74,81.17-16.74,80.86,16.74,80.86,16.74-44-13.9-80.86-14.17-81.17,14.17-81.17,14.17"/>
  </g>
</svg>
