<svg xmlns="http://www.w3.org/2000/svg" viewBox="0 0 800 800"><path d="M589.1 195.5C535.3 144.2 463.7 116 387.5 116c-76.1 0-147.7 28.2-201.6 79.5-53.9 51.3-83.6 119.6-83.6 192.2s29.7 140.9 83.6 192.2c53.9 51.3 125.5 79.6 201.6 79.6 76.2 0 147.8-28.3 201.6-79.6 53.9-51.3 83.6-119.5 83.6-192.1 0-72.7-29.7-141-83.6-192.3zM563 554.4c-46.9 44.6-109.2 69.1-175.5 69.1-22.9 0-55.3-6.7-86.5-17.9-25.8-9.3-62.2-25.7-89-51.2-46.7-44.5-72.4-103.7-72.4-166.7 0-63 25.7-122.1 72.4-166.6 47-44.6 109.3-69.2 175.5-69.2 66.3 0 128.6 24.6 175.5 69.2 46.8 44.5 72.5 103.7 72.5 166.6.1 63-25.7 122.2-72.5 166.7z"/><path d="M350.2 353.5h74.7v175.7h-74.7zm37.3-107.2c-22.6 0-40.9 17.4-40.9 38.9s18.3 38.9 40.9 38.9c22.5 0 40.9-17.4 40.9-38.9s-18.3-38.9-40.9-38.9z"/></svg>