<svg id="Calque_1" data-name="Calque 1" xmlns="http://www.w3.org/2000/svg" viewBox="0 0 512 512"><defs><style>.cls-1{fill:#fff}.cls-2{fill:#ffe000}</style></defs><title>sawi-central</title><circle class="cls-1" cx="256" cy="256" r="233.73"/><path d="M122.88 215.81a53.6 53.6 0 0 0-22.18-4.32c-14.7 0-29.7 7.34-29.7 23.88 0 12.1 7.5 15.74 15 17.73s15 2.23 15 7.5c0 3.66-4.47 5.12-7.49 5.12-5.9 0-14.05-3.44-18.91-6.84l-8.7 16.68a52.18 52.18 0 0 0 27.18 7.73c15.62 0 31.78-7.34 31.78-25.06 0-12.48-8.41-17.73-19.57-20-3.28-.64-10.76-1.32-10.76-5.91 0-3.4 4.74-4.59 7.48-4.59a29.6 29.6 0 0 1 12.87 3.27zm50.03 16.41c9.69 0 15.36 7 15.36 15.24 0 8.53-5.66 15.09-15.36 15.09s-15.37-6.56-15.37-15.09c0-8.28 5.66-15.24 15.37-15.24m38.47-18.52h-23.9v6.59c-5-5.92-13.13-8.8-20.87-8.8-20 0-33.75 16.54-33.75 35.84s14.06 36 34 36c7.88 0 16.17-3 20.36-9.71h.26v7.48h23.91zm32.56 0h-26.52l35.19 67.37h15.49l16.67-36.89 16.68 36.89h15.51l35.17-67.37h-26.38l-16.96 36.52-16.93-36.52h-14.17l-16.95 36.52-16.8-36.52zm114.1.01h23.89v67.37h-23.89z"/><path class="cls-2" d="M382 244.54c2.31-3.49 4.64-7 6.93-10.46 9.06-13.8 18.7-28.54 27.75-42.35h23.97l-.69 1.14q-9.26 14.14-18.53 28.27l-38.2 58.25a11.52 11.52 0 0 1-.94 1.44s-.26.24-.27 0-.07-.62-.07-1v-34.51c0-.16 0-.48.06-.8"/><path d="M101.72 313.14a7.06 7.06 0 0 0-4.45-1.71c-1.23 0-2.88.72-2.88 2.16s1.82 2.09 3 2.47l1.71.51c3.6 1.06 6.37 2.88 6.37 7.06 0 2.57-.62 5.21-2.67 7a11.33 11.33 0 0 1-7.35 2.37 15.94 15.94 0 0 1-9.08-2.95l2.88-5.41a9.21 9.21 0 0 0 6 2.67c1.58 0 3.25-.79 3.25-2.6s-2.64-2.54-4.08-2.95c-4.21-1.2-7-2.3-7-7.3 0-5.24 3.73-8.67 8.91-8.67a17.67 17.67 0 0 1 8.08 2.12zm15.68 10.04h.07l5.41-16.68h5.34l5.07 16.68h.07l4.86-16.68h7L137 332.32h-6.85l-4.52-15h-.07l-5.07 15h-6.82l-7.71-25.83h7zm36.21 9.14h-6.71v-25.83h6.71zm18.57-19.18a7.06 7.06 0 0 0-4.45-1.71c-1.23 0-2.88.72-2.88 2.16s1.82 2.09 3 2.47l1.71.51c3.6 1.06 6.37 2.88 6.37 7.06 0 2.57-.62 5.21-2.67 7a11.33 11.33 0 0 1-7.33 2.43 15.94 15.94 0 0 1-9.08-2.95l2.88-5.41a9.21 9.21 0 0 0 6 2.67c1.58 0 3.25-.79 3.25-2.6s-2.64-2.54-4.08-2.95c-4.21-1.2-7-2.3-7-7.3 0-5.24 3.73-8.67 8.91-8.67a17.67 17.67 0 0 1 8.08 2.12zm21.1 0a7.06 7.06 0 0 0-4.45-1.71c-1.23 0-2.88.72-2.88 2.16s1.82 2.09 3 2.47l1.71.51c3.6 1.06 6.37 2.88 6.37 7.06 0 2.57-.62 5.21-2.67 7A11.33 11.33 0 0 1 187 333a15.94 15.94 0 0 1-9.08-2.95l2.88-5.41a9.21 9.21 0 0 0 6 2.67c1.58 0 3.25-.79 3.25-2.6s-2.64-2.54-4.08-2.95c-4.21-1.2-7-2.3-7-7.3 0-5.24 3.73-8.67 8.91-8.67a17.67 17.67 0 0 1 8.08 2.12zm21.51-6.65h6.61l5.24 13.81 5.55-13.81h6.68l3.91 25.83h-6.71l-1.88-14.87h-.07l-6.2 14.87h-2.67l-5.93-14.87h-.07l-2.16 14.87h-6.68zm37.41 21.35l-1.78 4.49h-7.13l9.93-25.83h7.33l9.73 25.83h-7.16l-1.68-4.49zm4.69-13.36h-.07L254 322.7h5.58zm36.96 17.84h-8.36l-6.34-9.93h-.07v9.93h-6.71v-25.83h10c5.1 0 9 2.43 9 7.95 0 3.56-2 6.65-5.65 7.3zm-14.76-14.25h.65c2.19 0 4.66-.41 4.66-3.22s-2.47-3.22-4.66-3.22h-.65zm31.48-11.58h8.32l-10.28 12.23 11.2 13.6h-8.7l-8.67-11.2h-.07v11.2h-6.71v-25.83h6.71v10.65h.07zm17.78 5.69v4.32h7.57v5.69h-7.57v4.45h8v5.69h-14.7v-25.84h14.7v5.69zm22.4 20.14H344v-20.14h-5.55v-5.69h17.85v5.69h-5.55zm14.69 0h-6.71v-25.83h6.71zm4.39-25.83h6.71l12.3 15.79h.07v-15.79h6.71v25.83h-6.71l-12.3-15.83h-.07v15.83h-6.71zm55.94 11.41c-.07 3.77-.34 7-2.64 10.21-2.54 3.53-6.34 5.07-10.65 5.07-8.12 0-13.77-5.52-13.77-13.63 0-8.39 5.69-13.91 14-13.91 5.31 0 9.42 2.4 11.65 7.23l-6.36 2.67a5.84 5.84 0 0 0-5.58-4.11c-4.42 0-6.71 4.21-6.71 8.15s2.4 8.08 6.82 8.08c2.91 0 5.14-1.51 5.41-4.49h-5.48v-5.27zm-301.14 36.24v-10h6.71V370h-6.71v-10.58h-9.69V370h-6.71v-25.83h6.71v10zm33.5-9.97v14.53c0 3.32-.14 6.61-2.71 9.11-2.16 2.12-5.55 2.88-8.56 2.88s-6.41-.75-8.56-2.88c-2.57-2.5-2.71-5.79-2.71-9.11v-14.53h6.71v13.6c0 3.36.24 7 4.56 7s4.56-3.67 4.56-7v-13.6zm4.25 25.83v-25.83H172c4.59 0 7.67 1.78 7.67 6.71 0 2.33-.75 4.21-2.84 5.28v.07c3.7.48 5.28 3 5.28 6.58 0 5.41-4.62 7.19-9.35 7.19zm6.71-15.69h.75c1.78 0 3.63-.31 3.63-2.5 0-2.36-2.09-2.5-3.91-2.5h-.48zm0 10.55h.91c2 0 5.34.1 5.34-2.74 0-3.12-3.32-2.81-5.52-2.81h-.69zm44.47 2.75a16.3 16.3 0 0 1-8.84 3.08c-4.45 0-8.29-2.67-8.29-7.4 0-3.87 2.3-5.76 5.55-7.19l.62-.27-.55-.75a7.05 7.05 0 0 1-1.85-4.49c0-4.45 3.87-7.09 8-7.09s8.08 2.6 8.08 7c0 3.22-2.12 4.86-4.8 6.2l3.25 3.43a21.42 21.42 0 0 0 3.39-3.67l3.8 3.63-3.25 3.49-.31.31 5.79 6.1h-8.39zm-7.74-8.39c-1.1.69-2.43 1.64-2.43 3.08s1.54 2.36 2.91 2.36a7.34 7.34 0 0 0 3.6-1.06zm5.17-8.77a2.27 2.27 0 0 0-2.26-2.4 2.08 2.08 0 0 0-2.16 2.12c0 1.27 1.2 2.5 2 3.43 1.19-.66 2.43-1.75 2.43-3.16zm41.31.37a7.06 7.06 0 0 0-4.45-1.71c-1.23 0-2.88.72-2.88 2.16s1.82 2.09 3 2.47l1.71.51c3.6 1.06 6.37 2.88 6.37 7.06 0 2.57-.62 5.21-2.67 7a11.33 11.33 0 0 1-7.33 2.43 15.94 15.94 0 0 1-9.08-2.95l2.88-5.41a9.21 9.21 0 0 0 6 2.67c1.58 0 3.25-.79 3.25-2.6s-2.64-2.54-4.08-2.95c-4.21-1.2-7-2.3-7-7.3 0-5.24 3.73-8.67 8.91-8.67a17.67 17.67 0 0 1 8.08 2.12zm25.38 2.02a7.29 7.29 0 0 0-5.89-2.84 6.81 6.81 0 0 0-6.89 7.16 6.7 6.7 0 0 0 7 7 7.72 7.72 0 0 0 5.79-2.74v8.05a19 19 0 0 1-5.93 1.2 14.38 14.38 0 0 1-9.7-3.8 12.63 12.63 0 0 1-4.14-9.76 13.52 13.52 0 0 1 3.8-9.46 14 14 0 0 1 9.83-4.18 15.76 15.76 0 0 1 6.13 1.3zm20.56 1.3v-10H305V370h-6.71v-10.58h-9.69V370h-6.71v-25.83h6.71v10zm38.36 2.47c0 8.36-6 14.25-14.29 14.25S308 365 308 356.61c0-7.81 6.85-13.29 14.29-13.29s14.31 5.48 14.31 13.29zm-21.58 0a7.31 7.31 0 1 0 14.59 0c0-3.56-3.29-6.82-7.3-6.82s-7.31 3.29-7.31 6.85zm51.98 0c0 8.36-6 14.25-14.29 14.25s-14.29-5.89-14.29-14.25c0-7.81 6.85-13.29 14.29-13.29S367 348.8 367 356.61zm-21.58 0a7.31 7.31 0 1 0 14.59 0c0-3.56-3.29-6.82-7.3-6.82s-7.3 3.29-7.3 6.85zm31.4 7.71h8.05V370H370.1v-25.83h6.71zm24.42-13.5a7.06 7.06 0 0 0-4.45-1.71c-1.23 0-2.88.72-2.88 2.16s1.82 2.09 3 2.47l1.71.51c3.6 1.06 6.37 2.88 6.37 7.06 0 2.57-.62 5.21-2.67 7a11.33 11.33 0 0 1-7.33 2.43 15.94 15.94 0 0 1-9.08-2.95l2.88-5.41a9.21 9.21 0 0 0 6 2.67c1.58 0 3.25-.79 3.25-2.6s-2.64-2.54-4.08-2.95c-4.21-1.2-7-2.3-7-7.3 0-5.24 3.73-8.67 8.91-8.67a17.67 17.67 0 0 1 8.08 2.12z"/></svg>