<svg data-name="&lt;Layer&gt;" xmlns="http://www.w3.org/2000/svg" viewBox="0 0 98 48"><title>Artboard 1</title><path d="M18.62 18c-4.25 0-5.59 2.36-6 5.58-.21-2.82-1.04-5.58-4.11-5.58A3.51 3.51 0 0 0 5 20.28h-.09v-1.9h-4v21.89h4.2v-6.36h.06a3.55 3.55 0 0 0 3.43 2c3.07 0 3.85-2.81 4-5.68.42 3.45 1.81 5.68 6 5.68 5.43 0 6.13-3.78 6.13-9.14.03-4.77-.57-8.77-6.11-8.77zM6.81 32.92c-1.43 0-1.7-1.8-1.7-6.12 0-3.43 0-5.81 1.7-5.81s1.79 2.38 1.79 5.82c0 4.31-.26 6.11-1.79 6.11zm11.8-.1c-1.55 0-1.94-1.13-1.94-6.36 0-3.57.15-5.37 1.94-5.37s1.94 1.8 1.94 5.37c.01 5.23-.38 6.36-1.93 6.36zM71.88 18c-2.89 0-4.43 1.09-5.25 2.81a14.35 14.35 0 0 0-3-4.63 13.91 13.91 0 0 0-19.66-.27l-.27.27a14.32 14.32 0 0 0-2.07 2.7l.13-.53h-4.09l-2.26 12.09h-.06l-2.14-12.06h-3.52v-5.57h-4.2v22.74h4.2V21.17l3.42 14.51-1 4.59h4.42l3-12.84A14.3 14.3 0 0 0 53.67 41a14.06 14.06 0 0 0 12.75-8.5c.76 2.11 2.32 3.38 5.46 3.38 5.42 0 6.13-3.78 6.13-9.14C78 22 77.42 18 71.88 18zM53.67 37.5a11 11 0 0 1 0-22 10.83 10.83 0 0 1 10.66 11 10.87 10.87 0 0 1-10.66 11zm18.21-4.68c-1.55 0-1.94-1.13-1.94-6.36 0-3.57.15-5.37 1.94-5.37s1.94 1.8 1.94 5.37c0 5.23-.39 6.36-1.94 6.36zm11.03-9.11c0-1.53.25-2.72 1.58-2.72s1.58 1.19 1.58 2.72v11.84h4.12V23.71c0-1.53.25-2.72 1.58-2.72s1.58 1.19 1.58 2.72v11.84h4.2V21.77A3.6 3.6 0 0 0 93.79 18a4.32 4.32 0 0 0-3.9 2.17A3.7 3.7 0 0 0 86.52 18 3.63 3.63 0 0 0 83 20.1h-.06v-1.72h-4.2v17.17h4.2z"/><path d="M53.73 18.38a8.18 8.18 0 0 0 0 16.35 8.06 8.06 0 0 0 5.27-2l.31-.26-.31-.27-1.91-2-.21-.2-.27.22a4.66 4.66 0 0 1-2.94 1.05 4.71 4.71 0 0 1 0-9.42 4.63 4.63 0 0 1 3 1.14l.23.2.25-.18 2.23-1.65.38-.26-.31-.32a8 8 0 0 0-5.72-2.4zm30.83 21.3c-.79-.44-1-.6-1-.95s.37-.69.87-.69a2 2 0 0 1 .85.21l.16-.65a3.68 3.68 0 0 0-1.05-.17 1.46 1.46 0 0 0-1.64 1.42 1.29 1.29 0 0 0 .17.65 2.44 2.44 0 0 0 1.06.84c.76.41 1 .64 1 1s-.41.8-1 .8a2.21 2.21 0 0 1-1.06-.27l-.17.68a4.26 4.26 0 0 0 1.3.22 1.59 1.59 0 0 0 1.8-1.57 1.45 1.45 0 0 0-.13-.61 2.43 2.43 0 0 0-1.16-.91zm5.69 1.99l-1.53-4.1h-.82a5.76 5.76 0 0 1-.31 1l-1.25 3.23a6.13 6.13 0 0 1-.41.93h.94v-.06a5.68 5.68 0 0 1 .18-.61l.25-.74h1.94l.22.66.06.23.07.25a1.47 1.47 0 0 1 .06.27h1v-.06a7 7 0 0 1-.4-1zm-1.27-1h-1.43l.77-2.21.74 2.21zm6.1-2.53l-.06.28-.59 3.07-.93-3.92h-.74l-.93 3.92-.61-3.12a4.93 4.93 0 0 1-.11-.8h-1a4.77 4.77 0 0 1 .28.93l1 4.19h.75l.93-4 .95 4h.76l1-4.2a7.79 7.79 0 0 1 .28-.92h-.9a4.91 4.91 0 0 1-.08.57zm2.53.2a4.89 4.89 0 0 1 .05-.77h-.95a4.59 4.59 0 0 1 .05.77v3.59a5.46 5.46 0 0 1 0 .77h.94a4.83 4.83 0 0 1-.05-.78z"/></svg>