<svg id="Calque_1" data-name="Calque 1" xmlns="http://www.w3.org/2000/svg" viewBox="0 0 299.58 311.98"><defs><style>.cls-1,.cls-2,.cls-3{fill:#fff}.cls-2,.cls-3{stroke:#fff}.cls-2{stroke-linecap:round;stroke-linejoin:round;stroke-width:4.84px}.cls-3{stroke-width:.5px}</style></defs><title>logo-sms</title><path class="cls-1" d="M199.16 22c-16.74 0-35.1-6.32-50.31-17.25l-2.94 1.5c-13.78 11.12-26 16-44.25 16-17.48 0-32.94-7.2-44.75-17.5L52.15 8 4.41 54.27C20.5 70.1 32 85.38 32 110.52c0 11.84-3.2 28.35-11.05 47.24-7.62 18.15-10.86 35.41-12.5 44-3.86 20.24 9.25 40.78 20 54.5a74.16 74.16 0 0 0 41.21 26.08c18.34 2.42 44.34 6.4 47.5 6.66s21.73 11.14 32.74 19.66c12.61-13.89 42.4-21.32 48.84-21.66s31.55-1.62 42.17-8c15.74-3.79 26.38-16.21 37.25-29.75s12.43-37.09 12.46-54.26c0-8.75-5.38-22.52-13-40.67-7.83-18.82-10.33-44.68-10.33-44.73 3.83-24.9 12-39.48 27.87-55.1L242.91 4.77A62 62 0 0 1 199.16 22z"/><path d="M199.08 30.46c-16.74 0-32.92-5.62-48.13-16.55l-.18-.13C137 24.9 120.67 30.49 102.46 30.46c-17.48 0-32.51-5-44.33-15.34L58 15 15.74 55.33C31.83 71.15 40 92.38 39.92 117.53c0 11.84-4.18 26.75-12 45.63-7.65 18.15-11.24 32.09-11.19 40.84 0 16.91 5.21 31.82 16 45.54s23.72 22.15 39.45 25.93c18.41 2.41 30.48 4.05 36.35 4.95 1.94.3 3.1.49 4 .69 16.51 3.33 29.25 8.79 38.13 17.08 8.86-8.28 21.6-13.75 38.1-17.08.89-.2 2-.39 4-.69s4.63-.68 8-1.15q10-1.39 28.37-3.8c15.74-3.79 28.78-12.24 39.65-25.78A70.89 70.89 0 0 0 284.81 204c0-8.75-3.54-22.7-11.16-40.84-7.83-18.82-12-33.69-12-45.51v-.15c-.06-25.36 8-46.61 23.88-62.22l-42.12-40.14c-11.04 10.4-26.1 15.34-44.33 15.32z"/><path d="M271 120.73l-.17-4.17c.13-23 7-40.57 20.87-54.19l-3.36-4q-22.51 22-22.51 58.53 0 15.65 11.6 43.43T289 203.4a76.58 76.58 0 0 1-17.31 49.2q-17.31 21.62-42.59 27.58-37.07 4.85-40.18 5.6-24.23 4.85-36 16l-3.12 3-3.12-3q-11.77-11.18-36-16-3.12-.75-40.17-5.6-25.28-6-42.42-27.77A77.29 77.29 0 0 1 11 203.4q0-15.28 11.6-43.05t11.6-43.43q0-36.16-22.86-58.53l-3.8-3.72L57 7.33l3.47 3q16.28 14.16 41.21 14.16 26 0 45.37-15.65l2.77-2.23 3.12 2.23q21.81 15.65 45.36 15.65 26.33 0 41.22-14.16l3.11-3 45.72 43.61 3.8 3.73-3.8 3.72 3.36 4 7.87-7.7-7.87-7.69L242.62.12l-6.42 6.16c-8.78 8.34-21.13 12.78-37.89 12.79-14.66 0-28.72-4.82-42.59-14.75L149.65 0l-5.59 4.5c-12.09 9.72-26 14.56-42.38 14.58-15.76 0-28.2-4.4-38.06-13L56.83.29 0 54.62l7.93 7.75c14.19 14 21.16 31.64 21.22 54.54 0 9-3.55 23.07-11.16 41.22C10.14 177 6 191.78 6 203.39a83 83 0 0 0 18.33 52.49c12 15.36 27.29 25.36 45.17 29.55l.23.05h.23q18.52 2.42 28.53 3.82c3.33.47 6 .84 7.86 1.13s3.15.51 3.3.55h.17c15.65 3.11 26.82 8.27 33.62 14.78l6.43 6.14 6.44-6.16c6.79-6.49 18-11.65 33.6-14.76h.18c.14 0 1.42-.27 3.29-.55 5.71-.87 17.89-2.53 36.4-5h.24l.23-.05c17.87-4.19 33.15-14.1 45.31-29.32A82.28 82.28 0 0 0 294 203.39c0-11.62-4.19-26.37-12-45.26-6.62-15.76-10.2-28.42-11-37.4z"/><path class="cls-2" d="M51.52 131.23v-13.81h19.8v6.81l2.47 2.37h10.32l2.37-2.27v-7.12L84.21 115H63.07l-11.55-11.5V82.15L63.07 70.6h31.76l11.55 11.55v14.23h-19.9v-7.22l-2.27-2.27H73.49l-2.16 2.27v7.32l2.27 2.27h21.23l11.55 11.55v20.93l-11.55 11.55H63.07zM63.59 141h30.73l10.31-10.21v-20.18l-10.21-10.1H73.18l-3.51-3.61v-8.15l3.51-3.61h11.44l3.61 3.61v5.88h16.4V82.56l-10.21-10.2H63.49l-10.21 10.2v20.52l10.21 10.21h21.13l3.61 3.51v7.84l-3.71 3.61H73.28l-3.61-3.61v-5.46H53.28v11.65zm-8-11.75v-7.94H67.4v4.74l4.43 4.43h14.24L90.5 126v-10.34L86 111H65.13l-9.59-9.59v-17.3L65 74.62h27.87l9.59 9.69v8.15h-12v-4.95L86 82.87H71.84l-4.44 4.44v10.93l4.43 4.44h21l9.59 9.69v16.91l-9.38 9.49H64.93zm55.12 13.53v-16.19H115v-39.7h-4.33V70.6h23.1l16.81 27.94 16.74-27.94h23.2v16.29h-4.33v39.7h4.33v16.19h-28.46v-16.19h4.23v-18.76l-15.67 26.09-15.78-26.09v18.77h4.33v16.19zm26.71-1.78v-12.76h-4.33v-26.08l17.53 29.39L168 101.12v27.12h-4.33V141h25.06v-12.76h-4.33v-43.1h4.33V72.36h-21L150.62 101 133.4 72.36h-20.94v12.78h4.23v43.1h-4.23V141zm-22.69-2.27v-8.25H119V82.87h-4.23v-8.25h16l19.9 33 19.8-33h16.13v8.25h-4.43v47.64h4.43v8.25H166v-8.25h4.33v-36.3l-19.7 32.89-19.7-32.89v36.3h4.33v8.25zm78.47-7.5v-13.81H213v6.81l2.47 2.37h10.31l2.37-2.27v-7.12l-2.26-2.21h-21.14l-11.55-11.5V82.15l11.55-11.55h31.76l11.55 11.55v14.23h-19.9v-7.22l-2.27-2.27h-10.73L213 89.16v7.32l2.27 2.27h21.24l11.55 11.55v20.93l-11.55 11.55h-31.76zm12.06 9.77H236l10.31-10.21v-20.18l-10.21-10.1h-21.25l-3.5-3.61v-8.15l3.5-3.61h11.45l3.61 3.61v5.88h16.39V82.56l-10.2-10.2h-30.94L195 82.56v20.52l10.21 10.21h21.09l3.61 3.51v7.84l-3.71 3.61H215l-3.61-3.61v-5.46H195v11.65zm-8-11.75v-7.94h11.86v4.74l4.43 4.43h14.23l4.43-4.54v-10.28l-4.57-4.66h-20.83l-9.59-9.59v-17.3l9.49-9.49h27.84l9.59 9.69v8.15h-12v-4.95l-4.54-4.64h-14.09l-4.43 4.43v10.94l4.43 4.44h21l9.59 9.69v16.91l-9.38 9.49h-28.11z"/><path d="M110.71 142.82v-16.19H115v-39.7h-4.33V70.64h23.1l16.81 27.94 16.71-27.94h23.2v16.29h-4.33v39.7h4.33v16.19h-28.43v-16.19h4.23v-18.76L150.61 134l-15.77-26.09v18.77h4.33v16.19zm26.71-1.75v-12.79h-4.33V102.2l17.53 29.39L168 101.16v27.12h-4.33v12.79h25.06v-12.79h-4.33v-43.1h4.33V72.39h-21l-17.12 28.67-17.21-28.67h-20.94v12.79h4.23v43.1h-4.23v12.79zm-22.69-2.27v-8.25H119V82.91h-4.23v-8.25h16l19.9 33 19.8-33h16.13v8.25h-4.43v47.64h4.43v8.25H166v-8.25h4.33v-36.3l-19.7 32.89-19.71-32.89v36.3h4.33v8.25zm-63.26-7.5v-13.81h19.8v6.81l2.47 2.37h10.31l2.37-2.27v-7.12l-2.27-2.16H63l-11.53-11.55V82.22L63 70.67h31.78l11.55 11.55v14.23H86.42v-7.22L84.15 87H73.43l-2.16 2.27v7.32l2.27 2.27h21.24l11.55 11.55v20.89l-11.55 11.55H63zm12.06 9.8h30.73l10.31-10.21v-20.21l-10.21-10.1H73.12L69.62 97v-8.18l3.51-3.61h11.44l3.61 3.61v5.88h16.4V82.63l-10.22-10.2H63.43l-10.21 10.2v20.52l10.21 10.21h21.14l3.61 3.51v7.84l-3.71 3.61H73.22l-3.61-3.61v-5.46H53.22v11.65zm-8-11.75v-7.95h11.82v4.74l4.43 4.43H86l4.44-4.57v-10.27l-4.54-4.64H65.08l-9.59-9.59V84.18L65 74.69h27.82l9.59 9.69v8.15h-12v-4.95l-4.54-4.64H71.78l-4.43 4.43v10.94l4.43 4.44h21l9.59 9.69v16.91L93 138.83H64.87zm137.73 1.89v-13.81h19.8v6.81l2.47 2.37h10.31l2.37-2.27v-7.12l-2.27-2.16h-21.13l-11.55-11.55V82.16l11.55-11.55h31.76l11.55 11.55v14.23h-19.9v-7.22l-2.27-2.27h-10.73l-2.16 2.27v7.32l2.27 2.27h21.24l11.55 11.55v20.93l-11.55 11.55h-31.76zm12.06 9.8H236l10.31-10.21v-20.21l-10.21-10.11h-21.19l-3.5-3.61v-8.14l3.5-3.61h11.45l3.64 3.61v5.88h16.4V82.57l-10.25-10.21h-30.93L195 82.57v20.52l10.21 10.21h21.14l3.61 3.51v7.84l-3.71 3.61H215l-3.61-3.61v-5.46H195v11.65zm-8-11.75v-7.94h11.86v4.74l4.43 4.43h14.19l4.43-4.54v-10.31L227.7 111h-20.83l-9.59-9.59V84.12l9.49-9.49h27.84l9.59 9.69v8.15h-12v-4.95l-4.54-4.64h-14.09l-4.43 4.43v10.94l4.43 4.44h21l9.59 9.69v16.91l-9.38 9.49h-28.12z"/><path class="cls-3" d="M83.54 185.41v-4.94h7.1v2.43l.89.85h3.7l.85-.81v-2.54l-.81-.77h-7.59l-4.14-4.13v-7.63l4.14-4.13h11.4l4.14 4.13v5.09h-7.14v-2.58l-.81-.81h-3.85l-.78.81V173l.81.81h7.62l4.14 4.13v7.49l-4.14 4.13H87.68zm4.33 3.5h11l3.7-3.65V178l-3.66-3.62h-7.6L90 173.13v-2.91l1.26-1.29h4.11l1.29 1.29v2.1h5.88V168l-3.66-3.65H87.83L84.16 168v7.34l3.67 3.66h7.58l1.29 1.25v2.8l-1.33 1.29h-4L90 183.05v-2h-5.84v4.17zm16.9.63v-5.79h1.55v-14.2h-1.55v-5.83h16l4.14 4.13v7.78l-4.14 4.13h-7.36v4H115v5.79zm9.58-.63v-4.57h-1.55v-5.2h7.81l3.7-3.73v-7.34l-3.77-3.76H105.4v4.61h1.52v15.42h-1.52v4.57zm3.26-13.54l1.63-1.62v-4.05l-1.59-1.59H112v7.27zm-4.81-.81v-5.64h4.37l1.3 1.29v3l-1.3 1.33zm15.5 10.85v-17.55l4.14-4.13h11.4l4.14 4.13v17.56l-4.14 4.13h-11.4zm4.37 3.47h11l3.7-3.69v-17.07l-3.77-3.76h-10.93L129 168v17.15zm2.92-3.72h5.11l1.59-1.59v-13.83l-1.63-1.62h-5.07L134 169.7v13.87zm-.81-2.07v-12.91l1.3-1.29h4.14l1.3 1.29v12.91l-1.3 1.29h-4.14zm15.02 6.45v-5.79h1.55v-14.2h-1.55v-5.83h16l4.14 4.13v6.64l-1.7 1.66 1.7 1.7v5.9h1.55v5.79h-8.66v-9.7l-.81-.77h-3.59v4.68H160v5.79zm9.58-.63v-4.57h-1.55v-5.9h4.51l1.15 1.14v9.33h7.36v-4.57h-1.52v-6.23l-2-2 2-2v-6l-3.77-3.76h-15.13v4.57h1.52v15.42h-1.52v4.57zm3.26-14.2l1.63-1.62v-3.43l-1.59-1.55h-5.62v6.6zm-4.81-.81v-5h4.33l1.33 1.33v2.36l-1.33 1.29zm15.5-2.83v-7.34h21.87v7.34h-5.85v-1.51h-1.52v14.2h1.52v5.79h-10.21v-5.79h1.55v-14.2h-1.55v1.51zm5.18-.59v-1.55h2.81v15.42h-1.55v4.57h9v-4.57h-1.55v-15.42H190v1.55h4.55v-6.12H174v6.12zM198 185.41v-4.94h7.1v2.43l.89.85h3.7l.85-.81v-2.54l-.81-.77h-7.58l-4.15-4.14v-7.63l4.14-4.13h11.4l4.14 4.13v5.09h-7.14v-2.58l-.81-.81h-3.85l-.78.81V173l.81.81h7.62l4.14 4.13v7.49l-4.14 4.13h-11.4zm4.33 3.5h11l3.7-3.65V178l-3.66-3.62h-7.62l-1.26-1.29v-2.91l1.26-1.29h4.11l1.29 1.29v2.1h5.88V168l-3.66-3.65h-11.1l-3.59 3.65v7.34l3.66 3.65h7.58l1.29 1.25v2.8l-1.33 1.29h-4l-1.29-1.29v-2h-5.88v4.17zM86 211.86v-3.33h.8v-8.16H86V197h4.26l3.1 5.74 3.06-5.74h4.27v3.35h-.8v8.16h.8v3.33h-5.24v-3.33h.78v-3.86L93.34 210l-2.91-5.36v3.86h.8v3.33zm4.92-.36v-2.63h-.8v-5.37l3.23 6 3.21-6.25v5.58h-.8v2.63h4.62v-2.63h-.8V200h.8v-2.63h-3.89l-3.15 5.89-3.17-5.89h-3.86V200h.78v8.86h-.78v2.63zm10.95.36v-3.33h.8l2.43-8.16h-.59V197h7.07v3.35h-.67l2.43 8.16h.78v3.33H109v-3.33h.46l-.21-.7h-2.55l-.23.7h.53v3.33zm4.77-.36v-2.63h-.49l.3-1.38h3.12l.28 1.38h-.49v2.63h4.46v-2.63h-.76l-2.54-8.87h.74v-2.63h-6.42V200h.65l-2.55 8.86h-.74v2.63zm2.79-5.7L108 201l-1.46 4.83zm-2.24-.42l.82-2.95.8 2.95zm7.62 6.48v-3.33h.8v-8.16h-.8V197h4.31l3.67 6.8v-3.46H122V197h5.24v3.35h-.8v8.16h.8v3.33h-4.39l-3.59-6.63v3.31h.8v3.33zm4.92-.34v-2.65h-.8v-4.92l4.07 7.57h3.91v-2.65h-.8V200h.8v-2.63h-4.6V200h.8v5.07l-4.11-7.69h-3.84V200h.78v8.86h-.78v2.65zm8.45.34v-3.33h.8l2.43-8.16h-.59V197h7.07v3.35h-.66l2.43 8.16h.78v3.33h-5.09v-3.33h.46l-.21-.7H133l-.23.7h.46v3.33zm4.77-.36v-2.63h-.49l.3-1.38h3.12l.28 1.38h-.49v2.63h4.46v-2.63h-.76l-2.54-8.87h.74v-2.63h-6.42V200h.65l-2.55 8.86h-.74v2.63zm2.79-5.7l-1.42-4.8-1.46 4.83zm-2.24-.42l.82-2.95.8 2.95zm8.16 4.1v-10.09l2.13-2.37h5.81l2.15 2.4v3.29h-3.67v-1.87l-.42-.47h-1.94l-.42.47V208l.44.49h1.92l.42-.47v-1.42h-1v-3h4.67v5.83l-2.15 2.42h-5.81zm2.24 2h5.6l1.9-2.12V204h-4v2.31h1v1.84l-.67.74h-2.07l-.67-.74v-7.38l.67-.74h2.07l.67.74v1.61h3v-2.84l-1.92-2.14h-5.6l-1.88 2.1v9.86zm18.35.02v-3.22h-2.35v.59h-3v-3.14h1.18v.59h2.36v-3.77h-2.36v.59h-1.18V200h3v.59h2.36v-3.22h-9.12V200h.78v8.86h-.78v2.63zm-8.7-.47v-1.7h.78v-9.79h-.78v-1.7h8.3v2.29h-1.54v-.59h-3.78v4h2V203H160v2.88h-1.52v-.59h-2v4h3.78v-.59h1.54v2.3zm14.45.47v-2.63h-.8v-5.37l3.23 6 3.21-6.25v5.58h-.8v2.63h4.62v-2.63h-.8V200h.8v-2.63h-3.88l-3.15 5.89-3.17-5.89h-3.86V200h.78v8.86h-.78v2.63zm-4.18-.47v-1.7h.78v-9.79h-.78v-1.7h2.95l3.67 6.78 3.65-6.78h3v1.7h-.82v9.79h.82V211h-3.8v-1.7h.8v-7.46l-3.63 6.76-3.63-6.76v7.46h.8v1.7zm24.61.47v-3.22h-2.36v.59h-3v-3.14h1.18v.59h2.36v-3.77h-2.36v.59h-1.18V200h3v.59h2.36v-3.22h-9.12V200h.78v8.86h-.78v2.63zm-8.7-.47v-1.7h.78v-9.79h-.78v-1.7H188v2.29h-1.5v-.59h-3.78v4h2V203h1.52v2.88h-1.52v-.59h-2v4h3.78v-.59h1.5v2.3zm14.48.49v-2.65h-.8v-4.92l4.07 7.57h3.91v-2.65h-.8V200h.8v-2.63h-4.6V200h.8v5.07l-4.14-7.69h-3.84V200h.78v8.86h-.78v2.65zM190 211v-1.7h.78v-9.79H190v-1.7h3.06L198 207v-7.42h-.82v-1.7H201v1.7h-.82v9.79h.82V211h-3.17l-4.83-8.92v7.25h.8V211zm15.17-10.1v-.9h1.44v8.86h-.8v2.63h4.62v-2.63h-.8V200h1.44v.89h2.34v-3.52h-10.57v3.52zm-1.92-.47v-2.58H213v2.58h-1.54v-.89h-2.24v9.79h.78V211h-3.78v-1.7h.8v-9.79h-2.28v.89zM84.85 240v-4.74H92v2.33l.89.81h3.7l.85-.78v-2.44l-.81-.74H89l-4.14-4v-7.32l4.14-4h11.4l4.14 4V228h-7.15v-2.48l-.81-.78h-3.85l-.78.78v2.51l.81.78h7.62l4.14 4V240l-4.14 4H89zm4.33 3.36h11l3.7-3.5v-6.93l-3.66-3.47h-7.6l-1.26-1.24v-2.79l1.26-1.24h4.11l1.3 1.24v2h5.88v-4.14l-3.66-3.5H89.14l-3.66 3.5v7l3.66 3.5h7.58L98 235v2.69L96.69 239h-4l-1.29-1.24v-1.87h-5.92v4zm17.94-3.36v-16.86l4.14-4h11.4l4.14 4v5.52h-7.14v-3.11l-.81-.78H115l-.81.78v12l.85.81h3.77l.81-.78v-3h7.14V240l-4.14 4h-11.4zm4.4 3.36h11l3.66-3.5v-4.63h-5.88v2.51L119 239h-4.07l-1.29-1.24v-12.35l1.29-1.24H119l1.3 1.24v2.72h5.88v-4.85l-3.7-3.54h-11.06l-3.66 3.54v16.45zm16.84.59v-5.55h1.55v-13.63h-1.55v-5.59h10.21v5.59H137v3.4h5.07v-3.4h-1.57v-5.59h10.25v5.59h-1.52v13.62h1.52v5.55H140.5v-5.55h1.59v-4.14H137v4.14h1.55v5.55zm9.58-.6V239h-1.55v-5.31h6.33V239h-1.55v4.39h9V239h-1.59v-14.83h1.59v-4.39h-9v4.39h1.55v4.6h-6.33v-4.6h1.55v-4.39h-9v4.39h1.52V239H129v4.39zM152.3 240v-16.86l4.14-4h11.4l4.14 4V240l-4.14 4h-11.4zm4.37 3.33h11l3.7-3.54v-16.4l-3.77-3.61h-10.93l-3.7 3.54v16.45zm2.92-3.57h5.11l1.59-1.52v-13.29l-1.63-1.56h-5.07l-1.59 1.52v13.3zm-.81-2v-12.39l1.29-1.24h4.14l1.29 1.24v12.38l-1.28 1.25h-4.14zm16.05 2.24v-16.86l4.14-4h11.4l4.14 4V240l-4.14 4H179zm4.37 3.33h11l3.7-3.54v-16.4l-3.77-3.61H179.2l-3.7 3.54v16.45zm2.92-3.57h5.11l1.59-1.52v-13.29l-1.63-1.56h-5.07l-1.59 1.52v13.3zm-.81-2v-12.39l1.29-1.24h4.14l1.29 1.24v12.38l-1.28 1.25h-4.14zm15.28 6.19v-5.55h1.55v-13.63h-1.55v-5.59h10.21v5.59h-1.55v13.62h4.66v-1.49h5.85v7zm18.54-.6v-5.8h-4.59V239h-6v-14.83h1.59v-4.39h-9v4.39h1.55V239h-1.52v4.39z"/></svg>