<svg id="Calque_1" data-name="Calque 1" xmlns="http://www.w3.org/2000/svg" viewBox="0 0 512 512"><defs><style>.cls-1{fill:none}.cls-2{fill:#fff}</style></defs><title>procom</title><path class="cls-1" d="M256 512c141.39 0 256-114.62 256-256S397.39 0 256 0 0 114.61 0 256s114.62 256 256 256"/><path class="cls-2" d="M420.49 250.89l8.2 6.32 17.16-22.22.06-.05-.02-.01.12-.14-.54-.41-16.88-21.86-8.2 6.32 12.42 16.09-12.32 15.96zM82.68 234.38L65.8 212.52l-8.2 6.32 12.42 16.09-12.32 15.96 8.19 6.32 17.17-22.22.05-.05-.01-.01.11-.14-.53-.41zm48.32.34c0 5.95-2.13 12.31-8.1 12.31-3.23 0-5.81-2.18-6.75-5.7a10.3 10.3 0 0 1-.3-2.73v-7.37a12.63 12.63 0 0 1 .31-2.43c.8-3.51 3.77-6.16 6.9-6.16 4.82 0 7.94 4.74 7.94 12.07m-4.78-21.2a14 14 0 0 0-11.49 5.35l-.39-4.54h-9.84v.75c.16 3.46.32 7.6.32 12.84v43.14h11v-18.8a12.47 12.47 0 0 0 9.23 3.75c8.46 0 17-6.68 17-21.61 0-12.29-6.52-20.88-15.86-20.88m57.64.01a11.3 11.3 0 0 0-9.62 6.07l-.3-5.26h-9.78v.76c.16 3.37.32 7.37.32 12.19v27.92h11v-21.29a17.49 17.49 0 0 1 .31-3.1c.83-4.13 3.75-6.7 7.63-6.7a11.1 11.1 0 0 1 2.43.23l.88.19v-10.77l-.91-.1a16 16 0 0 0-2-.14m39.78 8.48c6.07 0 7.7 8 7.7 12.71 0 6.16-2.41 12.8-7.7 12.8s-7.86-6.39-7.86-12.71c0-5.9 2.06-12.79 7.86-12.79m13.28 28.47c3.4 3.48 8.2 5.44 14 5.44a24.68 24.68 0 0 0 10.15-1.86l.48-.24-1.48-8.63-.84.36a16 16 0 0 1-6.43 1.32c-6.25 0-10.28-4.74-10.28-12.07 0-3.9 1.13-7.26 3.31-9.46a9.54 9.54 0 0 1 7-2.76 14.18 14.18 0 0 1 6.17 1.31l.82.39 1.94-8.83-.55-.24a23.59 23.59 0 0 0-8.71-1.6c-6.2 0-11.4 2.09-15.08 5.74a17.52 17.52 0 0 0-13.51-5.82c-11.7 0-19.26 8.42-19.26 21.44 0 12.58 7.51 21 18.69 21a18.84 18.84 0 0 0 13.6-5.52m69.86-15.73c0 6.16-2.41 12.79-7.69 12.79s-7.86-6.39-7.86-12.71c0-5.9 2.06-12.79 7.86-12.79 6.07 0 7.69 8 7.69 12.71m-7.45-21.2c-11.7 0-19.26 8.42-19.26 21.44 0 12.58 7.51 21 18.69 21 8.85 0 19.18-5.64 19.18-21.53 0-12.53-7.48-21-18.61-21m85.8 41.76h10.83v-24.6c0-10.69-4.81-17.07-12.86-17.07a13.79 13.79 0 0 0-7.68 2.14 15.77 15.77 0 0 0-4.11 4 11.2 11.2 0 0 0-10.39-6.16 13.3 13.3 0 0 0-10.9 5.25l-.33-4.44H340v.76c.16 3.45.32 7 .32 11.54v28.57h10.83v-24.51a9.61 9.61 0 0 1 .45-3c.76-2.41 2.81-4.84 5.7-4.84 4.49 0 5.43 4.45 5.43 8.18v24.2h10.83v-24.86a9.2 9.2 0 0 1 .37-3c.75-2.19 2.62-4.53 5.63-4.53 3.66 0 5.51 3.11 5.51 9.23zm-208.84 36.45a4.1 4.1 0 0 1-2.82 1.41c-3 0-4-1.54-4-6.25 0-4.88 1.11-7 3.68-7a4.78 4.78 0 0 1 3.12 1.41zm5.6-25.07l-5.69-.9v7.53a26.48 26.48 0 0 0 .17 3.25 5.91 5.91 0 0 0-3.89-1.24c-5.56 0-9.37 4.7-9.37 11.55s3.51 11.12 9.07 11.12a7.36 7.36 0 0 0 5-1.84 3.87 3.87 0 0 0 .34 1.28h5.13c-.38-.85-.81-2.61-.81-8zm6.77 30.76h5.74v-22.42l-5.74.9v21.52zm2.95-31.49a3.58 3.58 0 0 0-3.59 3.55 3.53 3.53 0 1 0 7.06 0 3.5 3.5 0 0 0-3.47-3.55m17.21 19.77c-2 0-3.38-.9-3.38-3.12 0-2.06 1.24-3.25 3.42-3.25s3.47 1.2 3.47 3.25-1.24 3.12-3.51 3.12m13.65-7.79l-2.42-3.63a6.89 6.89 0 0 1-4.54 1.88 11.53 11.53 0 0 1-2.69-.47 15.7 15.7 0 0 0-3.94-.56c-5.6 0-9.24 2.91-9.24 7.4a5.68 5.68 0 0 0 4.71 6.08c-3.59.94-4 2.27-4 3.68a2.79 2.79 0 0 0 1.67 2.87 15.57 15.57 0 0 0 5.26.68h2.44c2.27 0 4 .64 4 2.61a2.66 2.66 0 0 1-1.41 2.22 6.91 6.91 0 0 1-3.6.73c-2.65 0-4.11-.94-4.11-2.69a3.09 3.09 0 0 1 .26-1.41h-5.31a4.39 4.39 0 0 0-.51 2.22 5.14 5.14 0 0 0 1.8 3.89c2 1.84 5.18 2.35 8.3 2.35 3.42 0 6.72-.77 8.64-2.82a6.23 6.23 0 0 0 1.75-4.54 6 6 0 0 0-1.88-4.66c-1.54-1.41-3.29-1.93-6.63-2h-3.08c-.6 0-.94-.21-.94-.51 0-.6.81-1.11 2.27-1.8a6.84 6.84 0 0 0 .86 0c4.66 0 8.09-2.74 8.09-6.5a5.29 5.29 0 0 0-1.28-3.59 12.3 12.3 0 0 0 1.5.13 5.45 5.45 0 0 0 4-1.63m5.37-11.91a3.58 3.58 0 0 0-3.59 3.55 3.53 3.53 0 1 0 3.59-3.55m-2.95 31.49h5.74v-22.42l-5.74.9v21.52zm19.98-3.46c-2 0-2.48-.73-2.48-3.51v-11H246l1.45-3.94h-5.13a65.52 65.52 0 0 1 .34-6.63l-5.82 1.45a37.9 37.9 0 0 0-.21 5.18h-2.18v3.94h2.18v11.89a8 8 0 0 0 .39 3.38c.68 1.93 3 3.21 5.9 3.21a12 12 0 0 0 4.66-1l-.73-3.42a7.52 7.52 0 0 1-2.05.43m17.11-1.4a4.15 4.15 0 0 1-3 1.5 2.6 2.6 0 0 1-2.52-2.87c0-2.61 1.37-3.34 5.35-3.34h.26zm5.69-2v-.39l.13-7.36a10.12 10.12 0 0 0-.38-3.94c-.86-2.44-3.38-3.81-7.06-3.81a14.8 14.8 0 0 0-6 1.28 21 21 0 0 0-3.55 1.8l2.44 4.11c2.35-1.58 4.49-2.48 6.33-2.48 2.1 0 2.57.81 2.57 3.25v.9h-1.28c-7 0-10.53 2.4-10.53 7.53 0 4.36 2.65 6.84 7.53 6.84a7.59 7.59 0 0 0 4.41-1.2 10.66 10.66 0 0 0 1.33-1.16 6.14 6.14 0 0 0 3.08 2.65l3-3.51c-1.67-1.24-2.05-2.14-2.05-4.49m13.68 3.44a1.31 1.31 0 0 1-1.16-.6c-.34-.6-.38-1.11-.38-4.88v-17.07a32.69 32.69 0 0 0-.3-5.69l-5.86 1.33a56.91 56.91 0 0 1 .3 6.59v16.35c0 3.12.08 3.81.51 4.92.69 1.84 2.65 3 5.09 3a9.59 9.59 0 0 0 3.42-.6l-1-3.42a1.88 1.88 0 0 1-.64.09m26.64-1.48a4.15 4.15 0 0 1-3 1.5 2.6 2.6 0 0 1-2.52-2.87c0-2.61 1.37-3.34 5.35-3.34h.3zm5.69-2v-.39l.13-7.36a10.13 10.13 0 0 0-.39-3.94c-.86-2.44-3.38-3.81-7.06-3.81a14.8 14.8 0 0 0-6 1.28 21 21 0 0 0-3.55 1.8l2.44 4.11c2.35-1.58 4.49-2.48 6.33-2.48 2.1 0 2.57.81 2.57 3.25v.9h-1.29c-7 0-10.52 2.4-10.52 7.53 0 4.36 2.65 6.84 7.53 6.84a7.58 7.58 0 0 0 4.41-1.2 10.66 10.66 0 0 0 1.33-1.16 6.15 6.15 0 0 0 3.08 2.65l3-3.51c-1.67-1.24-2.05-2.14-2.05-4.49m19.12 1.21a5.85 5.85 0 0 1-3.94 1.8 3.31 3.31 0 0 1-2.57-1.24c-.73-.94-1.11-2.65-1.11-5.52 0-5.13 1.15-7.36 3.72-7.36a5.52 5.52 0 0 1 3.46 1.71l2.78-3.77a9.72 9.72 0 0 0-2.14-1.54 9.38 9.38 0 0 0-4.24-1 10.37 10.37 0 0 0-5.43 1.63c-2.57 1.75-4.49 5.09-4.49 10.14 0 7.1 3.51 11.29 9.54 11.29a10.26 10.26 0 0 0 5.35-1.37 9 9 0 0 0 2-1.63l-2.57-3.44zm16.99.77a4.15 4.15 0 0 1-3 1.5 2.6 2.6 0 0 1-2.52-2.87c0-2.61 1.37-3.34 5.35-3.34h.26zm5.69-2v-.39l.13-7.36a10.17 10.17 0 0 0-.39-3.94c-.86-2.44-3.38-3.81-7.06-3.81a14.8 14.8 0 0 0-6 1.28 21.07 21.07 0 0 0-3.55 1.8l2.44 4.11c2.35-1.58 4.49-2.48 6.33-2.48 2.1 0 2.57.81 2.57 3.25v.9h-1.28c-7 0-10.52 2.4-10.52 7.53 0 4.36 2.65 6.84 7.53 6.84a7.58 7.58 0 0 0 4.41-1.2 10.77 10.77 0 0 0 1.33-1.16 6.14 6.14 0 0 0 3.08 2.65l3-3.51c-1.67-1.24-2.05-2.14-2.05-4.49m18.3 1.17a4.1 4.1 0 0 1-2.82 1.41c-3 0-4-1.54-4-6.25 0-4.88 1.11-7 3.68-7a4.78 4.78 0 0 1 3.12 1.41zm5.6-25.07l-5.69-.9v7.53a26.47 26.47 0 0 0 .17 3.25 5.91 5.91 0 0 0-3.89-1.24c-5.56 0-9.37 4.7-9.37 11.55s3.51 11.12 9.07 11.12a7.36 7.36 0 0 0 5-1.84 3.83 3.83 0 0 0 .34 1.28H380c-.39-.85-.81-2.61-.81-8zm18.2 17.43h-6.63v-.09c0-3 1.24-4.75 3.42-4.75a2.77 2.77 0 0 1 2.53 1.28 5.65 5.65 0 0 1 .69 3.29zm-3.29-9a8.61 8.61 0 0 0-6.89 3c-1.93 2.14-2.74 4.75-2.74 8.69 0 6.89 4.07 11.34 10.36 11.34a12.57 12.57 0 0 0 8.26-3l-2.23-3.42a8.56 8.56 0 0 1-5.56 2.18c-3 0-4.62-1.93-4.62-5.31v-.17h12.66v-1.32c0-4.58-.9-7.53-2.91-9.58a9 9 0 0 0-6.33-2.31m40.47 1.31a6.78 6.78 0 0 0-4.32-1.37 8 8 0 0 0-6.2 2.87 7.31 7.31 0 0 0-.86-1.07 5.93 5.93 0 0 0-4.45-1.8 7.54 7.54 0 0 0-5.35 2.22 5.54 5.54 0 0 0-.77-2.22l-5.18 1.41c.6 1.07.81 2.44.81 5.6v15.27h5.61v-16a6.06 6.06 0 0 1 3.76-1.67c1.58 0 2 .64 2 3.38v14.25H425v-15.69a6.52 6.52 0 0 1 3.81-1.84c1.5 0 1.8.51 1.8 3.12v14.46h5.56v-15.57c0-3-.38-4.28-1.63-5.35m20.4-.98l-3.3 10.44c-.34 1-.68 2.31-.85 3-.26 1.07-.68 3.51-.68 3.51s-.77-3.21-1.16-4.53l-3.81-12.79-5.86.68 5.18 15.4c.21.69 1.37 4.11 2.05 6.16H448a13 13 0 0 1-1.24 2.57 6.59 6.59 0 0 1-1.63 1.8 12.76 12.76 0 0 1-3.55 1.45l2 3.77a11.55 11.55 0 0 0 5.31-2c1.58-1.15 2.7-3 4.19-7.23l8-22.25z"/></svg>