<svg id="Calque_1" data-name="Calque 1" xmlns="http://www.w3.org/2000/svg" viewBox="0 0 630.48 295.1"><defs><style>.cls-1{fill:none}.cls-2{clip-path:url(#clip-path)}.cls-3{fill:#020000}.cls-4{fill:#db2032}.cls-5{fill:#fff}</style><clipPath id="clip-path"><path class="cls-1" d="M.12 0h630.36v295.1H.12z"/></clipPath></defs><title>logo-polycom-color</title><g class="cls-2"><path class="cls-3" d="M630.48 295.1H0V0h630.48v295.1z"/></g><path class="cls-4" d="M384.15 147.55c0 28.53-22.92 51.66-51.2 51.66s-51.2-23.13-51.2-51.66S304.67 95.88 333 95.88s51.2 23.13 51.2 51.67"/><path class="cls-5" d="M190.21 173.41c-6.32 0-7.9-4.59-7.9-25.92 0-14.55.6-21.9 7.9-21.9s7.89 7.35 7.89 21.9c0 21.33-1.57 25.92-7.89 25.92zm-48.12.41c-5.82 0-6.92-7.34-6.92-24.93 0-14-.12-23.7 6.92-23.7 7.41 0 7.29 9.7 7.29 23.7 0 17.59-1.09 24.93-7.29 24.93zm48.12-60.69c-17.33 0-22.79 9.64-24.39 22.77-.91-11.63-4.3-22.77-16.8-22.77-6.55 0-11.3 2.35-14.45 9.16h-.25v-7.77H118v89.24h17.13v-25.91h.24c3.53 6 7.78 8 14 8 12.52 0 15.69-11.46 16.5-23.14 1.72 14.09 7.38 23.15 24.32 23.15 22.12 0 25-15.39 25-37.27 0-19.13-2.43-35.48-25-35.48zm217.13 60.28c-6.32 0-7.9-4.59-7.9-25.92 0-14.55.62-21.9 7.9-21.9s7.89 7.35 7.89 21.9c0 21.33-1.58 25.92-7.89 25.92zm-74.25 19.07c-24.12 0-43.74-20.22-43.74-45.08 0-24.69 19.62-44.78 43.74-44.78 24 0 43.44 20.09 43.44 44.78 0 24.85-19.48 45.08-43.44 45.08zm74.25-79.36c-11.79 0-18.08 4.46-21.41 11.44a58.51 58.51 0 0 0-12.3-18.87 56.69 56.69 0 0 0-81.28 0 58.39 58.39 0 0 0-8.44 11l.51-2.16H267.9l-9.24 49.19h-.24l-8.74-49.19h-14.32V91.84h-17.13v92.66h17.13v-58.6l14 59.14-3.94 18.71h18l12.36-52.35c2 30.76 27 55.17 57.38 55.17 23 0 42.91-14.14 52-34.45 3.09 8.6 9.46 13.77 22.27 13.77 22.11 0 25-15.39 25-37.28 0-19.12-2.43-35.48-25-35.48zm44.98 23.15c0-6.23 1-11.09 6.44-11.09s6.43 4.86 6.43 11.09v48.23H482v-48.23c0-6.23 1-11.09 6.44-11.09s6.44 4.86 6.44 11.09v48.23H512v-56.13c0-9.7-7.17-15.24-15.31-15.24-7 0-11.9 2.78-15.91 8.86-2.81-5.53-7.67-8.86-13.74-8.86-6.44 0-11.06 2.22-14.45 8.45h-.24v-7.06h-17.16v70h17.13v-48.25z"/><path class="cls-5" d="M333.37 114.56a33.33 33.33 0 0 0 0 66.65 32.85 32.85 0 0 0 21.49-8l1.26-1.08-1.12-1.23-7.77-8-1-1-1.1.89a19 19 0 0 1-12 4.3c-10.42 0-18.56-8.44-18.56-19.18s8.14-19.21 18.56-19.21a18.89 18.89 0 0 1 12.39 4.65l.94.81 1-.73 9.09-6.73 1.46-1.08-1.28-1.29a32.66 32.66 0 0 0-23.34-9.76zM459 201.38c-3.22-1.79-4-2.44-4-3.86 0-1.62 1.49-2.82 3.55-2.82a8.25 8.25 0 0 1 3.36.82l.65-2.64a15 15 0 0 0-4.29-.69c-4 0-6.69 2.34-6.69 5.8a5.24 5.24 0 0 0 .69 2.64c.68 1.19 1.83 2.06 4.34 3.42 3.08 1.69 4 2.61 4 4.21 0 2-1.68 3.26-4.26 3.26a9 9 0 0 1-4.32-1.09l-.69 2.76a17.35 17.35 0 0 0 5.32.9c4.46 0 7.34-2.54 7.34-6.42a5.9 5.9 0 0 0-.53-2.49c-.68-1.37-1.86-2.39-4.48-3.8zm18 3.96h-5.81l3.14-9 3 9zm5.23 4.14L476 192.76h-3.36a23.43 23.43 0 0 1-1.27 3.93l-5.08 13.17a25 25 0 0 1-1.68 3.8h3.85l.07-.26a23.39 23.39 0 0 1 .75-2.47l1-3h.38l1.81-.06h3.71l1.7.06h.31l.9 2.69.25.92.29 1a6 6 0 0 1 .25 1.1H484l-.13-.26a28.68 28.68 0 0 1-1.67-3.91zm19.69-14.4l-.23 1.13-2.4 12.52-3.79-16h-3l-3.81 16-2.55-12.73a20 20 0 0 1-.43-3.26h-4.11a19.48 19.48 0 0 1 1.15 3.8l4.13 17.1h3.06l3.85-16.16 3.86 16.16h3.09l4-17.13a31.52 31.52 0 0 1 1.13-3.77h-3.67a20 20 0 0 1-.3 2.33zm10.31.82a19.92 19.92 0 0 1 .22-3.14h-3.86a18.69 18.69 0 0 1 .22 3.14v14.62a22.18 22.18 0 0 1-.2 3.14h3.83a19.69 19.69 0 0 1-.22-3.18V195.9z"/></svg>