<svg id="Calque_1" data-name="Calque 1" xmlns="http://www.w3.org/2000/svg" viewBox="0 0 512 512"><defs><style>.cls-1{fill:#384e9e}.cls-2,.cls-4,.cls-6{fill:none}.cls-2{stroke:#868a91;stroke-width:9.6px}.cls-2,.cls-4{stroke-linecap:round;stroke-linejoin:round}.cls-3{fill:#fff}.cls-4{stroke:#fff;stroke-width:4.8px}.cls-5{fill:#b62026}.cls-6{stroke:#87807c;stroke-width:.5px}</style></defs><title>sms</title><path class="cls-1" d="M88.48 218.36V195.6h32.6v11.2l4.08 3.91h17L146 207v-11.74l-3.73-3.57h-34.78l-19-19v-35.16l19-19h52.3l19 19V161H146v-11.92l-3.73-3.74h-17.63l-3.57 3.74v12.05l3.74 3.74h35l19 19v34.47l-19 19h-52.3zm19.87 16.13h50.6l17-16.81V184.4l-16.81-16.64h-35l-5.77-5.94V148.4l5.77-5.94H143l5.95 5.94v9.68h27v-19.87l-16.84-16.81h-50.94l-16.81 16.81V172l16.81 16.81H143l5.95 5.77v12.91l-6.11 5.94H124.3l-5.94-5.94v-9h-27v19.19zM95.1 215.13v-13.07h19.52v7.81l7.3 7.3h23.43l7.3-7.47v-17l-7.47-7.64h-34.3L95.1 169.29v-28.53l15.62-15.62h45.85l15.79 16v13.41h-19.7v-8.15l-7.47-7.64h-23.26l-7.3 7.3v18l7.3 7.3h34.64l15.79 16v27.85l-15.46 15.54h-46.35z"/><path class="cls-2" d="M88.48 218.36V195.6h32.6v11.2l4.08 3.91h17L146 207v-11.74l-3.73-3.57h-34.78l-19-19v-35.16l19-19h52.3l19 19V161H146v-11.92l-3.73-3.74h-17.63l-3.57 3.74v12.05l3.74 3.74h35l19 19v34.47l-19 19h-52.3zm19.87 16.13h50.6l17-16.81V184.4l-16.81-16.64h-35l-5.77-5.94V148.4l5.77-5.94H143l5.95 5.94v9.68h27v-19.87l-16.84-16.81h-50.94l-16.81 16.81V172l16.81 16.81H143l5.95 5.77v12.91l-6.11 5.94H124.3l-5.94-5.94v-9h-27v19.19zM95.1 215.13v-13.07h19.52v7.81l7.3 7.3h23.43l7.3-7.47v-17l-7.47-7.64h-34.3L95.1 169.29v-28.53l15.62-15.62h45.85l15.79 16v13.41h-19.7v-8.15l-7.47-7.64h-23.26l-7.3 7.3v18l7.3 7.3h34.64l15.79 16v27.85l-15.46 15.54h-46.35z"/><path class="cls-1" d="M185.94 239v-26.63h7.13V147h-7.13v-26.84h38l27.68 46 27.51-46h38.2V147h-7.13v65.38h7.13V239H270.5v-26.63h7v-30.91l-25.81 43-26-43v30.91h7.13V239zm44-2.88v-21.04h-7.13v-43l28.87 48.39 28.7-50.09v44.66h-7.13v21.06h41.26v-21.02h-7.13v-71h7.13V123h-34.67l-28.19 47.2-28.36-47.2h-34.46v21.1h7v71h-7v21.06zm-37.36-3.74v-13.56h7v-78.46h-7v-13.58h26.32l32.77 54.34 32.6-54.34h26.66v13.58h-7.3v78.45h7.3v13.59H277v-13.58h7.13V159l-32.43 54.17L219.22 159v59.77h7.13v13.63z"/><path class="cls-2" d="M185.94 239v-26.63h7.13V147h-7.13v-26.84h38l27.68 46 27.51-46h38.2V147h-7.13v65.38h7.13V239H270.5v-26.63h7v-30.91l-25.81 43-26-43v30.91h7.13V239zm44-2.88v-21.04h-7.13v-43l28.87 48.39 28.7-50.09v44.66h-7.13v21.06h41.26v-21.02h-7.13v-71h7.13V123h-34.67l-28.19 47.2-28.36-47.2h-34.46v21.1h7v71h-7v21.06zm-37.36-3.74v-13.56h7v-78.46h-7v-13.58h26.32l32.77 54.34 32.6-54.34h26.66v13.58h-7.3v78.45h7.3v13.59H277v-13.58h7.13V159l-32.43 54.17L219.22 159v59.77h7.13v13.63z"/><path class="cls-1" d="M321.78 218.36V195.6h32.6v11.2l4.08 3.91h17l3.91-3.73v-11.72l-3.74-3.57h-34.84l-19-19v-35.16l19-19h52.3l19 19V161h-32.75v-11.92l-3.74-3.74h-17.66l-3.57 3.74v12.05l3.74 3.74h35l19 19v34.47l-19 19h-52.3zm19.87 16.13h50.6l17-16.81V184.4l-16.81-16.64h-35l-5.77-5.94V148.4l5.77-5.94h18.85l5.95 5.94v9.68h27v-19.87l-16.82-16.81h-50.95l-16.81 16.81V172l16.81 16.81h34.81l5.95 5.77v12.91l-6.12 5.94h-18.5l-5.94-5.94v-9h-27v19.19zm-13.25-19.36v-13.07h19.53v7.81l7.3 7.3h23.43l7.3-7.47v-17l-7.47-7.64h-34.3l-15.79-15.77v-28.53l15.6-15.62h45.85l15.79 16v13.41H386v-8.15l-7.47-7.64h-23.3l-7.3 7.3v18l7.3 7.3h34.64l15.79 16v27.85l-15.46 15.54h-46.35z"/><path class="cls-2" d="M321.78 218.36V195.6h32.6v11.2l4.08 3.91h17l3.91-3.73v-11.72l-3.74-3.57h-34.84l-19-19v-35.16l19-19h52.3l19 19V161h-32.75v-11.92l-3.74-3.74h-17.66l-3.57 3.74v12.05l3.74 3.74h35l19 19v34.47l-19 19h-52.3zm19.87 16.13h50.6l17-16.81V184.4l-16.81-16.64h-35l-5.77-5.94V148.4l5.77-5.94h18.85l5.95 5.94v9.68h27v-19.87l-16.82-16.81h-50.95l-16.81 16.81V172l16.81 16.81h34.81l5.95 5.77v12.91l-6.12 5.94h-18.5l-5.94-5.94v-9h-27v19.19zm-13.25-19.36v-13.07h19.53v7.81l7.3 7.3h23.43l7.3-7.47v-17l-7.47-7.64h-34.3l-15.79-15.77v-28.53l15.6-15.62h45.85l15.79 16v13.41H386v-8.15l-7.47-7.64h-23.3l-7.3 7.3v18l7.3 7.3h34.64l15.79 16v27.85l-15.46 15.54h-46.35z"/><path class="cls-3" d="M88.48 218.36V195.6h32.6v11.21l4.08 3.9h17L146 207v-11.74l-3.74-3.56h-34.77l-19-19v-35.17l19-19h52.3l19 19V161H146v-11.92l-3.74-3.74h-17.62l-3.56 3.74v12.06l3.73 3.73h35l19 19v34.47l-19 19h-52.3zm19.87 16.13h50.6l17-16.81V184.4l-16.81-16.64h-35l-5.77-5.94V148.4l5.77-5.95H143l5.95 5.95v9.68h27v-19.87l-16.84-16.81h-50.94l-16.81 16.81V172l16.81 16.81H143l5.95 5.77v12.91l-6.11 5.94H124.3l-5.94-5.94v-9h-27v19.19zM95.1 215.13v-13.07h19.52v7.81l7.3 7.3h23.43l7.3-7.47v-17l-7.47-7.64h-34.3L95.1 169.28v-28.52l15.62-15.63h45.85l15.79 16v13.41h-19.7v-8.15l-7.47-7.64h-23.26l-7.3 7.3v18l7.3 7.3h34.64l15.79 16v27.85l-15.45 15.62h-46.36z"/><path class="cls-4" d="M88.48 218.36V195.6h32.6v11.21l4.08 3.9h17L146 207v-11.74l-3.74-3.56h-34.77l-19-19v-35.17l19-19h52.3l19 19V161H146v-11.92l-3.74-3.74h-17.62l-3.56 3.74v12.06l3.73 3.73h35l19 19v34.47l-19 19h-52.3zm19.87 16.13h50.6l17-16.81V184.4l-16.81-16.64h-35l-5.77-5.94V148.4l5.77-5.95H143l5.95 5.95v9.68h27v-19.87l-16.84-16.81h-50.94l-16.81 16.81V172l16.81 16.81H143l5.95 5.77v12.91l-6.11 5.94H124.3l-5.94-5.94v-9h-27v19.19zM95.1 215.13v-13.07h19.52v7.81l7.3 7.3h23.43l7.3-7.47v-17l-7.47-7.64h-34.3L95.1 169.28v-28.52l15.62-15.63h45.85l15.79 16v13.41h-19.7v-8.15l-7.47-7.64h-23.26l-7.3 7.3v18l7.3 7.3h34.64l15.79 16v27.85l-15.45 15.62h-46.36z"/><path class="cls-3" d="M185.94 237.37v-26.65h7.13v-65.38h-7.13v-26.82h38l27.68 46 27.51-46h38.2v26.83h-7.14v65.37h7.14v26.66H270.5v-26.66h7v-30.9l-25.81 43-26-43v30.9h7.13v26.66zm44-2.89v-21.05h-7.13v-43l28.87 48.39 28.69-50.09v44.66h-7.13v21.05h41.26v-21.01h-7.13v-71h7.13V121.4h-34.66l-28.19 47.21-28.35-47.21h-34.47v21.05h7v71h-7v21.05zm-37.36-3.73v-13.58h7v-78.45h-7v-13.59h26.32l32.77 54.34 32.6-54.34h26.66v13.58h-7.3v78.45h7.3v13.59H277v-13.58h7.13V157.4l-32.43 54.17-32.48-54.17v59.77h7.14v13.59z"/><path class="cls-4" d="M185.94 237.37v-26.65h7.13v-65.38h-7.13v-26.82h38l27.68 46 27.51-46h38.2v26.83h-7.14v65.37h7.14v26.66H270.5v-26.66h7v-30.9l-25.81 43-26-43v30.9h7.13v26.66zm44-2.89v-21.05h-7.13v-43l28.87 48.39 28.69-50.09v44.66h-7.13v21.05h41.26v-21.01h-7.13v-71h7.13V121.4h-34.66l-28.19 47.21-28.35-47.21h-34.47v21.05h7v71h-7v21.05zm-37.36-3.73v-13.58h7v-78.45h-7v-13.59h26.32l32.77 54.34 32.6-54.34h26.66v13.58h-7.3v78.45h7.3v13.59H277v-13.58h7.13V157.4l-32.43 54.17-32.48-54.17v59.77h7.14v13.59z"/><path class="cls-3" d="M321.78 218.36V195.6h32.6v11.21l4.08 3.9h17l3.9-3.73v-11.72l-3.73-3.56H340.8l-19-19v-35.17l19-19h52.3l19 19V161h-32.76v-11.92l-3.73-3.74h-17.67l-3.57 3.74v12.06l3.74 3.73h35l19 19v34.47l-19 19H340.8zm19.86 16.13h50.6l17-16.81V184.4l-16.81-16.64h-35l-5.77-5.94V148.4l5.77-5.95h18.85l5.95 5.95v9.68h27v-19.87l-16.81-16.81h-50.94l-16.81 16.81V172l16.81 16.81h34.81l5.95 5.77v12.91l-6.11 5.94h-18.52l-5.94-5.94v-9h-27v19.19zm-13.24-19.36v-13.07h19.52v7.81l7.3 7.3h23.43l7.3-7.47v-17l-7.47-7.64h-34.3l-15.78-15.78v-28.52l15.6-15.63h45.85l15.79 16v13.41H386v-8.15l-7.47-7.64h-23.3l-7.3 7.3v18l7.3 7.3h34.64l15.79 16v27.85l-15.45 15.62h-46.36z"/><path class="cls-4" d="M321.78 218.36V195.6h32.6v11.21l4.08 3.9h17l3.9-3.73v-11.72l-3.73-3.56H340.8l-19-19v-35.17l19-19h52.3l19 19V161h-32.76v-11.92l-3.73-3.74h-17.67l-3.57 3.74v12.06l3.74 3.73h35l19 19v34.47l-19 19H340.8zm19.86 16.13h50.6l17-16.81V184.4l-16.81-16.64h-35l-5.77-5.94V148.4l5.77-5.95h18.85l5.95 5.95v9.68h27v-19.87l-16.81-16.81h-50.94l-16.81 16.81V172l16.81 16.81h34.81l5.95 5.77v12.91l-6.11 5.94h-18.52l-5.94-5.94v-9h-27v19.19zm-13.24-19.36v-13.07h19.52v7.81l7.3 7.3h23.43l7.3-7.47v-17l-7.47-7.64h-34.3l-15.78-15.78v-28.52l15.6-15.63h45.85l15.79 16v13.41H386v-8.15l-7.47-7.64h-23.3l-7.3 7.3v18l7.3 7.3h34.64l15.79 16v27.85l-15.45 15.62h-46.36z"/><path class="cls-5" d="M185.94 237.44v-26.66h7.13v-65.37h-7.13v-26.83h38l27.67 46 27.51-46h38.2v26.83h-7.13v65.37h7.13v26.66H270.5v-26.66h7v-30.9l-25.81 43-26-43v30.9h7.13v26.66zm44-2.89V213.5h-7.13v-43l28.86 48.39 28.7-50.09v44.7h-7.13v21.05h41.26V213.5h-7.13v-71h7.13v-21.04h-34.66l-28.19 47.21-28.35-47.21h-34.47v21.05h7v71h-7v21.05zm-37.36-3.74v-13.58h7v-78.45h-7V125.2h26.32l32.77 54.34 32.6-54.34h26.66v13.59h-7.3v78.45h7.3v13.58H277v-13.59h7.13v-59.77l-32.44 54.17-32.43-54.17v59.77h7.13v13.58zm-104.2-12.34v-22.75H121v11.21l4.08 3.9h17l3.91-3.73v-11.72l-3.74-3.56H107.4l-19-19v-35.18l19-19h52.3l19 19v23.43h-32.75v-11.88l-3.74-3.73h-17.66l-3.55 3.73v12.06l3.74 3.73h35l19 19v34.47l-19 19H107.4zm19.87 16.13h50.6l17-16.81v-33.28L159 167.87h-35l-5.77-5.94v-13.42l5.77-5.95h18.85l5.94 5.95v9.68h27v-19.86L159 121.51h-50.92l-16.81 16.82v33.79l16.81 16.81h34.81l5.94 5.77v12.9l-6.11 5.95h-18.51l-5.94-5.95v-9h-27v19.19zM95 215.25v-13.08h19.53V210l7.3 7.3h23.43l7.3-7.47v-17l-7.47-7.64H110.8L95 169.4v-28.53l15.62-15.62h45.85l15.79 16v13.41h-19.7v-8.15l-7.47-7.64h-23.26l-7.3 7.3v18l7.3 7.3h34.64l15.79 16v27.85l-15.45 15.62h-46.35zm226.87 3.12v-22.75h32.6v11.21l4.08 3.9h17l3.91-3.73v-11.72l-3.74-3.56h-34.83l-19-19v-35.18l19-19h52.3l19 19V161h-32.75v-11.91l-3.74-3.74H358l-3.57 3.74v12.06l3.74 3.73h35l19 19v34.47l-19 19h-52.3zm19.86 16.13h50.6l17-16.81v-33.28l-16.81-16.64h-35l-5.77-5.94v-13.42l5.77-5.95h18.85l5.94 5.95v9.68h27v-19.86l-16.81-16.81h-50.93l-16.81 16.81V172l16.81 16.81h34.81l5.94 5.77v12.92l-6.11 5.95H357.7l-5.94-5.95v-9h-27v19.19zm-13.24-19.36v-13.07H348v7.81l7.3 7.3h23.43l7.3-7.47v-17l-7.47-7.64h-34.3l-15.77-15.77v-28.53l15.62-15.63H390l15.79 16v13.42h-19.7v-8.15l-7.47-7.64h-23.3L348 146v18l7.3 7.3H390l15.79 16v27.85l-15.49 15.62h-46.36z"/><path class="cls-3" d="M141.19 307.58v-8.14h11.7v4l1.46 1.4h6.09l1.4-1.34v-4.19L160.5 298H148l-6.82-6.8v-12.53l6.82-6.8h18.77l6.82 6.8V287h-11.75v-4.2l-1.34-1.33h-6.34l-1.28 1.33v4.31l1.34 1.34h12.55l6.82 6.8v12.33l-6.82 6.8H148zm7.13 5.77h18.16l6.09-6v-11.92l-6-6H154l-2.07-2.12v-4.8l2.07-2.13h6.76l2.13 2.13V286h9.69v-7.11l-6-6h-18.32l-6 6V291l6 6h12.49l2.13 2.06v4.61l-2.19 2.13H154l-2.13-2.13v-3.22h-9.69v6.86zm-4.75-6.92v-4.68h7v2.79l2.62 2.61h8.41l2.62-2.67v-6.07l-2.68-2.73h-12.31l-5.66-5.68v-10.2l5.61-5.59h16.45l5.67 5.71v4.8h-7.07v-2.92l-2.68-2.73h-8.35l-2.62 2.61v6.44l2.62 2.61h12.43l5.67 5.71v10l-5.56 5.56h-16.63z"/><path class="cls-6" d="M141.19 307.58v-8.14h11.7v4l1.46 1.4h6.09l1.4-1.34v-4.19L160.5 298H148l-6.82-6.8v-12.53l6.82-6.8h18.77l6.82 6.8V287h-11.75v-4.2l-1.34-1.33h-6.34l-1.28 1.33v4.31l1.34 1.34h12.55l6.82 6.8v12.33l-6.82 6.8H148zm7.13 5.77h18.16l6.09-6v-11.92l-6-6H154l-2.07-2.12v-4.8l2.07-2.13h6.76l2.13 2.13V286h9.69v-7.11l-6-6h-18.32l-6 6V291l6 6h12.49l2.13 2.06v4.61l-2.19 2.13H154l-2.13-2.13v-3.22h-9.69v6.86zm-4.75-6.92v-4.68h7v2.79l2.62 2.61h8.41l2.62-2.67v-6.07l-2.68-2.73h-12.31l-5.66-5.68v-10.2l5.61-5.59h16.45l5.67 5.71v4.8h-7.07v-2.92l-2.68-2.73h-8.35l-2.62 2.61v6.44l2.62 2.61h12.43l5.67 5.71v10l-5.56 5.56h-16.63z"/><path class="cls-3" d="M176.16 314.38v-9.53h2.56v-23.39h-2.56v-9.6h26.38l6.82 6.8v12.81l-6.82 6.8h-12.12v6.56H193v9.53zm15.78-1v-7.53h-2.56v-8.56h12.86l6.09-6.13V279l-6.22-6.2H177.2v7.59h2.5v25.39h-2.5v7.53zm-13.4-1.38v-4.86H181v-28.05h-2.5v-4.86h22.85l5.6 5.59v10.5l-5.6 5.65h-13.24v11.18h2.56V312zm18.77-21l2.68-2.67v-6.63l-2.62-2.61h-9.26v12zm-7.92-1.33v-9.29h7.19l2.13 2.13v5l-2.13 2.19zm6.95-1l1.34-1.34v-4.53l-1.34-1.34h-5.91v7.23z"/><path class="cls-6" d="M176.16 314.38v-9.53h2.56v-23.39h-2.56v-9.6h26.38l6.82 6.8v12.81l-6.82 6.8h-12.12v6.56H193v9.53zm15.78-1v-7.53h-2.56v-8.56h12.86l6.09-6.13V279l-6.22-6.2H177.2v7.59h2.5v25.39h-2.5v7.53zm-13.4-1.38v-4.86H181v-28.05h-2.5v-4.86h22.85l5.6 5.59v10.5l-5.6 5.65h-13.24v11.18h2.56V312zm18.77-21l2.68-2.67v-6.63l-2.62-2.61h-9.26v12zm-7.92-1.33v-9.29h7.19l2.13 2.13v5l-2.13 2.19zm6.95-1l1.34-1.34v-4.53l-1.34-1.34h-5.91v7.23z"/><path class="cls-3" d="M214.91 307.58v-28.91l6.83-6.8h18.76l6.82 6.8v28.91l-6.82 6.8h-18.76zm7.19 5.71h18.1l6.09-6.08v-28.12l-6.22-6.19h-18L216 279v28.24zm-4.81-6.86v-26.6l5.6-5.59h16.51l5.61 5.59v26.6l-5.6 5.57h-16.52zm9.63.73h8.41l2.62-2.61v-22.79l-2.68-2.67h-8.35l-2.62 2.61v22.84zm-1.34-3.4v-21.27l2.13-2.13h6.82l2.13 2.13v21.26l-2.13 2.13h-6.82zm2.44 1.09h6.22l1.34-1.34V282.8l-1.34-1.33H228l-1.34 1.33v20.65z"/><path class="cls-6" d="M214.91 307.58v-28.91l6.83-6.8h18.76l6.82 6.8v28.91l-6.82 6.8h-18.76zm7.19 5.71h18.1l6.09-6.08v-28.12l-6.22-6.19h-18L216 279v28.24zm-4.81-6.86v-26.6l5.6-5.59h16.51l5.61 5.59v26.6l-5.6 5.57h-16.52zm9.63.73h8.41l2.62-2.61v-22.79l-2.68-2.67h-8.35l-2.62 2.61v22.84zm-1.34-3.4v-21.27l2.13-2.13h6.82l2.13 2.13v21.26l-2.13 2.13h-6.82zm2.44 1.09h6.22l1.34-1.34V282.8l-1.34-1.33H228l-1.34 1.33v20.65z"/><path class="cls-3" d="M250.31 314.38v-9.53h2.56v-23.39h-2.56v-9.6h26.38l6.82 6.8v10.94l-2.8 2.73 2.8 2.79v9.72h2.56v9.53h-14.25v-16l-1.34-1.27h-5.91v7.71h2.56v9.53zm15.78-1v-7.53h-2.56v-9.75H271l1.89 1.88v15.36H285v-7.53h-2.5v-10.26l-3.23-3.28 3.23-3.28v-9.9l-6.21-6.2h-24.94v7.53h2.5v25.39h-2.5v7.53zm-13.4-1.38v-4.86h2.5v-28.05h-2.5v-4.86h22.91l5.55 5.59v8.56l-3.84 3.89 3.84 3.89v11h2.56V312h-9.56v-14.57l-2.62-2.61h-9.26v12.33h2.56V312zm18.77-22l2.68-2.67v-5.65l-2.62-2.55h-9.26V290zm-7.92-1.34v-8.2h7.13l2.19 2.19v3.89l-2.19 2.13zm6.89-1l1.4-1.34v-3.4l-1.4-1.4h-5.85v6.13z"/><path class="cls-6" d="M250.31 314.38v-9.53h2.56v-23.39h-2.56v-9.6h26.38l6.82 6.8v10.94l-2.8 2.73 2.8 2.79v9.72h2.56v9.53h-14.25v-16l-1.34-1.27h-5.91v7.71h2.56v9.53zm15.78-1v-7.53h-2.56v-9.75H271l1.89 1.88v15.36H285v-7.53h-2.5v-10.26l-3.23-3.28 3.23-3.28v-9.9l-6.21-6.2h-24.94v7.53h2.5v25.39h-2.5v7.53zm-13.4-1.38v-4.86h2.5v-28.05h-2.5v-4.86h22.91l5.55 5.59v8.56l-3.84 3.89 3.84 3.89v11h2.56V312h-9.56v-14.57l-2.62-2.61h-9.26v12.33h2.56V312zm18.77-22l2.68-2.67v-5.65l-2.62-2.55h-9.26V290zm-7.92-1.34v-8.2h7.13l2.19 2.19v3.89l-2.19 2.13zm6.89-1l1.4-1.34v-3.4l-1.4-1.4h-5.85v6.13z"/><path class="cls-3" d="M289.06 284v-12.13h36V284h-9.63v-2.49h-2.5v23.38h2.5v9.53h-16.8v-9.53h2.56v-23.43h-2.56V284zm8.53-1v-2.55h4.63v25.39h-2.56v7.53h14.81v-7.53h-2.56v-25.41h4.63V283H324v-10.1h-33.9V283zm-6.15-1.33v-7.41h31.32v7.41h-4.93v-2.55h-7.19v28.06h2.5V312H301v-4.86h2.56v-28.05h-7.31v2.55z"/><path class="cls-6" d="M289.06 284v-12.13h36V284h-9.63v-2.49h-2.5v23.38h2.5v9.53h-16.8v-9.53h2.56v-23.43h-2.56V284zm8.53-1v-2.55h4.63v25.39h-2.56v7.53h14.81v-7.53h-2.56v-25.41h4.63V283H324v-10.1h-33.9V283zm-6.15-1.33v-7.41h31.32v7.41h-4.93v-2.55h-7.19v28.06h2.5V312H301v-4.86h2.56v-28.05h-7.31v2.55z"/><path class="cls-3" d="M329.76 307.58v-8.14h11.7v4l1.46 1.4H349l1.4-1.34v-4.19l-1.33-1.31h-12.48l-6.82-6.8v-12.53l6.82-6.8h18.77l6.82 6.8V287h-11.76v-4.2l-1.34-1.33h-6.34l-1.28 1.33v4.31l1.34 1.34h12.55l6.82 6.8v12.33l-6.82 6.8h-18.76zm7.13 5.77H355l6.09-6v-11.92l-6-6h-12.53l-2.07-2.12v-4.8l2.07-2.13h6.76l2.13 2.13V286h9.69v-7.11l-6-6h-18.31l-6 6V291l6 6h12.49l2.13 2.06v4.61l-2.19 2.13h-6.64l-2.13-2.13v-3.22h-9.69v6.86zm-4.75-6.92v-4.68h7v2.79l2.62 2.61h8.41l2.62-2.67v-6.07l-2.68-2.73H337.8l-5.66-5.68v-10.2l5.61-5.59h16.45l5.67 5.71v4.8h-7.07v-2.92l-2.68-2.73h-8.35l-2.62 2.61v6.44l2.62 2.61h12.43l5.67 5.71v10l-5.55 5.56h-16.64z"/><path class="cls-6" d="M329.76 307.58v-8.14h11.7v4l1.46 1.4H349l1.4-1.34v-4.19l-1.33-1.31h-12.48l-6.82-6.8v-12.53l6.82-6.8h18.77l6.82 6.8V287h-11.76v-4.2l-1.34-1.33h-6.34l-1.28 1.33v4.31l1.34 1.34h12.55l6.82 6.8v12.33l-6.82 6.8h-18.76zm7.13 5.77H355l6.09-6v-11.92l-6-6h-12.53l-2.07-2.12v-4.8l2.07-2.13h6.76l2.13 2.13V286h9.69v-7.11l-6-6h-18.31l-6 6V291l6 6h12.49l2.13 2.06v4.61l-2.19 2.13h-6.64l-2.13-2.13v-3.22h-9.69v6.86zm-4.75-6.92v-4.68h7v2.79l2.62 2.61h8.41l2.62-2.67v-6.07l-2.68-2.73H337.8l-5.66-5.68v-10.2l5.61-5.59h16.45l5.67 5.71v4.8h-7.07v-2.92l-2.68-2.73h-8.35l-2.62 2.61v6.44l2.62 2.61h12.43l5.67 5.71v10l-5.55 5.56h-16.64z"/><path class="cls-3" d="M145.23 351.12v-5.48h1.31V332.2h-1.31v-5.51h7l5.1 9.46 5.07-9.46h7v5.51h-1.31v13.44h1.31v5.48h-8.63v-5.48h1.28v-6.35l-4.75 8.83-4.79-8.83v6.35h1.32v5.48zm8.1-.59v-4.33H152v-8.83l5.32 9.94 5.29-10.3v9.18h-1.32v4.33h7.61v-4.32h-1.3v-14.59h1.32v-4.33h-6.39l-5.19 9.7-5.23-9.7h-6.35v4.33H147v14.59h-1.28v4.33zm-6.88-.77V347h1.28v-16.16h-1.28V328h4.85l6 11.17 6-11.17h4.91v2.79h-1.35V347h1.35v2.79H162V347h1.31v-12.32l-6 11.13-6-11.13V347h1.32v2.79z"/><path class="cls-6" d="M145.23 351.12v-5.48h1.31V332.2h-1.31v-5.51h7l5.1 9.46 5.07-9.46h7v5.51h-1.31v13.44h1.31v5.48h-8.63v-5.48h1.28v-6.35l-4.75 8.83-4.79-8.83v6.35h1.32v5.48zm8.1-.59v-4.33H152v-8.83l5.32 9.94 5.29-10.3v9.18h-1.32v4.33h7.61v-4.32h-1.3v-14.59h1.32v-4.33h-6.39l-5.19 9.7-5.23-9.7h-6.35v4.33H147v14.59h-1.28v4.33zm-6.88-.77V347h1.28v-16.16h-1.28V328h4.85l6 11.17 6-11.17h4.91v2.79h-1.35V347h1.35v2.79H162V347h1.31v-12.32l-6 11.13-6-11.13V347h1.32v2.79z"/><path class="cls-3" d="M171.38 351.12v-5.48h1.31l4-13.44h-1v-5.52h11.64v5.52h-1.09l4 13.44h1.28v5.48h-8.39v-5.48h.75l-.34-1.15h-4.19l-.37 1.15h.75v5.48zm7.85-.59v-4.33h-.81l.5-2.27h5.13l.47 2.27h-.81v4.33h7.35v-4.33h-1.25l-4.19-14.59h1.22v-4.33h-10.58v4.33h1.07l-4.19 14.59h-1.22v4.33zm-6.63-.77V347h.94l4.79-16.12H177V328h9.23v2.79h-1.53l4.74 16.21h.94v2.79h-6V347h1.19l-1.13-3.81h-6l-1.08 3.81h1.19v2.79zm11.23-8.62l-2.35-8-2.41 8zm-3.69-.7l1.35-4.85 1.31 4.85zm2.07-.63l-.72-2.34-.72 2.34z"/><path class="cls-6" d="M171.38 351.12v-5.48h1.31l4-13.44h-1v-5.52h11.64v5.52h-1.09l4 13.44h1.28v5.48h-8.39v-5.48h.75l-.34-1.15h-4.19l-.37 1.15h.75v5.48zm7.85-.59v-4.33h-.81l.5-2.27h5.13l.47 2.27h-.81v4.33h7.35v-4.33h-1.25l-4.19-14.59h1.22v-4.33h-10.58v4.33h1.07l-4.19 14.59h-1.22v4.33zm-6.63-.77V347h.94l4.79-16.12H177V328h9.23v2.79h-1.53l4.74 16.21h.94v2.79h-6V347h1.19l-1.13-3.81h-6l-1.08 3.81h1.19v2.79zm11.23-8.62l-2.35-8-2.41 8zm-3.69-.7l1.35-4.85 1.31 4.85zm2.07-.63l-.72-2.34-.72 2.34z"/><path class="cls-3" d="M192.69 351.12v-5.48H194V332.2h-1.32v-5.51h7.1l6 11.2v-5.69h-1.32v-5.51h8.64v5.51h-1.31v13.44h1.31v5.48h-7.23L200 340.19v5.44h1.32v5.48zm8.1-.56v-4.36h-1.31v-8.1l6.69 12.46h6.45v-4.36h-1.31v-14.59h1.31v-4.33H205v4.33h1.32V340l-6.82-12.67h-6.32v4.33h1.28v14.54h-1.28v4.36zm-6.88-.8V347h1.28v-16.16h-1.28V328h5l8.1 15v-12.16h-1.31V328h6.3v2.79h-1.35V347H212v2.79h-5.23L198.82 335v12h1.31v2.79z"/><path class="cls-6" d="M192.69 351.12v-5.48H194V332.2h-1.32v-5.51h7.1l6 11.2v-5.69h-1.32v-5.51h8.64v5.51h-1.31v13.44h1.31v5.48h-7.23L200 340.19v5.44h1.32v5.48zm8.1-.56v-4.36h-1.31v-8.1l6.69 12.46h6.45v-4.36h-1.31v-14.59h1.31v-4.33H205v4.33h1.32V340l-6.82-12.67h-6.32v4.33h1.28v14.54h-1.28v4.36zm-6.88-.8V347h1.28v-16.16h-1.28V328h5l8.1 15v-12.16h-1.31V328h6.3v2.79h-1.35V347H212v2.79h-5.23L198.82 335v12h1.31v2.79z"/><path class="cls-3" d="M214.72 351.12v-5.48H216l4-13.44h-1v-5.52h11.7v5.52h-1.1l4 13.44h1.28v5.48h-8.39v-5.48h.75l-.34-1.15h-4.19l-.38 1.15h.75v5.48zm7.85-.59v-4.33h-.82l.5-2.27h5.13l.47 2.27H227v4.33h7.35v-4.33h-1.25l-4.1-14.59h1.22v-4.33H219.6v4.33h1.06l-4.2 14.59h-1.22v4.33zm-6.63-.77V347h.94l4.79-16.12h-1.38V328h9.23v2.79H228l4.77 16.21h.94v2.79h-6V347h1.19l-1.13-3.81h-6l-1.08 3.81h1.19v2.79zm11.23-8.62l-2.35-8-2.41 8zm-3.69-.7l1.34-4.85 1.31 4.85zm2.07-.63l-.72-2.34-.72 2.34z"/><path class="cls-6" d="M214.72 351.12v-5.48H216l4-13.44h-1v-5.52h11.7v5.52h-1.1l4 13.44h1.28v5.48h-8.39v-5.48h.75l-.34-1.15h-4.19l-.38 1.15h.75v5.48zm7.85-.59v-4.33h-.82l.5-2.27h5.13l.47 2.27H227v4.33h7.35v-4.33h-1.25l-4.1-14.59h1.22v-4.33H219.6v4.33h1.06l-4.2 14.59h-1.22v4.33zm-6.63-.77V347h.94l4.79-16.12h-1.38V328h9.23v2.79H228l4.77 16.21h.94v2.79h-6V347h1.19l-1.13-3.81h-6l-1.08 3.81h1.19v2.79zm11.23-8.62l-2.35-8-2.41 8zm-3.69-.7l1.34-4.85 1.31 4.85zm2.07-.63l-.72-2.34-.72 2.34z"/><path class="cls-3" d="M236.9 347.21v-16.62l3.5-3.91h9.6l3.54 3.95V336h-6v-3l-.69-.77h-3.25l-.69.77v11.87l.72.8h3.16l.69-.77v-2.34h-1.66v-5h7.7v9.6l-3.54 4h-9.58zm3.69 3.32h9.23l3.13-3.49v-8.9h-6.6v3.8H248v3l-1.09 1.22h-3.41l-1.1-1.22v-12.11l1.1-1.22h3.41l1.09 1.22v2.65h4.94v-4.68l-3.16-3.52h-9.23l-3.13 3.49V347zm-2.47-4v-15.31L241 328h8.45l2.88 3.21v3.45h-3.63v-2.37l-1.34-1.5h-4.25l-1.35 1.5v13.12l1.35 1.5h4.25l1.34-1.5v-4.26h-1.6v-2.34h5.23v7.68l-2.88 3.21H241z"/><path class="cls-6" d="M236.9 347.21v-16.62l3.5-3.91h9.6l3.54 3.95V336h-6v-3l-.69-.77h-3.25l-.69.77v11.87l.72.8h3.16l.69-.77v-2.34h-1.66v-5h7.7v9.6l-3.54 4h-9.58zm3.69 3.32h9.23l3.13-3.49v-8.9h-6.6v3.8H248v3l-1.09 1.22h-3.41l-1.1-1.22v-12.11l1.1-1.22h3.41l1.09 1.22v2.65h4.94v-4.68l-3.16-3.52h-9.23l-3.13 3.49V347zm-2.47-4v-15.31L241 328h8.45l2.88 3.21v3.45h-3.63v-2.37l-1.34-1.5h-4.25l-1.35 1.5v13.12l1.35 1.5h4.25l1.34-1.5v-4.26h-1.6v-2.34h5.23v7.68l-2.88 3.21H241z"/><path class="cls-3" d="M255.27 351.12v-5.48h1.31V332.2h-1.31v-5.51h16.08v6.49h-4.91v-1h-3.85v3.94h.88v-.94h4.94v7.4h-4.94v-.94h-.88v4h3.85v-1h4.91v6.49zm15.55-.59v-5.31h-3.88v1h-4.88V341H264v1h3.88v-6.21H264v1h-1.94v-5.17h4.88v1h3.88v-5.31h-15v4.33h1.28v14.56h-1.3v4.33zm-14.33-.77V347h1.28v-16.16h-1.28V328h13.68v3.77h-2.53v-1h-6.24v6.66h3.29v-1h2.5v4.75h-2.5v-1h-3.29V347h6.23v-1h2.53v3.77z"/><path class="cls-6" d="M255.27 351.12v-5.48h1.31V332.2h-1.31v-5.51h16.08v6.49h-4.91v-1h-3.85v3.94h.88v-.94h4.94v7.4h-4.94v-.94h-.88v4h3.85v-1h4.91v6.49zm15.55-.59v-5.31h-3.88v1h-4.88V341H264v1h3.88v-6.21H264v1h-1.94v-5.17h4.88v1h3.88v-5.31h-15v4.33h1.28v14.56h-1.3v4.33zm-14.33-.77V347h1.28v-16.16h-1.28V328h13.68v3.77h-2.53v-1h-6.24v6.66h3.29v-1h2.5v4.75h-2.5v-1h-3.29V347h6.23v-1h2.53v3.77z"/><path class="cls-3" d="M272.22 351.12v-5.48h1.31V332.2h-1.31v-5.51h7l5.1 9.46 5.07-9.46h7v5.51h-1.32v13.44h1.32v5.48h-8.64v-5.48h1.28v-6.35l-4.76 8.83-4.79-8.83v6.35h1.31v5.48zm8.1-.59v-4.33H279v-8.83l5.32 9.94 5.29-10.3v9.18h-1.31v4.33h7.6v-4.32h-1.32v-14.59h1.32v-4.33h-6.38l-5.19 9.7-5.23-9.7h-6.35v4.33H274v14.59h-1.28v4.33zm-6.88-.77V347h1.28v-16.16h-1.28V328h4.85l6 11.17 6-11.17h4.91v2.79h-1.35V347h1.35v2.79H289V347h1.31v-12.32l-6 11.13-6-11.13V347h1.32v2.79z"/><path class="cls-6" d="M272.22 351.12v-5.48h1.31V332.2h-1.31v-5.51h7l5.1 9.46 5.07-9.46h7v5.51h-1.32v13.44h1.32v5.48h-8.64v-5.48h1.28v-6.35l-4.76 8.83-4.79-8.83v6.35h1.31v5.48zm8.1-.59v-4.33H279v-8.83l5.32 9.94 5.29-10.3v9.18h-1.31v4.33h7.6v-4.32h-1.32v-14.59h1.32v-4.33h-6.38l-5.19 9.7-5.23-9.7h-6.35v4.33H274v14.59h-1.28v4.33zm-6.88-.77V347h1.28v-16.16h-1.28V328h4.85l6 11.17 6-11.17h4.91v2.79h-1.35V347h1.35v2.79H289V347h1.31v-12.32l-6 11.13-6-11.13V347h1.32v2.79z"/><path class="cls-3" d="M298.38 351.12v-5.48h1.32V332.2h-1.32v-5.51h16.08v6.49h-4.91v-1h-3.85v3.94h.88v-.94h4.95v7.4h-4.95v-.94h-.88v4h3.85v-1h4.91v6.49zm15.55-.59v-5.31h-3.88v1h-4.88V341h1.94v1H311v-6.21h-3.88v1h-1.94v-5.17h4.88v1h3.88v-5.31h-15v4.33h1.28v14.56h-1.28v4.33zm-14.33-.77V347h1.28v-16.16h-1.28V328h13.67v3.77h-2.53v-1h-6.23v6.66h3.29v-1h2.5v4.75h-2.5v-1h-3.29V347h6.23v-1h2.53v3.77z"/><path class="cls-6" d="M298.38 351.12v-5.48h1.32V332.2h-1.32v-5.51h16.08v6.49h-4.91v-1h-3.85v3.94h.88v-.94h4.95v7.4h-4.95v-.94h-.88v4h3.85v-1h4.91v6.49zm15.55-.59v-5.31h-3.88v1h-4.88V341h1.94v1H311v-6.21h-3.88v1h-1.94v-5.17h4.88v1h3.88v-5.31h-15v4.33h1.28v14.56h-1.28v4.33zm-14.33-.77V347h1.28v-16.16h-1.28V328h13.67v3.77h-2.53v-1h-6.23v6.66h3.29v-1h2.5v4.75h-2.5v-1h-3.29V347h6.23v-1h2.53v3.77z"/><path class="cls-3" d="M315.34 351.12v-5.48h1.31V332.2h-1.31v-5.51h7.1l6 11.2v-5.69h-1.31v-5.51h8.64v5.51h-1.31v13.44h1.31v5.48h-7.23l-5.91-10.92v5.44H324v5.48zm8.1-.56v-4.36h-1.31v-8.1l6.7 12.46h6.45v-4.36H334v-14.59h1.31v-4.33h-7.61v4.33h1.3V340l-6.82-12.67h-6.32v4.33h1.28v14.54h-1.28v4.36zm-6.88-.8V347h1.28v-16.16h-1.28V328h5l8.1 15v-12.16h-1.35V328h6.26v2.79h-1.34V347h1.34v2.79h-5.23L321.47 335v12h1.31v2.79z"/><path class="cls-6" d="M315.34 351.12v-5.48h1.31V332.2h-1.31v-5.51h7.1l6 11.2v-5.69h-1.31v-5.51h8.64v5.51h-1.31v13.44h1.31v5.48h-7.23l-5.91-10.92v5.44H324v5.48zm8.1-.56v-4.36h-1.31v-8.1l6.7 12.46h6.45v-4.36H334v-14.59h1.31v-4.33h-7.61v4.33h1.3V340l-6.82-12.67h-6.32v4.33h1.28v14.54h-1.28v4.36zm-6.88-.8V347h1.28v-16.16h-1.28V328h5l8.1 15v-12.16h-1.35V328h6.26v2.79h-1.34V347h1.34v2.79h-5.23L321.47 335v12h1.31v2.79z"/><path class="cls-3" d="M337.11 333.63v-6.95h18.49v6.95h-4.94v-1.43h-1.28v13.44h1.28v5.48H342v-5.48h1.31V332.2H342v1.43zm4.38-.56v-1.47h2.38v14.6h-1.31v4.33h7.61v-4.33h-1.32v-14.59h2.38v1.47h3.85v-5.79h-17.43v5.79zm-3.16-.77V328h16.08v4.26h-2.53v-1.47h-3.69V347h1.28v2.8h-6.23V347h1.31v-16.16h-3.76v1.47z"/><path class="cls-6" d="M337.11 333.63v-6.95h18.49v6.95h-4.94v-1.43h-1.28v13.44h1.28v5.48H342v-5.48h1.31V332.2H342v1.43zm4.38-.56v-1.47h2.38v14.6h-1.31v4.33h7.61v-4.33h-1.32v-14.59h2.38v1.47h3.85v-5.79h-17.43v5.79zm-3.16-.77V328h16.08v4.26h-2.53v-1.47h-3.69V347h1.28v2.8h-6.23V347h1.31v-16.16h-3.76v1.47z"/><path class="cls-3" d="M143.36 397.44v-7.81h11.7v3.84l1.46 1.34h6.09l1.4-1.28v-4l-1.34-1.22h-12.49l-6.82-6.53V369.7l6.82-6.53h18.77l6.83 6.53v8H164v-4.08l-1.34-1.28h-6.34l-1.28 1.28v4.14l1.34 1.28h12.55l6.83 6.53v11.83l-6.81 6.6h-18.77zm7.13 5.53h18.16l6.09-5.77v-11.41l-6-5.71h-12.59l-2.07-2v-4.6l2.07-2h6.76l2.13 2v3.32h9.69v-6.82l-6-5.77h-18.31l-6 5.77v11.59l6 5.77h12.49l2.13 2v4.43l-2.19 2h-6.64l-2.13-2v-3.09h-9.69v6.59zm-4.75-6.64v-4.49h7v2.68l2.62 2.51h8.41l2.62-2.56v-5.83l-2.68-2.64H151.4l-5.67-5.42v-9.79l5.61-5.36h16.45l5.67 5.48v4.6h-7.07v-2.79l-2.68-2.62h-8.35l-2.62 2.51v6.18l2.62 2.5h12.43l5.67 5.48v9.56l-5.54 5.36h-16.64z"/><path class="cls-6" d="M143.36 397.44v-7.81h11.7v3.84l1.46 1.34h6.09l1.4-1.28v-4l-1.34-1.22h-12.49l-6.82-6.53V369.7l6.82-6.53h18.77l6.83 6.53v8H164v-4.08l-1.34-1.28h-6.34l-1.28 1.28v4.14l1.34 1.28h12.55l6.83 6.53v11.83l-6.81 6.6h-18.77zm7.13 5.53h18.16l6.09-5.77v-11.41l-6-5.71h-12.59l-2.07-2v-4.6l2.07-2h6.76l2.13 2v3.32h9.69v-6.82l-6-5.77h-18.31l-6 5.77v11.59l6 5.77h12.49l2.13 2v4.43l-2.19 2h-6.64l-2.13-2v-3.09h-9.69v6.59zm-4.75-6.64v-4.49h7v2.68l2.62 2.51h8.41l2.62-2.56v-5.83l-2.68-2.64H151.4l-5.67-5.42v-9.79l5.61-5.36h16.45l5.67 5.48v4.6h-7.07v-2.79l-2.68-2.62h-8.35l-2.62 2.51v6.18l2.62 2.5h12.43l5.67 5.48v9.56l-5.54 5.36h-16.64z"/><path class="cls-3" d="M180 397.44V369.7l6.83-6.53h18.77l6.83 6.53v9.09h-11.74v-5.13l-1.34-1.28h-6.28l-1.34 1.28v19.81l1.4 1.34h6.21l1.34-1.28v-4.9h11.76v8.8l-6.82 6.57h-18.76zm7.25 5.53h18.1l6-5.77v-7.63h-9.69v4.14l-2.13 2h-6.7l-2.13-2v-20.28l2.13-2h6.7l2.13 2v4.49h9.69v-8l-6.09-5.83H187.1l-6 5.83V397zm-4.87-6.64v-25.52l5.6-5.36h16.51l5.61 5.36v5.77h-7.07v-3.9l-2.68-2.56H192l-2.62 2.51v21.91L192 397h8.35l2.68-2.56v-3.64h7.19v5.54l-5.6 5.36H188z"/><path class="cls-6" d="M180 397.44V369.7l6.83-6.53h18.77l6.83 6.53v9.09h-11.74v-5.13l-1.34-1.28h-6.28l-1.34 1.28v19.81l1.4 1.34h6.21l1.34-1.28v-4.9h11.76v8.8l-6.82 6.57h-18.76zm7.25 5.53h18.1l6-5.77v-7.63h-9.69v4.14l-2.13 2h-6.7l-2.13-2v-20.28l2.13-2h6.7l2.13 2v4.49h9.69v-8l-6.09-5.83H187.1l-6 5.83V397zm-4.87-6.64v-25.52l5.6-5.36h16.51l5.61 5.36v5.77h-7.07v-3.9l-2.68-2.56H192l-2.62 2.51v21.91L192 397h8.35l2.68-2.56v-3.64h7.19v5.54l-5.6 5.36H188z"/><path class="cls-3" d="M215 404v-9.15h2.56v-22.47H215v-9.2h16.82v9.2h-2.56V378h8.35v-5.59H235v-9.2h16.88v9.2h-2.5v22.43h2.5V404H235v-9.15h2.62V388h-8.35v6.82h2.56V404zm15.78-1v-7.22h-2.56V387h10.42v8.74h-2.56V403h14.82v-7.22h-2.62v-24.39h2.62v-7.23h-14.81v7.23h2.56V379h-10.42v-7.57h2.56v-7.23H216v7.23h2.5v24.35H216V403zm-13.4-1.28V397h2.5v-26.89h-2.5v-4.66h12.13v4.66H227v10.08h13v-10.08h-2.56v-4.66h12.19v4.66H247V397h2.56v4.66h-12.19V397h2.56v-11.3H227V397h2.56v4.66z"/><path class="cls-6" d="M215 404v-9.15h2.56v-22.47H215v-9.2h16.82v9.2h-2.56V378h8.35v-5.59H235v-9.2h16.88v9.2h-2.5v22.43h2.5V404H235v-9.15h2.62V388h-8.35v6.82h2.56V404zm15.78-1v-7.22h-2.56V387h10.42v8.74h-2.56V403h14.82v-7.22h-2.62v-24.39h2.62v-7.23h-14.81v7.23h2.56V379h-10.42v-7.57h2.56v-7.23H216v7.23h2.5v24.35H216V403zm-13.4-1.28V397h2.5v-26.89h-2.5v-4.66h12.13v4.66H227v10.08h13v-10.08h-2.56v-4.66h12.19v4.66H247V397h2.56v4.66h-12.19V397h2.56v-11.3H227V397h2.56v4.66z"/><path class="cls-3" d="M254.43 397.44V369.7l6.82-6.53H280l6.82 6.53v27.73L280 404h-18.75zm7.19 5.48h18.1l6.09-5.83v-27l-6.22-5.94h-18l-6.06 5.85v27.09zm-4.81-6.58v-25.53l5.61-5.36h16.51l5.6 5.36v25.52l-5.6 5.36h-16.52zm9.63.7h8.41l2.62-2.51v-21.85l-2.68-2.56h-8.35l-2.62 2.51v21.91zm-1.34-3.26v-20.41l2.13-2H274l2.13 2v20.39l-2.13 2h-6.83zm2.44 1h6.22l1.34-1.28v-19.83l-1.34-1.28h-6.28l-1.34 1.28v19.81z"/><path class="cls-6" d="M254.43 397.44V369.7l6.82-6.53H280l6.82 6.53v27.73L280 404h-18.75zm7.19 5.48h18.1l6.09-5.83v-27l-6.22-5.94h-18l-6.06 5.85v27.09zm-4.81-6.58v-25.53l5.61-5.36h16.51l5.6 5.36v25.52l-5.6 5.36h-16.52zm9.63.7h8.41l2.62-2.51v-21.85l-2.68-2.56h-8.35l-2.62 2.51v21.91zm-1.34-3.26v-20.41l2.13-2H274l2.13 2v20.39l-2.13 2h-6.83zm2.44 1h6.22l1.34-1.28v-19.83l-1.34-1.28h-6.28l-1.34 1.28v19.81z"/><path class="cls-3" d="M291.54 397.44V369.7l6.82-6.53h18.77l6.87 6.53v27.73l-6.88 6.57h-18.76zm7.19 5.48h18.1l6.09-5.83v-27l-6.22-5.94h-18l-6.07 5.85v27.09zm-4.81-6.58v-25.53l5.61-5.36H316l5.6 5.36v25.52l-5.6 5.36h-16.48zm9.63.7h8.41l2.62-2.51v-21.85l-2.68-2.56h-8.35l-2.62 2.51v21.91zm-1.34-3.26v-20.41l2.13-2h6.82l2.13 2v20.39l-2.13 2h-6.82zm2.44 1h6.21l1.34-1.28v-19.83l-1.34-1.28h-6.27l-1.34 1.28v19.81z"/><path class="cls-6" d="M291.54 397.44V369.7l6.82-6.53h18.77l6.87 6.53v27.73l-6.88 6.57h-18.76zm7.19 5.48h18.1l6.09-5.83v-27l-6.22-5.94h-18l-6.07 5.85v27.09zm-4.81-6.58v-25.53l5.61-5.36H316l5.6 5.36v25.52l-5.6 5.36h-16.48zm9.63.7h8.41l2.62-2.51v-21.85l-2.68-2.56h-8.35l-2.62 2.51v21.91zm-1.34-3.26v-20.41l2.13-2h6.82l2.13 2v20.39l-2.13 2h-6.82zm2.44 1h6.21l1.34-1.28v-19.83l-1.34-1.28h-6.27l-1.34 1.28v19.81z"/><path class="cls-3" d="M327.36 404v-9.15h2.56v-22.47h-2.56v-9.2h16.82v9.2h-2.56v22.43h7.68v-2.45h9.63V404zm30.53-1v-9.55h-7.56v2.39h-9.81v-24.45h2.62v-7.23H328.4v7.23h2.6v24.35h-2.5V403zm-28.15-1.28V397h2.5v-26.89h-2.5v-4.66h12.12v4.66h-2.56V397h12.31v-2.44h4.93v7.11z"/><path class="cls-6" d="M327.36 404v-9.15h2.56v-22.47h-2.56v-9.2h16.82v9.2h-2.56v22.43h7.68v-2.45h9.63V404zm30.53-1v-9.55h-7.56v2.39h-9.81v-24.45h2.62v-7.23H328.4v7.23h2.6v24.35h-2.5V403zm-28.15-1.28V397h2.5v-26.89h-2.5v-4.66h12.12v4.66h-2.56V397h12.31v-2.44h4.93v7.11z"/></svg>