<svg id="Calque_1" data-name="Calque 1" xmlns="http://www.w3.org/2000/svg" viewBox="0 0 512 512"><defs><style>.cls-1{fill:none}.cls-2,.cls-3{fill:#fff}.cls-3{fill-rule:evenodd}</style></defs><title>arc</title><path class="cls-1" d="M256 512c141.38 0 256-114.61 256-256S397.39 0 256 0 0 114.61 0 256s114.62 256 256 256"/><path class="cls-2" d="M51.62 238.3v-20h3.44v7.16a6.64 6.64 0 0 1 4.16-1.83c2.89 0 4.27 1.89 4.27 4.83v9.88h-3.44v-9.38c0-1.94-.61-2.55-1.77-2.55a4.38 4.38 0 0 0-3.22 1.53v10.36zm22.78 0l-.22-1.25a7.52 7.52 0 0 1-4.5 1.53 3.69 3.69 0 0 1-3.91-3.83c0-3.27 2.66-5 8.27-5.66v-1.22c0-1.11-.89-1.72-2.11-1.72a3.7 3.7 0 0 0-3.16 1.78l-2.22-1.69a6.47 6.47 0 0 1 5.38-2.64c3.88.08 5.55 1.5 5.55 5.83v6.8a6.45 6.45 0 0 0 .28 2.08zm-.4-6.91c-2.3.44-4.83.92-4.83 2.94a1.57 1.57 0 0 0 1.71 1.67 6 6 0 0 0 3.12-1.5zm18.8-7.52v14.43h-3.16v-1.56a8 8 0 0 1-4.44 1.83c-2.89 0-4.27-1.89-4.27-4.83v-9.88h3.44v9.38c0 1.94.61 2.55 1.78 2.55a4.39 4.39 0 0 0 3.22-1.53v-10.39zm4.1 0v-4.77h3.44v4.77h2.83v2.78h-2.83v8.16c0 .78.39 1 1.25 1a7.52 7.52 0 0 0 1.58-.28v2.83a22.15 22.15 0 0 1-2.72.22c-2.55 0-3.55-1.28-3.55-3.33v-8.6h-2v-2.78zm11.02 7.77c.06 3 1.39 4.16 3 4.16a3.83 3.83 0 0 0 3.22-1.72l2.5 1.55c-1.33 2.06-3.27 2.94-6.05 2.94-3.75 0-6.1-2.91-6.1-7.49s2.36-7.49 6.27-7.49 5.88 3.17 5.88 6.63v1.42zm5.55-2.33c-.06-2-1.11-3.16-2.78-3.16s-2.72 1.16-2.77 3.16zm16.79 2.33c.06 3 1.39 4.16 3 4.16a3.83 3.83 0 0 0 3.22-1.72l2.5 1.55c-1.33 2.06-3.27 2.94-6.05 2.94-3.75 0-6.1-2.91-6.1-7.49s2.36-7.49 6.27-7.49 5.88 3.17 5.88 6.63v1.42zm5.55-2.33c-.05-2-1.11-3.16-2.77-3.16s-2.72 1.16-2.78 3.16zm1.91-11.31l-4.05 4h-2.83l2.61-4.05zm12.07 10.56c-.56-1.22-1.17-2.19-2.83-2.19-1.91 0-2.83 1.5-2.83 4.72s.91 4.72 2.94 4.72c1.5 0 2.36-1 3.05-2.3l2.61 1.47c-1.39 2.58-3.14 3.63-5.77 3.61-3.91 0-6.27-2.91-6.27-7.49s2.36-7.49 6.27-7.49a5.7 5.7 0 0 1 5.69 3.86zm11.05-4.96c3.91 0 6.27 2.91 6.27 7.49s-2.36 7.49-6.27 7.49-6.27-2.91-6.27-7.49 2.36-7.49 6.27-7.49zm0 2.77c-1.91 0-2.83 1.5-2.83 4.72s.92 4.72 2.83 4.72 2.83-1.5 2.83-4.72-.92-4.72-2.83-4.72zm9.07 11.93v-20h3.44v20zm9.69-6.66c.06 3 1.39 4.16 3 4.16a3.83 3.83 0 0 0 3.22-1.72l2.5 1.55c-1.33 2.06-3.27 2.94-6 2.94-3.75 0-6.11-2.91-6.11-7.49s2.36-7.49 6.27-7.49 5.88 3.17 5.88 6.63v1.42zm5.55-2.33c-.06-2-1.11-3.16-2.78-3.16s-2.72 1.16-2.78 3.16zm57.97 9a21.11 21.11 0 0 0-42.23 0h12.62a8.49 8.49 0 0 1 17 0zm48.79 0a21.11 21.11 0 0 0-42.23 0h12.62a8.49 8.49 0 0 1 17 0zm45.43 0a21.11 21.11 0 1 0-42.22 0h12.62a8.49 8.49 0 0 1 17 0zm-115.4 36.54a9.86 9.86 0 1 1 9.86-9.86 9.86 9.86 0 0 1-9.86 9.86zM222 286c11.23 0 21.09-8.1 21.09-21.29v-22.8h-12.62v3.86A21 21 0 1 0 222 286zm27.69-44.1h12.62v42.76h-12.62V241.9zm45.44 0v22.81c0 13.13 9 21.45 21.1 21.45a21.14 21.14 0 0 0 21.11-21.11h-12.6a8.49 8.49 0 0 1-17 0V241.9zm-243.6 13.95v-8.1h.93V249a3.61 3.61 0 0 1 2.77-1.43c1.68 0 2.4 1 2.4 2.72v5.53h-.93v-5.44c0-1.34-.4-2.07-1.65-2.07-1 0-1.56.61-2.59 1.54v6zm8.88-4.02c0 1.84.76 3.43 2.6 3.43 1 0 1.56-.36 2.37-1.63l.76.4a3.31 3.31 0 0 1-3.21 2c-2.12 0-3.46-1.36-3.46-4.21 0-2.51 1.28-4.21 3.33-4.21s3.2 1.72 3.2 4.22zm4.71-.75c-.19-1.67-.92-2.73-2.34-2.74-1.65 0-2.35 1.67-2.37 2.74zm8.97-3.33v8.1h-.93v-1.28a3.61 3.61 0 0 1-2.78 1.43c-1.68 0-2.4-1-2.4-2.73v-5.53h.94v5.43c0 1.34.41 2.07 1.65 2.07 1 0 1.56-.61 2.59-1.54v-6zm7.43 2.25a2.34 2.34 0 0 0-2.1-1.68c-1.53 0-2.56 1-2.56 3.46 0 2.07.93 3.46 2.56 3.46 1.15 0 1.78-.64 2.43-1.68l.75.36a3.62 3.62 0 0 1-3.19 2.08c-2.28 0-3.49-1.76-3.49-4.21 0-2.79 1.4-4.21 3.49-4.21a3 3 0 0 1 3 2.2zm2.91 5.85v-11.24h.93V249a3.61 3.61 0 0 1 2.77-1.43c1.68 0 2.4 1 2.4 2.72v5.53h-.93v-5.44c0-1.34-.4-2.07-1.65-2.07-1 0-1.56.61-2.59 1.54v6zm13.09 0l-.13-1a4.25 4.25 0 0 1-2.94 1.15 2.06 2.06 0 0 1-2.23-2.12c0-2.21 1.81-2.62 5.19-3.36V250c0-1.07-.47-1.62-1.85-1.62a2.76 2.76 0 0 0-2.35 1.46l-.62-.38a3.15 3.15 0 0 1 3-1.84c1.84 0 2.71.75 2.71 2.54v4.24a9 9 0 0 0 .12 1.48zm-.16-4.58c-3.71.81-4.21 1.57-4.21 2.6a1.33 1.33 0 0 0 1.45 1.39 4.19 4.19 0 0 0 2.76-1.34zm.65-4.42H97l-1.28-1.57-1.28 1.57h-1l1.77-2.15h1.06zm2.99.9v-2.65h.93v2.65h1.78v.75h-1.78v5.94a.72.72 0 0 0 .82.83 3.26 3.26 0 0 0 1-.17v.78a6.64 6.64 0 0 1-1 .14c-1.32 0-1.76-.44-1.76-1.42v-6.1h-1.23v-.75zm4.43 4.08c0 1.84.76 3.43 2.6 3.43 1 0 1.56-.36 2.37-1.63l.76.4a3.31 3.31 0 0 1-3.21 2c-2.12 0-3.46-1.36-3.46-4.21 0-2.51 1.28-4.21 3.33-4.21s3.24 1.73 3.24 4.24zm4.7-.75c-.19-1.67-.92-2.73-2.34-2.74-1.65 0-2.35 1.67-2.37 2.74zm2.87-6.47h.93v11.25H113zm9.19 0h.93v4.21a3.14 3.14 0 0 1 2.54-1.22c1.89 0 3.19 1.77 3.19 4.16 0 2.76-1.15 4.25-3.26 4.25a3 3 0 0 1-2.6-1.22l-.16 1.06h-.65zm.93 9.18a2.88 2.88 0 0 0 2.43 1.48c1.62 0 2.37-1.46 2.37-3.33 0-2.1-.83-3.58-2.51-3.58a3.25 3.25 0 0 0-2.29 1.45zm7.8-1.96c0 1.84.76 3.43 2.6 3.43 1 0 1.56-.36 2.37-1.63l.76.4a3.31 3.31 0 0 1-3.21 2c-2.12 0-3.46-1.36-3.46-4.21 0-2.51 1.28-4.21 3.33-4.21s3.24 1.73 3.24 4.24zm4.71-.75c-.19-1.67-.92-2.73-2.34-2.74-1.65 0-2.35 1.67-2.37 2.74zm2.8 4.77v-8.1h.93v1.54a2.62 2.62 0 0 1 2.34-1.7h.42v.9h-.42a2.79 2.79 0 0 0-2.37 2.77v4.58zm5.25 0v-8.1h.93V249a3.61 3.61 0 0 1 2.77-1.43c1.68 0 2.4 1 2.4 2.72v5.53h-.93v-5.44c0-1.34-.41-2.07-1.65-2.07-1 0-1.56.61-2.59 1.54v6zm8.88-4.02c0 1.84.76 3.43 2.6 3.43 1 0 1.56-.36 2.37-1.63l.76.4a3.31 3.31 0 0 1-3.21 2c-2.12 0-3.46-1.36-3.46-4.21 0-2.51 1.28-4.21 3.34-4.21s3.24 1.73 3.24 4.24zm4.7-.75c-.19-1.67-.92-2.73-2.34-2.74-1.65 0-2.35 1.67-2.37 2.74zm6.86 6.78a2.44 2.44 0 0 0 .65.11c.62 0 .92-.25.92-.84v-9.38h.93v9.39c0 1.17-.61 1.57-1.67 1.57a3.48 3.48 0 0 1-.84-.09zm1.57-11.86v-1.37h.93V246zm9.58 1.75v8.1h-.93v-1.28a3.61 3.61 0 0 1-2.77 1.44c-1.68 0-2.4-1-2.4-2.73v-5.53h.93v5.43c0 1.34.41 2.07 1.65 2.07 1 0 1.56-.61 2.59-1.54v-6zm2.49 8.1v-8.1h.93v1.54a2.62 2.62 0 0 1 2.34-1.7h.42v.9h-.42a2.79 2.79 0 0 0-2.37 2.77v4.58zm9.68 0l-.12-1a4.25 4.25 0 0 1-2.94 1.14 2.06 2.06 0 0 1-2.23-2.12c0-2.21 1.81-2.62 5.19-3.36V250c0-1.07-.47-1.62-1.85-1.62a2.76 2.76 0 0 0-2.35 1.46l-.62-.38a3.15 3.15 0 0 1 3-1.84c1.84 0 2.71.75 2.71 2.54v4.24a8.93 8.93 0 0 0 .12 1.48zm-.16-4.58c-3.71.81-4.21 1.57-4.21 2.6a1.33 1.33 0 0 0 1.45 1.39 4.19 4.19 0 0 0 2.76-1.34zm162.22 4.58v-8.1h.93V249a3.61 3.61 0 0 1 2.77-1.43c1.68 0 2.4 1 2.4 2.72v5.53h-.93v-5.44c0-1.34-.41-2.07-1.66-2.07-1 0-1.55.61-2.58 1.54v6zm8.88-4.02c0 1.84.76 3.43 2.6 3.43 1 0 1.56-.36 2.37-1.63l.76.4a3.31 3.31 0 0 1-3.21 2c-2.12 0-3.46-1.36-3.46-4.21 0-2.51 1.28-4.21 3.33-4.21s3.24 1.73 3.24 4.24zm4.7-.75c-.19-1.67-.92-2.73-2.34-2.74-1.65 0-2.35 1.67-2.37 2.74zm8.98-3.33v8.1h-.93v-1.28a3.62 3.62 0 0 1-2.78 1.44c-1.68 0-2.4-1-2.4-2.73v-5.53h.94v5.43c0 1.34.4 2.07 1.65 2.07 1 0 1.56-.61 2.59-1.54v-6zm7.42 2.25a2.33 2.33 0 0 0-2.1-1.68c-1.53 0-2.55 1-2.55 3.46 0 2.07.93 3.46 2.55 3.46 1.15 0 1.78-.64 2.43-1.68l.75.36a3.61 3.61 0 0 1-3.18 2.07c-2.27 0-3.49-1.76-3.49-4.21 0-2.79 1.4-4.21 3.49-4.21a3 3 0 0 1 3 2.2zm2.92 5.85v-11.24h.94V249a3.6 3.6 0 0 1 2.77-1.43c1.68 0 2.4 1 2.4 2.72v5.53h-.93v-5.44c0-1.34-.41-2.07-1.65-2.07-1 0-1.56.61-2.59 1.54v6zm13.08 0l-.13-1a4.24 4.24 0 0 1-2.94 1.14 2.06 2.06 0 0 1-2.23-2.12c0-2.21 1.81-2.62 5.19-3.36V250c0-1.07-.47-1.62-1.85-1.62a2.76 2.76 0 0 0-2.35 1.46l-.62-.38a3.15 3.15 0 0 1 3-1.84c1.84 0 2.71.75 2.71 2.54v4.24a9 9 0 0 0 .12 1.48zm-.15-4.58c-3.71.81-4.21 1.57-4.21 2.6a1.32 1.32 0 0 0 1.45 1.39 4.19 4.19 0 0 0 2.76-1.34zm.65-4.42h-1l-1.28-1.57-1.28 1.57h-1l1.77-2.15h1.06zm2.96.9v-2.65h.94v2.65h1.77v.75h-1.77v5.94a.72.72 0 0 0 .83.83 3.26 3.26 0 0 0 .95-.17v.78a6.69 6.69 0 0 1-.95.14c-1.33 0-1.76-.44-1.76-1.42v-6.1h-1.22v-.75zm4.46 4.08c0 1.84.76 3.43 2.6 3.43 1 0 1.56-.36 2.37-1.63l.76.4a3.31 3.31 0 0 1-3.21 2c-2.12 0-3.46-1.36-3.46-4.21 0-2.51 1.28-4.21 3.33-4.21s3.24 1.73 3.24 4.24zm4.7-.75c-.19-1.67-.92-2.73-2.34-2.74-1.65 0-2.35 1.67-2.37 2.74zm2.9-6.47h.93v11.25H411zm13.71 11.24h-.65l-.16-1.06a3 3 0 0 1-2.6 1.22c-2.1 0-3.26-1.5-3.26-4.25 0-2.38 1.31-4.16 3.19-4.16a3.13 3.13 0 0 1 2.54 1.22v-4.21h.93zm-.93-6.06a3.24 3.24 0 0 0-2.29-1.45c-1.68 0-2.51 1.48-2.51 3.58 0 1.87.75 3.33 2.37 3.33a2.88 2.88 0 0 0 2.43-1.48zm3.86 2.04c0 1.84.76 3.43 2.6 3.43 1 0 1.56-.36 2.37-1.63l.76.4a3.31 3.31 0 0 1-3.21 2c-2.12 0-3.46-1.36-3.46-4.21 0-2.51 1.28-4.21 3.33-4.21s3.24 1.73 3.24 4.24zm4.71-.75c-.19-1.67-.92-2.73-2.34-2.74-1.65 0-2.35 1.67-2.37 2.74zm2.84-6.47h.93v11.25h-.93zm3.7 7.22c0 1.84.76 3.43 2.6 3.43 1 0 1.56-.36 2.37-1.63l.76.4a3.31 3.31 0 0 1-3.21 2c-2.12 0-3.46-1.36-3.46-4.21 0-2.51 1.28-4.21 3.33-4.21s3.24 1.73 3.24 4.24zm4.7-.75c-.19-1.67-.92-2.73-2.34-2.74-1.65 0-2.35 1.67-2.37 2.74zm-.36-6.39l-2.13 2.15h-.8l1.7-2.14zm3.23 11.16v-8.1h.93V249a3.32 3.32 0 0 1 2.7-1.39 2 2 0 0 1 2 1.48 3.43 3.43 0 0 1 2.68-1.48 1.93 1.93 0 0 1 2.14 2.2v6.06h-.93v-6.17a1.23 1.23 0 0 0-1.4-1.36 3.64 3.64 0 0 0-2.4 1.54v6h-.93v-6.18a1.23 1.23 0 0 0-1.4-1.36 3.63 3.63 0 0 0-2.4 1.54v6zm18.93-4.05c0 2.2-.81 4.21-3.33 4.21s-3.33-2-3.33-4.21.81-4.21 3.33-4.21 3.33 2.02 3.33 4.21zm-5.74 0c0 2.2.73 3.46 2.4 3.46s2.4-1.26 2.4-3.46-.73-3.46-2.4-3.46-2.4 1.27-2.4 3.46zm7.57 4.05v-8.1h.93V249a3.61 3.61 0 0 1 2.77-1.43c1.68 0 2.4 1 2.4 2.72v5.53h-.94v-5.44c0-1.34-.41-2.07-1.65-2.07-1 0-1.56.61-2.59 1.54v6zm8.78-8.1v-2.65h.94v2.65h1.77v.75h-1.77v5.94a.72.72 0 0 0 .83.83 3.24 3.24 0 0 0 .95-.17v.78a6.57 6.57 0 0 1-.95.14c-1.33 0-1.76-.44-1.76-1.42v-6.1h-1.21v-.75z"/><path class="cls-3" d="M353.86 238c3.33 0 4.36 1 4.36 1.67 0 .5-.75 1.61-3 1.61-2.89 0-3.83-.5-3.83-1.61.03-.58.61-1.67 2.47-1.67zm3-9.49a2.43 2.43 0 1 1-2.36-2.39 2.36 2.36 0 0 1 2.36 2.42zm4.61-4.94a3.75 3.75 0 0 0-3.39 1.28 5.8 5.8 0 0 0-3.56-1.28c-3.75 0-5.69 2.5-5.69 5a4.78 4.78 0 0 0 2.14 3.83c-.64.2-2.25 1.25-2.25 2.64 0 1.56 1.47 1.92 2.14 2.33v.06a2.55 2.55 0 0 0-2.61 2.67c0 2.28 2.56 3.44 6.44 3.44 4.61 0 6.69-2.22 6.69-4.28 0-5.77-9.5-2.61-9.5-4.94 0-.83 1.19-.89 2.69-.89 3.61 0 5.44-1.95 5.44-4.67a4.26 4.26 0 0 0-.78-2.56 4.59 4.59 0 0 1 2.22-.33zm4.92 5.74c.05-2 1.11-3.16 2.78-3.16s2.72 1.17 2.77 3.16zm8.72 2.33v-1.42c0-3.47-2.11-6.66-5.89-6.64s-6.27 2.92-6.27 7.5 2.36 7.5 6.11 7.5c2.77 0 4.72-.89 6.05-2.94l-2.5-1.55a3.83 3.83 0 0 1-3.22 1.72c-1.61 0-2.95-1.17-3-4.17zm12.29-5.85a6.62 6.62 0 0 0-5.08-2.19c-2.5 0-4.78 1.5-4.78 4.19 0 5 7.22 4.14 7.22 6.61 0 1-.83 1.64-2.06 1.64a4.26 4.26 0 0 1-3.36-2.08l-2.34 1.71a6.36 6.36 0 0 0 5.47 2.91c3 0 5.3-1.33 5.3-4.33 0-5.28-7.22-4.22-7.22-6.69 0-.86.61-1.42 1.95-1.42a3.94 3.94 0 0 1 2.69 1.53zm1.69-1.92v2.78h2v8.61c0 2.06 1 3.33 3.56 3.33a22.71 22.71 0 0 0 2.72-.22v-2.83a7.55 7.55 0 0 1-1.58.28c-.86 0-1.25-.22-1.25-1v-8.17h2.83v-2.78h-2.83v-4.77h-3.44v4.77zm14.83 0h-3.44v14.44h3.44zm0-2.67V218h-3.44v3.22zm11.84 9.89c0 3.22-.91 4.72-2.83 4.72s-2.83-1.5-2.83-4.72.92-4.72 2.83-4.72 2.83 1.5 2.83 4.72zm-9.11 0c0 4.58 2.36 7.5 6.27 7.5s6.28-2.91 6.28-7.5-2.36-7.5-6.28-7.5-6.27 2.92-6.27 7.5zm18.44 7.22V227.9a4.4 4.4 0 0 1 3.22-1.53c1.17 0 1.78.61 1.78 2.56v9.38h3.44v-9.89c0-2.94-1.39-4.83-4.28-4.83a8.05 8.05 0 0 0-4.44 1.83v-1.56h-3.16v14.44z"/></svg>