<svg id="_Layer_" data-name="&lt;Layer&gt;" xmlns="http://www.w3.org/2000/svg" viewBox="0 0 98 48"><defs><style>.cls-1{fill:#fff}.cls-2,.cls-3{fill:none;stroke-miterlimit:10;stroke-width:1.28px}.cls-2{stroke:#000}.cls-3{stroke:#fff}</style></defs><title>Artboard 1</title><path class="cls-1" d="M93.67 30.23l.03-.03-.13-.1-4.04-5.23-1.96 1.51 2.97 3.85-2.95 3.82 1.97 1.52 4.1-5.32.02-.01-.01-.01z"/><path d="M6.81 30.23l.02-.03-.12-.1-4.04-5.23L.7 26.38l2.98 3.85-2.95 3.82 1.96 1.52 4.11-5.32.01-.01v-.01zm7.66.89a2.64 2.64 0 0 0 .08.7 1.85 1.85 0 0 0 1.78 1.49c1.38 0 2.11-1.32 2.11-3.12s-.72-3.06-2.07-3.06a2 2 0 0 0-1.82 1.62 3.17 3.17 0 0 0-.08.62zm-2.29-2.56c0-1.24 0-2.23-.08-3.08h2l.12 1.35a3.17 3.17 0 0 1 2.85-1.54c2.07 0 3.62 1.89 3.62 4.83 0 3.41-1.94 5-3.9 5a2.7 2.7 0 0 1-2.35-1.18v4.78h-2.25z"/><path class="cls-2" d="M14.47 31.12a2.64 2.64 0 0 0 .08.7 1.85 1.85 0 0 0 1.78 1.49c1.38 0 2.11-1.32 2.11-3.12s-.72-3.06-2.07-3.06a2 2 0 0 0-1.82 1.62 3.17 3.17 0 0 0-.08.62zm-2.29-2.56c0-1.24 0-2.23-.08-3.08h2l.12 1.35a3.17 3.17 0 0 1 2.85-1.54c2.07 0 3.62 1.89 3.62 4.83 0 3.41-1.94 5-3.9 5a2.7 2.7 0 0 1-2.35-1.18v4.78h-2.25z"/><path d="M26.47 28.4c0-1.14 0-2.09-.08-2.93h2l.09 1.69h.06a2.63 2.63 0 0 1 2.38-1.89 4.13 4.13 0 0 1 .52 0v2.22a2.82 2.82 0 0 0-.62-.06 2 2 0 0 0-2 1.74 4.35 4.35 0 0 0-.08.78v4.92h-2.27z"/><path class="cls-2" d="M26.47 28.4c0-1.14 0-2.09-.08-2.93h2l.09 1.69h.06a2.63 2.63 0 0 1 2.38-1.89 4.13 4.13 0 0 1 .52 0v2.22a2.82 2.82 0 0 0-.62-.06 2 2 0 0 0-2 1.74 4.35 4.35 0 0 0-.08.78v4.92h-2.27z"/><path d="M38.39 30.2c0 1.74.72 3.22 2.05 3.22s2-1.49 2-3.24c0-1.45-.54-3.22-2-3.22s-2.05 1.73-2.05 3.24m6.4-.08c0 3.57-2.29 5-4.42 5-2.46 0-4.31-1.78-4.31-4.85s1.92-5 4.44-5 4.28 1.89 4.28 4.85"/><path class="cls-2" d="M38.39 30.2c0 1.74.72 3.22 2.05 3.22s2-1.49 2-3.24c0-1.45-.54-3.22-2-3.22s-2.05 1.73-2.05 3.24zm6.4-.08c0 3.57-2.29 5-4.42 5-2.46 0-4.31-1.78-4.31-4.85s1.92-5 4.44-5 4.28 1.91 4.28 4.86z"/><path class="cls-1" d="M49.32 34.66a5.78 5.78 0 0 1-2.35.43c-2.73 0-4.52-1.82-4.52-4.81a4.67 4.67 0 0 1 4.89-5 5.5 5.5 0 0 1 2 .38L49 27.43a3.56 3.56 0 0 0-1.55-.33c-1.69 0-2.66 1.35-2.63 3.1 0 1.92 1.12 3.06 2.63 3.06a4 4 0 0 0 1.55-.32z"/><path class="cls-3" d="M49.32 34.66a5.78 5.78 0 0 1-2.35.43c-2.73 0-4.52-1.82-4.52-4.81a4.67 4.67 0 0 1 4.89-5 5.5 5.5 0 0 1 2 .38L49 27.43a3.56 3.56 0 0 0-1.55-.33c-1.69 0-2.66 1.35-2.63 3.1 0 1.92 1.12 3.06 2.63 3.06a4 4 0 0 0 1.55-.32z"/><path class="cls-1" d="M56.46 30.2c0 1.74.72 3.22 2.05 3.22s2-1.49 2-3.24c0-1.45-.54-3.22-2-3.22s-2.05 1.73-2.05 3.24m6.4-.08c0 3.57-2.29 5-4.42 5-2.46 0-4.31-1.78-4.31-4.85s1.92-5 4.44-5 4.28 1.89 4.28 4.85"/><path class="cls-3" d="M56.46 30.2c0 1.74.72 3.22 2.05 3.22s2-1.49 2-3.24c0-1.45-.54-3.22-2-3.22s-2.05 1.73-2.05 3.24zm6.4-.08c0 3.57-2.29 5-4.42 5-2.46 0-4.31-1.78-4.31-4.85s1.92-5 4.44-5 4.28 1.91 4.28 4.86z"/><path class="cls-1" d="M68.57 28.25c0-1.08 0-1.94-.08-2.77h2l.1 1.32h.06a3 3 0 0 1 2.7-1.51 2.5 2.5 0 0 1 2.44 1.62 3.63 3.63 0 0 1 1.08-1.14 3.13 3.13 0 0 1 1.75-.47c1.53 0 2.91 1.11 2.91 3.91v5.72h-2.25v-5.39c0-1.43-.43-2.38-1.49-2.38a1.63 1.63 0 0 0-1.51 1.2 2.43 2.43 0 0 0-.1.78v5.77h-2.25v-5.62c0-1.2-.41-2.13-1.47-2.13a1.69 1.69 0 0 0-1.53 1.28 2.49 2.49 0 0 0-.12.77v5.7h-2.24z"/><path class="cls-3" d="M68.57 28.25c0-1.08 0-1.94-.08-2.77h2l.1 1.32h.06a3 3 0 0 1 2.7-1.51 2.5 2.5 0 0 1 2.44 1.62 3.63 3.63 0 0 1 1.08-1.14 3.13 3.13 0 0 1 1.75-.47c1.53 0 2.91 1.11 2.91 3.91v5.72h-2.25v-5.39c0-1.43-.43-2.38-1.49-2.38a1.63 1.63 0 0 0-1.51 1.2 2.43 2.43 0 0 0-.1.78v5.77h-2.25v-5.62c0-1.2-.41-2.13-1.47-2.13a1.69 1.69 0 0 0-1.53 1.28 2.49 2.49 0 0 0-.12.77v5.7h-2.24z"/><path d="M30.45 43.26a5.13 5.13 0 0 0 .19 1.91h-1.22a.94.94 0 0 1-.08-.31 1.76 1.76 0 0 1-1.21.44c-1.33 0-2.17-1-2.17-2.66s.9-2.76 2.25-2.76a1.41 1.41 0 0 1 .93.3 6.4 6.4 0 0 1 0-.78v-1.8l1.36.22zM28.36 41c-.61 0-.88.51-.88 1.68s.23 1.5 1 1.5a1 1 0 0 0 .68-.34v-2.5a1.15 1.15 0 0 0-.8-.34zm5.24-2.51a.85.85 0 1 1-1.69 0 .86.86 0 0 1 .86-.85.84.84 0 0 1 .83.85zm-.16 1.32v5.37h-1.38V40zm6.73.7a1.3 1.3 0 0 1-1 .39h-.36a1.27 1.27 0 0 1 .31.86c0 .9-.81 1.56-1.94 1.56H37c-.35.16-.54.29-.54.43s.08.12.23.12h.74a2.07 2.07 0 0 1 1.59.47 1.43 1.43 0 0 1 .45 1.12 1.49 1.49 0 0 1-.42 1.08 2.83 2.83 0 0 1-2.07.68 2.94 2.94 0 0 1-2-.56 1.23 1.23 0 0 1-.43-.93 1.05 1.05 0 0 1 .12-.54H36a.74.74 0 0 0-.06.34c0 .42.35.64 1 .64a1.65 1.65 0 0 0 .86-.18.64.64 0 0 0 .34-.54c0-.45-.44-.59-1-.59h-.59a3.73 3.73 0 0 1-1.26-.16.67.67 0 0 1-.4-.69c0-.34.1-.66 1-.88a1.35 1.35 0 0 1-1.13-1.45c0-1.08.87-1.77 2.21-1.77a3.77 3.77 0 0 1 .94.13 2.75 2.75 0 0 0 .64.11 1.65 1.65 0 0 0 1.08-.45zm-4.08 1.12c0 .54.33.75.81.75s.84-.27.84-.75a.74.74 0 0 0-.83-.78.73.73 0 0 0-.82.78zm6.19-3.14a.85.85 0 1 1-1.69 0 .86.86 0 0 1 .86-.85.84.84 0 0 1 .83.85zm-.16 1.32v5.37h-1.38V40zm3.69 1.06h-.89v2.63c0 .67.12.84.59.84a1.8 1.8 0 0 0 .49-.1l.18.81a2.88 2.88 0 0 1-1.12.23 1.42 1.42 0 0 1-1.41-.77 1.92 1.92 0 0 1-.09-.81v-2.83H43v-.94h.54a9.09 9.09 0 0 1 .05-1.24l1.41-.34a15.67 15.67 0 0 0-.08 1.59h1.23zm1.99-.74a3.55 3.55 0 0 1 1.44-.31 1.61 1.61 0 0 1 1.69.91 2.43 2.43 0 0 1 .09.94v1.85a1.08 1.08 0 0 0 .49 1.08l-.73.84a1.47 1.47 0 0 1-.74-.63 2.56 2.56 0 0 1-.32.27 1.81 1.81 0 0 1-1.06.27c-1.17 0-1.8-.59-1.8-1.64 0-1.23.85-1.8 2.52-1.8h.31v-.21c0-.59-.11-.78-.61-.78a2.89 2.89 0 0 0-1.52.59l-.59-1a5.06 5.06 0 0 1 .83-.38zm1.78 2.76c-1 0-1.28.18-1.28.81a.62.62 0 0 0 .56.68 1 1 0 0 0 .72-.36v-1.13zm4.3-3.89v4c0 .9 0 1 .09 1.17a.32.32 0 0 0 .27.14h.15l.23.81a2.29 2.29 0 0 1-.81.14 1.23 1.23 0 0 1-1.22-.72 2.85 2.85 0 0 1-.12-1.18v-3.9a13.55 13.55 0 0 0-.07-1.58l1.41-.32a7.8 7.8 0 0 1 .07 1.44zm4.92 1.13a3.55 3.55 0 0 1 1.43-.31 1.61 1.61 0 0 1 1.69.91 2.43 2.43 0 0 1 .09.94v1.85a1.08 1.08 0 0 0 .49 1.08l-.73.84a1.47 1.47 0 0 1-.74-.63 2.54 2.54 0 0 1-.32.27 1.81 1.81 0 0 1-1.05.27c-1.17 0-1.8-.59-1.8-1.64 0-1.23.85-1.8 2.52-1.8h.31v-.21c0-.59-.11-.78-.61-.78a2.89 2.89 0 0 0-1.52.59l-.59-1a5.07 5.07 0 0 1 .83-.38zm1.78 2.76c-1 0-1.28.18-1.28.81a.62.62 0 0 0 .56.68 1 1 0 0 0 .72-.36v-1.13zm5.87-1.61a1.32 1.32 0 0 0-.83-.41c-.61 0-.89.54-.89 1.76A2.2 2.2 0 0 0 65 44a.79.79 0 0 0 .61.3 1.4 1.4 0 0 0 .94-.43l.08-.07.63.83a2.16 2.16 0 0 1-.48.39 2.45 2.45 0 0 1-1.28.33c-1.45 0-2.28-1-2.28-2.7a2.78 2.78 0 0 1 1.08-2.43 2.49 2.49 0 0 1 1.3-.39 2.24 2.24 0 0 1 1 .23 2.33 2.33 0 0 1 .51.37zm2.35-1.15a3.55 3.55 0 0 1 1.43-.31 1.61 1.61 0 0 1 1.69.91 2.43 2.43 0 0 1 .09.94v1.85a1.08 1.08 0 0 0 .49 1.08l-.73.84a1.47 1.47 0 0 1-.74-.63 2.55 2.55 0 0 1-.32.27 1.81 1.81 0 0 1-1.05.27c-1.17 0-1.8-.58-1.8-1.62 0-1.23.85-1.8 2.52-1.8h.31v-.22c0-.59-.11-.78-.61-.78a2.89 2.89 0 0 0-1.52.59l-.59-1a5.07 5.07 0 0 1 .83-.39zm1.78 2.76c-1 0-1.28.18-1.28.81a.62.62 0 0 0 .56.68 1 1 0 0 0 .72-.36v-1.13zm7.12.37a5.13 5.13 0 0 0 .19 1.91h-1.22a.94.94 0 0 1-.08-.31 1.76 1.76 0 0 1-1.2.44c-1.33 0-2.17-1-2.17-2.66s.91-2.77 2.24-2.77a1.42 1.42 0 0 1 .93.3 6.37 6.37 0 0 1 0-.78v-1.8l1.36.22zM75.62 41c-.61 0-.88.51-.88 1.68s.23 1.5 1 1.5a1 1 0 0 0 .68-.34v-2.5a1.15 1.15 0 0 0-.8-.34zm7.8 3.59a3 3 0 0 1-2 .73A2.45 2.45 0 0 1 79 42.6a2.87 2.87 0 0 1 .66-2.08 2.06 2.06 0 0 1 1.65-.71 2.16 2.16 0 0 1 1.52.55 3.08 3.08 0 0 1 .69 2.29V43h-3c0 .81.4 1.27 1.11 1.27a2 2 0 0 0 1.33-.52zM82.06 42v-.06a1.35 1.35 0 0 0-.16-.79.67.67 0 0 0-.6-.31c-.52 0-.81.41-.81 1.14zm3.65-2.16a1.33 1.33 0 0 1 .18.54 1.81 1.81 0 0 1 1.28-.54 1.42 1.42 0 0 1 1.08.43 1.73 1.73 0 0 1 .2.27 1.93 1.93 0 0 1 1.49-.69 1.62 1.62 0 0 1 1 .33c.3.27.39.56.39 1.28v3.72H90v-3.47c0-.63-.07-.75-.43-.75a1.56 1.56 0 0 0-.91.44v3.77h-1.3v-3.4c0-.66-.09-.81-.47-.81a1.45 1.45 0 0 0-.9.4v3.82h-1.32v-3.66a2.79 2.79 0 0 0-.19-1.35zm7.78.01l.91 3.06c.09.32.27 1.08.27 1.08s.1-.59.16-.84.12-.48.2-.73l.79-2.5h1.45l-1.91 5.33a3.34 3.34 0 0 1-1 1.73 2.77 2.77 0 0 1-1.27.48l-.46-.89a3.07 3.07 0 0 0 .85-.35 1.58 1.58 0 0 0 .39-.43 3.13 3.13 0 0 0 .3-.61h-.35c-.16-.49-.44-1.31-.49-1.47L92.1 40z"/></svg>