<svg id="Calque_1" data-name="Calque 1" xmlns="http://www.w3.org/2000/svg" viewBox="0 0 512 512"><defs><style>.cls-1{fill:none}.cls-2{fill:#0b0204}.cls-3,.cls-4{fill:#fff}.cls-3{fill-rule:evenodd}</style></defs><title>ipac</title><path class="cls-1" d="M256 512c141.39 0 256-114.61 256-256S397.39 0 256 0 0 114.61 0 256s114.61 256 256 256"/><path class="cls-2" d="M108.1 391.67h191.61l143.87-144.48.13-52.39h-18.17v-50.63H306A22.25 22.25 0 0 0 322.4 123v-11.39c-1.43-13.49-10-20.42-24-20.49H162.58l-54.48 54.33z"/><path class="cls-3" d="M179.22 94.29h-14.51v47.12h14.51zm51.31 132.29h22.23v-11.21h-22.23v-5.87H255v-12.08h-39v47.12h39.7v-12.08h-25.17zM189.39 146h-23.81v47.12h21c16.42 0 24.07-9.17 24.07-23.62 0-11.88-5.54-23.49-21.24-23.49m1.55 82.66h6.4c-.73 3.5-4.16 5.21-7.52 5.21-8.84 0-10.62-7.72-10.62-12.14 0-3.23-.33-13.73 9.63-13.73a6.89 6.89 0 0 1 6.86 5.87h13.89c-2.11-11.09-9.7-17.62-21.7-17.62-10.62 0-23.21 7.19-23.21 25.14 0 13.4 8.57 24.22 22.49 24.22 5.14 0 10.16-1.78 13.39-5.94l.46 4.82h9.17v-25.9h-19.26zm203.42-61.28h.13l14.44 25.74H423V146h-13.67v25.21h-.13L395.48 146h-14.84v47.12h13.72zm-44 26.86c5.14 0 10.16-1.78 13.39-5.94l.46 4.82h9.17v-25.91h-19.27v10.1h6.4c-.72 3.49-4.15 5.21-7.52 5.21-8.84 0-10.62-7.72-10.62-12.14 0-3.23-.33-13.73 9.63-13.73a6.89 6.89 0 0 1 6.86 5.87h13.92c-2.11-11.09-9.69-17.62-21.7-17.62-10.62 0-23.21 7.19-23.21 25.14 0 13.4 8.58 24.22 22.49 24.22m-149.2-67.11h8.57c10.82 0 18.47-5.35 18.47-16.76 0-6.73-4.48-16.1-17.28-16.1h-24.27v47.12h14.51zm97.14 15.38c13.78 0 21.5-10.09 21.5-19.6h-14.25c-.86 4.42-2.77 7.86-7.65 7.86-6.79 0-9-6.6-9-12.94s2.18-12.93 9-12.93c6 0 7.32 5.21 7.59 6.93h14.11c-1.25-11.81-8.37-18.61-21.3-18.68-14.51 0-23.87 9.83-23.87 24.68 0 13.93 8.64 24.68 23.87 24.68m-66.93 32.68h22.23V164h-22.23v-5.87h24.47V146h-39v47.12h39.7v-12.04h-25.2zM376.54 226h-.13l-7.72-28.57h-14.64l14 47.12h16.22L399 197.42h-14.9zm-49.53.59h22.23v-11.22H327v-5.87h24.47v-12.08h-39v47.12h39.7v-12.08H327zm89.17 5.88v-5.88h22.22v-11.22h-22.23v-5.87h24.47v-12.08h-39v47.12h39.7v-12.08zM321.81 146H307.3v47.12h14.51zm-66.35-51.71h-14.18l-17.34 47.12h14.57l2.11-6.73h15l2 6.73h15zm35.74 128.34h-.13l-13.72-25.21h-14.84v47.12h13.72V218.8h.13l14.44 25.74h14.11v-47.12H291.2zm-8.89-38.77c-2.7 0-5.87-.59-6.92-3.43a8.7 8.7 0 0 1-.53-3.1h-14.51c.13 15 15.37 17 20.71 17 10.49 0 21.77-4 21.77-16.24 0-8.64-6.59-11.74-13.26-13.59s-13.39-2.57-13.65-5.94c0-2.64 3.23-3.17 5.21-3.17a7.52 7.52 0 0 1 4.29 1.19 3.6 3.6 0 0 1 1.72 3.76h13.72c-.39-11.48-9.43-15.38-19.65-15.38-9.7 0-19 4.69-19 15.57 0 9.5 8.51 11.55 16 13.66 8.11 2.31 10.16 3 10.16 5.41 0 3.5-3.63 4.29-6 4.29"/><path class="cls-4" d="M165.6 253.89h8.12V256h-5.46v1.78h5v2.06h-5v1.94h5.6v2.29h-8.26zm6.47-2.75l-2.24 2.13h-1.71l1.38-2.13zm10.2 6.38a1.85 1.85 0 0 0-2.06-1.57c-1.71 0-2.37 1.51-2.37 3s.66 3 2.37 3a1.89 1.89 0 0 0 2.06-1.88h2.65a4.3 4.3 0 0 1-4.65 4.17 5.31 5.31 0 0 1 0-10.62c2.2 0 4.58 1.4 4.65 3.85zm8.84-3.85c3.21 0 5 2.35 5 5.31s-1.81 5.31-5 5.31-5-2.35-5-5.31 1.81-5.31 5-5.31m0 8.33c1.71 0 2.37-1.51 2.37-3s-.66-3-2.37-3-2.37 1.52-2.37 3 .65 3 2.37 3m6.6-8.12h2.65v7.91h4.75v2.29h-7.4v-10.2zm8.85 0h8.12v2.13h-5.46v1.79h4.99v2.05h-4.99v1.94h5.61v2.29h-8.27v-10.2zm16.61 6.77c.06 1.2.8 1.59 1.93 1.59.8 0 1.63-.28 1.63-1s-1.46-1.07-2.93-1.48-3-1.07-3-2.94c0-2.22 2.24-3.1 4.15-3.1s4.07 1 4.08 3.28h-2.63c0-.93-.83-1.22-1.64-1.22-.57 0-1.28.2-1.28.87s1.47.93 3 1.34 3 1.1 3 2.94c0 2.58-2.2 3.41-4.44 3.41s-4.41-1-4.42-3.64zm16.39-.78c0 3-1.36 4.42-4.44 4.42s-4.44-1.47-4.44-4.42v-6h2.65V260c0 1.31.48 2 1.78 2s1.78-.67 1.78-2v-6.14h2.65zm1.91-5.98h4.84c1.9 0 3.68.87 3.68 3.28s-1.44 3.51-3.68 3.51h-2.18v3.4h-2.65zm2.65 4.74h1.79c.83 0 1.43-.34 1.43-1.27a1.25 1.25 0 0 0-1.43-1.34h-1.79zm7.26-4.74h8.12V256H254v1.78h5v2.06h-5v1.94h5.61v2.29h-8.26zm6.47-2.75l-2.24 2.13h-1.71l1.38-2.13zm3.44 2.75h5.19c1.8 0 3.57.81 3.57 2.87a2.63 2.63 0 0 1-1.6 2.56c1.08.26 1.4 1.47 1.48 2.44 0 .43.07 1.93.43 2.3h-2.63a4.9 4.9 0 0 1-.3-1.63c-.07-1-.24-2.08-1.49-2.08h-2v3.71h-2.65zm2.65 4.42h2.23a1.09 1.09 0 0 0 1.23-1.2c0-.76-.6-1.1-1.34-1.1h-2.11zm7.78-4.43h2.65v10.19h-2.65zm4.64 0h8.12v2.13h-5.47v1.79h5v2.05h-5v1.94h5.61v2.29h-8.26v-10.2zm18.71 5.99c0 3-1.36 4.42-4.44 4.42s-4.44-1.47-4.44-4.42v-6h2.65V260c0 1.31.48 2 1.78 2s1.78-.67 1.78-2v-6.14h2.65zm1.93-5.98h5.19c1.8 0 3.57.81 3.57 2.87a2.62 2.62 0 0 1-1.6 2.56c1.08.26 1.4 1.47 1.48 2.44 0 .43.07 1.93.43 2.3h-2.63a4.9 4.9 0 0 1-.3-1.63c-.07-1-.24-2.08-1.49-2.08h-2v3.71H297zm2.65 4.42h2.22a1.09 1.09 0 0 0 1.23-1.2c0-.76-.6-1.1-1.34-1.1h-2.11zm7.76-4.43h8.12v2.13h-5.47v1.79h5v2.05h-5v1.94h5.61v2.29h-8.26v-10.2zm14.59.01h4.38c3.12 0 5 1.9 5 5.05 0 3.34-1.9 5.14-5 5.14H322zm2.66 7.91h1.26c2 0 2.81-.83 2.81-2.87a2.48 2.48 0 0 0-2.81-2.75h-1.26zm8.26-7.92h8.12v2.13h-5.47v1.79h5v2.05h-5v1.94h5.61v2.29h-8.26v-10.2zm14.54.01h4.38c3.12 0 5 1.9 5 5.05 0 3.34-1.9 5.14-5 5.14h-4.38zm2.65 7.91h1.26c2 0 2.81-.83 2.81-2.87a2.48 2.48 0 0 0-2.81-2.75h-1.26zm8.32-7.92h8.12v2.13h-5.47v1.79h4.99v2.05h-4.99v1.94h5.61v2.29h-8.26v-10.2zm11.97 6.77c.06 1.2.8 1.59 1.93 1.59.8 0 1.63-.28 1.63-1s-1.46-1.07-2.92-1.48-3-1.07-3-2.94c0-2.22 2.24-3.1 4.15-3.1s4.07 1 4.08 3.28h-2.65c0-.93-.83-1.22-1.64-1.22-.57 0-1.28.2-1.28.87s1.47.93 3 1.34 3 1.1 3 2.94c0 2.58-2.2 3.41-4.44 3.41s-4.41-1-4.42-3.64zm7.59-6.77h2.65v10.19h-2.65zm14.01 10.2h-1.71l-.16-1.11a3.47 3.47 0 0 1-2.84 1.33 5.31 5.31 0 0 1 0-10.62c2.11 0 4.37 1.13 4.61 3.68h-2.65c-.09-.87-.94-1.39-2-1.39-1.71 0-2.37 1.51-2.37 3s.66 3 2.37 3c1.31 0 2.2-.61 2.34-1.54h-1.85v-2H392zm1.83-10.2h2.72l3.54 6.29h.03v-6.29h2.5v10.2h-2.73l-3.54-6.36h-.03v6.36h-2.49v-10.2zM165.6 271h8.12v2.12h-5.47v1.78h5v2.06h-5v1.94h5.61v2.29h-8.26V271zm17.99 2.28h-3.04v7.91h-2.66v-7.91h-3.04V271h8.74v2.28zm5.93-2.28h4.38c3.12 0 5 1.9 5 5.05 0 3.34-1.9 5.14-5 5.14h-4.38zm2.65 7.91h1.26c2 0 2.81-.83 2.81-2.87a2.48 2.48 0 0 0-2.81-2.76h-1.26zm8.32-7.91h8.12v2.12h-5.47v1.78h5v2.06h-5v1.94h5.61v2.29h-8.26V271zm21.31 3.64a1.84 1.84 0 0 0-2.05-1.57c-1.71 0-2.37 1.51-2.37 3s.65 3 2.37 3a1.89 1.89 0 0 0 2.05-1.88h2.65a4.3 4.3 0 0 1-4.65 4.17 5.31 5.31 0 0 1 0-10.62c2.2 0 4.58 1.4 4.65 3.85zm8.83-3.86c3.21 0 5 2.36 5 5.31s-1.81 5.31-5 5.31-5-2.35-5-5.31 1.81-5.31 5-5.31m0 8.34c1.71 0 2.37-1.51 2.37-3s-.66-3-2.37-3-2.37 1.52-2.37 3 .66 3 2.37 3m6.62-8.12h3.91l1.75 6.79h.03l1.76-6.79h3.91v10.19h-2.5v-7.74h-.03l-2.14 7.74h-2.03l-2.14-7.74h-.02v7.74h-2.5V271zm13.34 0h3.91l1.76 6.79h.03l1.75-6.79h3.91v10.19h-2.5v-7.74h-.02l-2.14 7.74h-2.03l-2.14-7.74h-.03v7.74h-2.5V271zm22.14 6c0 3-1.36 4.42-4.44 4.42s-4.44-1.47-4.44-4.42v-6h2.65v6.14c0 1.31.48 2 1.78 2s1.78-.67 1.78-2V271h2.65zm1.87-6h2.73l3.54 6.28h.02V271h2.5v10.19h-2.72l-3.54-6.36h-.03v6.36h-2.5V271zm10.74 0h2.65v10.19h-2.65zm11.4 3.64a1.85 1.85 0 0 0-2.06-1.57c-1.71 0-2.37 1.51-2.37 3s.66 3 2.37 3a1.89 1.89 0 0 0 2.06-1.88h2.65a4.3 4.3 0 0 1-4.65 4.17 5.31 5.31 0 0 1 0-10.62c2.2 0 4.58 1.4 4.65 3.85zm6.96-3.64h2.7l3.81 10.19h-2.77l-.63-1.83h-3.55l-.64 1.83h-2.73zm.17 6.39h2.31l-1.13-3.57zm14.02-4.11h-3.05v7.91h-2.65v-7.91h-3.04V271h8.74v2.28zm1.3-2.28h2.65v10.19h-2.65zm9.27-.22c3.21 0 5 2.36 5 5.31s-1.81 5.31-5 5.31-5-2.35-5-5.31 1.81-5.31 5-5.31m0 8.34c1.71 0 2.37-1.51 2.37-3s-.66-3-2.37-3-2.37 1.52-2.37 3 .66 3 2.37 3m6.57-8.12h2.72l3.55 6.28h.02V271h2.5v10.19h-2.73l-3.54-6.36h-.02v6.36h-2.5V271z"/><path class="cls-2" d="M248.47 110.06h-.13l-4.56 14.52h8.91l-4.22-14.52zm-33.97.86c0-4.29-3.3-4.55-6.86-4.55h-6.46v9.57h5.6c3.76 0 7.72-.26 7.72-5.02zm-29.8 47.2h-4.62v23h5.67c9 0 10.35-7.32 10.35-11.75.02-3-.91-11.25-11.4-11.25z"/></svg>