<svg xmlns="http://www.w3.org/2000/svg" viewBox="0 0 96 96"><path fill="none" d="M0 0h96v96H0z"/><g fill="#1A171B"><path d="M49.654 50.368a3.985 3.985 0 0 0-3.654.169 3.981 3.981 0 0 0-1.984 3.399l-4.743 2.738a2 2 0 1 0 2 3.464l4.698-2.712c1.202.71 2.733.785 4.028.038a3.98 3.98 0 0 0 1.954-2.961l23.026-13.275a2 2 0 0 0-1.95-3.492L49.654 50.368zM48 78.126a2 2 0 0 0-2 2V84a2 2 0 0 0 4 0v-3.873a2 2 0 0 0-2-2zm-.385-48.252a2 2 0 0 0 2-2V24a2 2 0 0 0-4 0v3.874a2 2 0 0 0 2 2zM62.77 75.662a2 2 0 0 0-3.456 2.017l1.958 3.354a2 2 0 1 0 3.456-2.016l-1.958-3.355zm12.203-8.234l-3.392-1.937a2 2 0 0 0-1.984 3.474l3.391 1.937a1.999 1.999 0 0 0 2.728-.745 2 2 0 0 0-.743-2.729zm-2.89-13.098a2 2 0 0 0 2 2H78a2 2 0 0 0 0-4h-3.917a2 2 0 0 0-2 2zM60.032 33.717a2.001 2.001 0 0 0 2.736-.719l1.96-3.354a2 2 0 0 0-3.456-2.017l-1.959 3.355a2 2 0 0 0 .72 2.735zm-26.802-.718a2 2 0 1 0 3.456-2.016l-1.958-3.356a2 2 0 1 0-3.455 2.016L33.23 33zm-12.203 8.233l3.393 1.938a2 2 0 0 0 1.984-3.474l-3.392-1.938a2 2 0 0 0-1.985 3.474zm.891 15.099a2 2 0 0 0 .001-4H18a2 2 0 0 0-.001 4h3.919zm2.504 9.16l-3.394 1.937a2 2 0 1 0 1.983 3.474l3.393-1.937a2 2 0 1 0-1.982-3.474zm11.546 9.452a2 2 0 0 0-2.737.719l-1.959 3.355a2 2 0 0 0 3.456 2.016l1.959-3.355a2 2 0 0 0-.72-2.735z"/><path d="M82.75 24.54l1.418 1.417a1.998 1.998 0 0 0 2.828 0l2.958-2.958a2 2 0 0 0 0-2.829l-7.394-7.394a2 2 0 0 0-2.828 0l-2.96 2.958a2.002 2.002 0 0 0 0 2.829l1.736 1.735-2.453 2.452a41.832 41.832 0 0 0-23.22-10.464V9.578h1.973a2 2 0 0 0 2-2V2a2 2 0 0 0-2-2H40.863a2 2 0 0 0-2 2v5.578a2 2 0 0 0 2 2h1.972v2.75a41.817 41.817 0 0 0-22.676 10.235l-2.266-2.265 1.735-1.735a2 2 0 0 0 0-2.83l-2.959-2.958a2 2 0 0 0-2.828 0L6.446 20.17a2 2 0 0 0 0 2.829l2.96 2.959c.39.39.902.585 1.414.585s1.023-.195 1.414-.586l1.417-1.417 2.312 2.312C9.753 34.173 6 43.645 6 54c0 23.196 18.8 42 42 42 23.195 0 42-18.804 42-42a41.824 41.824 0 0 0-9.778-26.933l2.528-2.528zM48 90c-19.85 0-36-16.15-36-36s16.15-36 36-36 36 16.15 36 36-16.15 36-36 36z"/></g></svg>