<svg width="37" height="45" viewBox="0 0 37 45" xmlns="http://www.w3.org/2000/svg"><title>search</title><g fill="#75756d" fill-rule="evenodd"><path d="M11.068 29.635c-6.197-4.057-7.933-12.37-3.876-18.567C11.25 4.87 19.562 3.135 25.76 7.192c6.198 4.057 7.933 12.37 3.876 18.567-4.057 6.198-12.37 7.933-18.567 3.876zm17.43-26.626C19.99-2.561 8.578-.18 3.008 8.329-2.56 16.836-.177 28.25 8.33 33.82c8.509 5.569 19.92 3.187 25.49-5.321 5.569-8.509 3.187-19.92-5.321-25.49z"/><path d="M.41 41.35l4.183 2.738 7.197-10.992-4.183-2.739z"/></g></svg>