<?xml version="1.0" encoding="UTF-8"?>
<svg width="37px" height="45px" viewBox="0 0 37 45" version="1.1" xmlns="http://www.w3.org/2000/svg" xmlns:xlink="http://www.w3.org/1999/xlink">
    <!-- Generator: Sketch 40.3 (33839) - http://www.bohemiancoding.com/sketch -->
    <title>search</title>
    <desc>Created with Sketch.</desc>
    <defs></defs>
    <g id="Page-1" stroke="none" stroke-width="1" fill="none" fill-rule="evenodd">
        <g id="search" fill="#000000">
            <path d="M11.0676733,29.6348628 C4.87086397,25.5781105 3.13548059,17.2645891 7.19215186,11.0679036 C11.2488142,4.87038899 19.5621044,3.13531452 25.7591964,7.19225186 C31.9568221,11.2489869 33.6917661,19.5613912 29.6347628,25.7594267 C25.5781131,31.9569221 17.2657088,33.6918661 11.0676733,29.6348628 Z M28.4976733,3.0088628 C19.9902981,-2.56050564 8.57779475,-0.178591553 3.0087628,8.32942672 C-2.56034797,16.8364083 -0.178066567,28.2489569 8.32919635,33.8182519 C16.8377217,39.3876157 28.2491687,37.0058474 33.8182372,28.4977733 C39.3875157,19.9893783 37.0057474,8.57793133 28.4976733,3.0088628 Z" id="Stroke-3"></path>
            <polygon id="Stroke-5" points="0.410041221 41.3490542 4.59315878 44.0879458 11.7901588 33.0959458 7.60704122 30.3570542"></polygon>
        </g>
    </g>
</svg>